<svg width="776" height="819" viewBox="0 0 776 819" fill="none" xmlns="http://www.w3.org/2000/svg">
<g filter="url(#filter0_f_2363_2878)">
<path d="M715 361.5C715 503.713 599.713 619 457.5 619C315.287 619 200 503.713 200 361.5C200 219.287 315.287 104 457.5 104C599.713 104 715 219.287 715 361.5Z" fill="#F4EFC6"/>
</g>
<g clip-path="url(#clip0_2363_2878)">
<path d="M58.5347 411.765H302.025C307.596 411.765 312.124 407.241 312.124 401.676V213.844C312.124 208.279 307.596 203.755 302.025 203.755H58.5347C52.9638 203.755 48.4359 208.279 48.4359 213.844V401.676C48.4359 407.266 52.9638 411.765 58.5347 411.765Z" fill="white"/>
<path d="M58.5345 412.4H302.025C307.952 412.4 312.76 407.597 312.76 401.675V213.844C312.76 207.923 307.952 203.12 302.025 203.12H58.5345C52.6075 203.12 47.7998 207.923 47.7998 213.844V401.675C47.7998 407.597 52.6075 412.4 58.5345 412.4ZM302.025 204.391C307.24 204.391 311.488 208.635 311.488 213.844V401.675C311.488 406.885 307.24 411.129 302.025 411.129H58.5345C53.3198 411.129 49.0717 406.885 49.0717 401.675V213.844C49.0717 208.635 53.3198 204.391 58.5345 204.391H302.025Z" fill="#D9C6F4"/>
<path d="M48.0287 226.272L311.717 226.221V214.073C311.717 208.508 307.189 203.984 301.618 203.984H58.1275C52.5566 203.984 48.0287 208.508 48.0287 214.073V226.272Z" fill="#D9C6F4"/>
<path d="M59.6539 217.834C57.9259 217.834 56.525 216.435 56.525 214.709C56.525 212.982 57.9259 211.583 59.6539 211.583C61.3819 211.583 62.7827 212.982 62.7827 214.709C62.7827 216.435 61.3819 217.834 59.6539 217.834Z" fill="white"/>
<path d="M70.2867 217.834C68.5587 217.834 67.1578 216.435 67.1578 214.709C67.1578 212.982 68.5587 211.583 70.2867 211.583C72.0147 211.583 73.4155 212.982 73.4155 214.709C73.4155 216.435 72.0147 217.834 70.2867 217.834Z" fill="white"/>
<path d="M80.9454 217.834C79.2174 217.834 77.8165 216.435 77.8165 214.709C77.8165 212.982 79.2174 211.583 80.9454 211.583C82.6734 211.583 84.0742 212.982 84.0742 214.709C84.0742 216.435 82.6734 217.834 80.9454 217.834Z" fill="white"/>
<path d="M180.153 253.718H266.667C267.379 253.718 267.938 253.159 267.938 252.448C267.938 251.736 267.379 251.177 266.667 251.177H180.153C179.44 251.177 178.881 251.736 178.881 252.448C178.881 253.159 179.44 253.718 180.153 253.718Z" fill="#00676C"/>
<path d="M114.981 253.718H164.915C165.627 253.718 166.187 253.159 166.187 252.448C166.187 251.736 165.627 251.177 164.915 251.177H114.981C114.268 251.177 113.709 251.736 113.709 252.448C113.709 253.159 114.294 253.718 114.981 253.718Z" fill="#D9C6F4"/>
<path d="M283.608 256.31C281.473 256.31 279.742 254.581 279.742 252.448C279.742 250.314 281.473 248.585 283.608 248.585C285.743 248.585 287.475 250.314 287.475 252.448C287.475 254.581 285.743 256.31 283.608 256.31Z" fill="#00676C"/>
<path d="M161.1 275.675H189.819C190.531 275.675 191.091 275.116 191.091 274.405C191.091 273.693 190.531 273.134 189.819 273.134H161.1C160.387 273.134 159.828 273.693 159.828 274.405C159.828 275.116 160.387 275.675 161.1 275.675Z" fill="#00676C"/>
<path d="M204.344 275.675H247.613C248.326 275.675 248.885 275.116 248.885 274.405C248.885 273.693 248.326 273.134 247.613 273.134H204.344C203.631 273.134 203.072 273.693 203.072 274.405C203.072 275.116 203.657 275.675 204.344 275.675Z" fill="#232323"/>
<path d="M120.654 275.675H145.862C146.575 275.675 147.134 275.116 147.134 274.405C147.134 273.693 146.575 273.134 145.862 273.134H120.654C119.941 273.134 119.382 273.693 119.382 274.405C119.382 275.116 119.941 275.675 120.654 275.675Z" fill="#00676C"/>
<path d="M283.608 278.268C281.473 278.268 279.742 276.538 279.742 274.405C279.742 272.271 281.473 270.542 283.608 270.542C285.743 270.542 287.475 272.271 287.475 274.405C287.475 276.538 285.743 278.268 283.608 278.268Z" fill="#00676C"/>
<path d="M195.39 297.633H247.613C248.326 297.633 248.885 297.074 248.885 296.362C248.885 295.65 248.326 295.091 247.613 295.091H195.39C194.677 295.091 194.118 295.65 194.118 296.362C194.118 297.074 194.677 297.633 195.39 297.633Z" fill="#00676C"/>
<path d="M155.223 297.633H180.152C180.865 297.633 181.424 297.074 181.424 296.362C181.424 295.65 180.865 295.091 180.152 295.091H155.223C154.511 295.091 153.952 295.65 153.952 296.362C153.952 297.074 154.537 297.633 155.223 297.633Z" fill="#D9C6F4"/>
<path d="M283.608 300.225C281.473 300.225 279.742 298.495 279.742 296.362C279.742 294.229 281.473 292.499 283.608 292.499C285.743 292.499 287.475 294.229 287.475 296.362C287.475 298.495 285.743 300.225 283.608 300.225Z" fill="#00676C"/>
<path d="M231.028 319.59H266.667C267.379 319.59 267.938 319.031 267.938 318.319C267.938 317.608 267.379 317.049 266.667 317.049H231.028C230.316 317.049 229.756 317.608 229.756 318.319C229.756 319.031 230.316 319.59 231.028 319.59ZM147.058 319.59H215.791C216.503 319.59 217.063 319.031 217.063 318.319C217.063 317.608 216.503 317.049 215.791 317.049H147.058C146.346 317.049 145.786 317.608 145.786 318.319C145.786 319.031 146.346 319.59 147.058 319.59Z" fill="#00676C"/>
<path d="M283.608 322.182C281.473 322.182 279.742 320.453 279.742 318.319C279.742 316.186 281.473 314.456 283.608 314.456C285.743 314.456 287.475 316.186 287.475 318.319C287.475 320.453 285.743 322.182 283.608 322.182Z" fill="#00676C"/>
<path d="M211.975 341.547H247.613C248.326 341.547 248.885 340.988 248.885 340.277C248.885 339.565 248.326 339.006 247.613 339.006H211.975C211.263 339.006 210.703 339.565 210.703 340.277C210.703 340.988 211.263 341.547 211.975 341.547ZM110.58 341.547H160.336C161.049 341.547 161.608 340.988 161.608 340.277C161.608 339.565 161.049 339.006 160.336 339.006H110.58C109.868 339.006 109.308 339.565 109.308 340.277C109.308 340.988 109.868 341.547 110.58 341.547ZM175.065 341.547H196.738C197.45 341.547 198.01 340.988 198.01 340.277C198.01 339.565 197.45 339.006 196.738 339.006H175.065C174.353 339.006 173.793 339.565 173.793 340.277C173.793 340.988 174.353 341.547 175.065 341.547Z" fill="#00676C"/>
<path d="M283.608 344.139C281.473 344.139 279.742 342.41 279.742 340.277C279.742 338.143 281.473 336.414 283.608 336.414C285.743 336.414 287.475 338.143 287.475 340.277C287.475 342.41 285.743 344.139 283.608 344.139Z" fill="#00676C"/>
<path d="M151.204 363.479H188.98C189.692 363.479 190.251 362.92 190.251 362.208C190.251 361.497 189.692 360.938 188.98 360.938H151.179C150.467 360.938 149.907 361.497 149.907 362.208C149.907 362.92 150.492 363.479 151.204 363.479Z" fill="#D9C6F4"/>
<path d="M201.775 363.479H266.667C267.379 363.479 267.938 362.92 267.938 362.208C267.938 361.497 267.379 360.938 266.667 360.938H201.775C201.063 360.938 200.503 361.497 200.503 362.208C200.503 362.92 201.088 363.479 201.775 363.479Z" fill="#00676C"/>
<path d="M283.608 366.071C281.473 366.071 279.742 364.342 279.742 362.208C279.742 360.075 281.473 358.346 283.608 358.346C285.743 358.346 287.475 360.075 287.475 362.208C287.475 364.342 285.743 366.071 283.608 366.071Z" fill="#00676C"/>
<path d="M217.012 385.436H247.613C248.326 385.436 248.885 384.877 248.885 384.166C248.885 383.454 248.326 382.895 247.613 382.895H217.012C216.299 382.895 215.74 383.454 215.74 384.166C215.74 384.877 216.299 385.436 217.012 385.436Z" fill="#232323"/>
<path d="M136.984 385.436H201.774C202.487 385.436 203.046 384.877 203.046 384.166C203.046 383.454 202.487 382.895 201.774 382.895H136.984C136.272 382.895 135.713 383.454 135.713 384.166C135.713 384.877 136.272 385.436 136.984 385.436Z" fill="#00676C"/>
<path d="M283.608 388.028C281.473 388.028 279.742 386.299 279.742 384.166C279.742 382.032 281.473 380.303 283.608 380.303C285.743 380.303 287.475 382.032 287.475 384.166C287.475 386.299 285.743 388.028 283.608 388.028Z" fill="#00676C"/>
</g>
<g clip-path="url(#clip1_2363_2878)">
<path d="M328.597 431.63C331.454 428.366 331.888 382.344 343.188 380.075C361.197 376.454 388.975 384.18 406.168 377.245C412.877 374.542 457.669 356.541 476.086 359.703C514.093 372.451 532.179 457.177 512.282 553.173C447.874 550.19 379.716 550.037 315.307 547.08C308.191 511.282 312.706 472.45 328.597 431.63Z" fill="white"/>
<path d="M512.307 553.964C512.665 553.964 512.971 553.709 513.047 553.352C522.562 507.432 523.837 461.894 516.644 425.102C513.2 407.484 508.022 392.798 501.237 381.452C494.222 369.749 485.855 362.201 476.341 359.014C476.315 359.014 476.264 358.989 476.239 358.989C459.378 356.082 421.422 370.309 405.887 376.556C396.321 380.406 383.236 379.641 370.584 378.902C360.508 378.315 350.968 377.755 343.035 379.335C334.795 380.993 332.168 402.436 330.255 418.091C329.515 424.082 328.775 430.278 328.01 431.145C327.959 431.222 327.908 431.298 327.883 431.375C311.889 472.45 307.425 511.435 314.593 547.258C314.669 547.615 314.95 547.845 315.307 547.87C347.524 549.349 381.22 550.165 413.795 550.93C446.369 551.695 480.065 552.485 512.256 553.989C512.282 553.964 512.307 553.964 512.307 553.964ZM475.907 360.468C485.039 363.553 493.125 370.87 499.936 382.217C506.645 393.41 511.746 407.917 515.164 425.383C522.281 461.818 521.031 506.896 511.695 552.408C479.682 550.93 446.216 550.139 413.846 549.374C381.476 548.609 347.983 547.819 315.97 546.34C309.032 511.001 313.496 472.527 329.26 431.987C330.229 430.661 330.791 426.275 331.785 418.244C333.444 404.781 336.198 382.242 343.341 380.814C351.07 379.259 360.508 379.82 370.482 380.406C383.312 381.171 396.576 381.936 406.448 377.959C419.789 372.579 430.4 369.035 436.956 366.995C455.194 361.36 468.28 359.167 475.907 360.468Z" fill="#232323"/>
<path d="M317.909 547.182C304.39 552.077 286.406 550.445 274.647 541.266C248.475 520.818 259.265 467.682 273.448 438.106C278.269 428.06 296.252 390.503 334.923 380.942C342.933 378.978 351.223 378.315 359.462 378.978C359.972 379.029 360.482 379.055 360.992 379.106H361.018C362.115 379.208 363.161 379.335 364.13 379.463" fill="white"/>
<path d="M301.941 550.675C307.476 550.675 313.037 549.782 318.164 547.921C318.572 547.768 318.776 547.335 318.623 546.952C318.47 546.544 318.037 546.34 317.654 546.493C303.522 551.618 286.049 549.221 275.132 540.68C260.669 529.359 258.755 508.605 259.699 493.179C260.771 475.535 266.178 455.087 274.162 438.463C276.586 433.44 282.223 421.635 292.095 409.855C304.39 395.194 318.878 385.735 335.127 381.707C343.086 379.769 351.248 379.106 359.411 379.769C359.921 379.794 360.431 379.845 360.916 379.896H360.967C362.013 379.998 363.033 380.126 364.028 380.253C364.436 380.304 364.844 380.024 364.895 379.59C364.946 379.182 364.666 378.774 364.232 378.723C363.212 378.596 362.166 378.468 361.095 378.366H361.044C360.482 378.315 359.998 378.264 359.539 378.239C351.223 377.576 342.882 378.239 334.77 380.228C318.19 384.333 303.446 393.971 290.921 408.886C280.922 420.819 275.208 432.726 272.785 437.8C264.724 454.602 259.266 475.28 258.194 493.103C257.225 508.885 259.215 530.175 274.213 541.904C281.509 547.615 291.712 550.675 301.941 550.675Z" fill="#232323"/>
<path d="M377.675 422.298C372.165 433.593 367.523 445.321 363.773 457.305C352.575 493.179 351.402 525.433 352.779 548.966L403.949 544.02C396.526 520.308 391.807 495.831 389.868 471.073C388.567 454.169 388.567 437.188 389.868 420.258L377.675 422.298Z" fill="#00676C"/>
<path d="M314.542 547.921H314.67C315.078 547.845 315.358 547.462 315.282 547.029C312.884 533.107 312.756 512.149 314.95 490.91C317.424 466.917 322.526 445.984 329.26 431.961C329.439 431.579 329.286 431.12 328.903 430.941C328.52 430.763 328.061 430.916 327.883 431.298C321.047 445.5 315.919 466.611 313.42 490.757C311.226 512.098 311.353 533.235 313.751 547.284C313.853 547.666 314.185 547.921 314.542 547.921Z" fill="#232323"/>
<path d="M384.664 392.874C388.388 401.467 393.413 412.201 397.138 420.793C396.117 421.635 390.965 425 384.919 424.873C378.44 424.745 374.308 420.921 373.415 420.079C374.639 417.938 375.838 415.719 377.012 413.399C380.226 407.051 382.572 398.637 384.664 392.874Z" fill="#00676C"/>
<path d="M385.659 425.689C390.863 425.689 395.837 423.955 398.541 420.972C398.821 420.666 398.796 420.181 398.49 419.901C398.184 419.62 397.699 419.646 397.419 419.952C394.332 423.292 388.006 424.898 381.986 423.853C377.624 423.088 374.487 421.099 373.339 418.371C373.186 417.989 372.727 417.81 372.344 417.963C371.961 418.116 371.783 418.575 371.936 418.958C373.288 422.17 376.859 424.516 381.731 425.357C383.032 425.587 384.333 425.689 385.659 425.689Z" fill="white"/>
<path d="M405.581 427.219C397.087 426.607 388.414 405.47 384.894 395.169C390.863 389.815 401.372 380.967 409.433 369.341C412.137 365.465 415.172 361.844 418.539 358.53L433.64 368.321C429.814 379.692 413.922 427.83 405.581 427.219Z" fill="white"/>
<path d="M405.734 428.009C409.586 428.009 414.586 420.36 421.422 403.965C426.779 391.14 431.6 376.811 433.921 369.901L434.38 368.576C434.482 368.244 434.355 367.887 434.074 367.683L418.973 357.892C418.667 357.688 418.284 357.739 418.029 357.994C414.637 361.335 411.55 365.006 408.846 368.907C401.628 379.284 392.419 387.469 386.348 392.9C385.659 393.512 385.022 394.073 384.435 394.608C384.205 394.812 384.129 395.143 384.231 395.424C385.404 398.84 388.542 407.56 392.776 415.21C397.291 423.394 401.628 427.703 405.607 427.983C409.586 428.264 405.683 428.009 405.734 428.009ZM432.748 368.652L432.493 369.417C430.171 376.301 425.35 390.605 420.019 403.379C411.525 423.751 407.367 426.607 405.632 426.479C398.694 425.995 390.659 409.549 385.787 395.424C386.272 394.99 386.782 394.532 387.317 394.047C393.465 388.591 402.75 380.33 410.071 369.799C412.622 366.128 415.504 362.686 418.642 359.524L432.748 368.652Z" fill="#232323"/>
<path d="M442.287 391.472C445.144 380.942 453.333 358.53 476.877 359.218L483.228 359.856C486.927 360.34 490.549 361.156 494.095 362.303C551.335 380.661 564.293 472.476 565.365 480.074C565.543 481.425 565.696 482.623 565.696 482.674C566.36 488.309 566.666 493.995 566.615 499.681C566.615 500.191 566.589 500.701 566.589 501.211L566.921 501.44C572.966 505.494 577.022 510.084 577.736 515.081C578.144 517.835 577.762 521.608 577.558 523.495C576.767 531.221 574.344 538.717 570.517 545.448C565.594 542.312 560.416 539.15 554.983 535.988C553.988 536.881 552.917 537.697 551.794 538.411C530.725 551.644 466.087 542.745 448.486 510.339C444.405 496.519 445.093 493.128 451.981 491.241C451.879 490.961 443.741 466.739 440.553 439.202C438.742 423.267 438.41 405.929 442.287 391.472Z" fill="white"/>
<path d="M570.518 546.238C570.569 546.238 570.645 546.238 570.696 546.213C570.9 546.162 571.079 546.034 571.181 545.856C575.109 538.972 577.507 531.476 578.323 523.597C578.502 521.71 578.91 517.809 578.502 515.005C577.788 510.058 574.038 505.316 567.355 500.828C567.355 500.446 567.38 500.089 567.38 499.706C567.431 494.021 567.125 488.258 566.462 482.598V482.572C566.462 482.572 566.462 482.496 566.436 482.394C566.385 481.986 566.283 481.017 566.13 479.997C563.784 463.322 549.244 379.208 494.35 361.615C490.779 360.468 487.08 359.652 483.356 359.142L476.979 358.504H476.928C466.47 358.198 457.848 362.303 451.267 370.717C447.109 376.021 443.844 382.956 441.599 391.319C438.206 403.863 437.62 420.028 439.839 439.381C442.594 463.22 449.353 485.862 451.037 490.833C448.486 491.624 446.981 492.669 446.114 494.225C444.583 496.978 445.017 501.262 447.797 510.645C447.823 510.696 447.823 510.747 447.848 510.798C451.777 518.013 458.128 524.413 466.776 529.818C474.403 534.586 483.815 538.513 494.018 541.19C516.848 547.156 540.775 546.315 552.228 539.15C553.249 538.513 554.218 537.799 555.111 537.008C560.314 540.068 565.365 543.153 570.135 546.187C570.237 546.187 570.365 546.238 570.518 546.238ZM564.957 482.776C565.62 488.36 565.926 494.072 565.85 499.681C565.85 500.191 565.824 500.701 565.824 501.185C565.824 501.44 565.952 501.695 566.156 501.848L566.487 502.078C572.788 506.285 576.308 510.721 576.971 515.208C577.354 517.835 576.971 521.608 576.793 523.418C576.028 530.838 573.808 537.901 570.237 544.402C565.518 541.419 560.519 538.36 555.366 535.351C555.085 535.173 554.703 535.224 554.473 535.453C553.529 536.32 552.483 537.11 551.387 537.799C546.055 541.164 537.434 543.179 527.128 543.536C516.823 543.867 505.191 542.516 494.376 539.686C484.325 537.059 475.04 533.184 467.541 528.492C459.149 523.24 452.976 517.07 449.175 510.109C446.599 501.338 446.114 497.233 447.389 494.938C448.129 493.613 449.558 492.746 452.159 492.032C452.363 491.981 452.542 491.828 452.644 491.649C452.746 491.445 452.746 491.241 452.67 491.037C452.593 490.833 444.481 466.815 441.293 439.177C439.099 420.028 439.66 404.042 443.002 391.701C445.196 383.542 448.359 376.786 452.389 371.635C458.638 363.629 466.852 359.728 476.775 360.009L483.101 360.646C486.723 361.131 490.32 361.946 493.814 363.043C506.773 367.199 518.481 375.536 528.582 387.877C536.796 397.897 544.015 410.544 550.035 425.51C559.498 449.069 563.35 471.583 564.549 480.176C564.702 481.196 564.804 482.139 564.855 482.547C564.931 482.649 564.931 482.725 564.957 482.776Z" fill="#232323"/>
<path d="M367.676 423.165C359.972 421.558 359.283 384.537 360.329 379.055C362.727 377.092 367.318 373.624 370.456 370.896C374.996 378.519 383.873 394.608 384.23 395.194C382.751 399.707 374.435 424.592 367.676 423.165Z" fill="white"/>
<path d="M368.263 424.006C371.349 424.006 374.767 419.977 378.645 411.742C381.476 405.699 383.823 398.942 384.971 395.449C385.047 395.245 385.022 395.016 384.894 394.812C384.818 394.684 384.282 393.716 383.542 392.39C380.889 387.622 374.64 376.454 371.12 370.539C370.992 370.335 370.814 370.207 370.584 370.182C370.354 370.156 370.125 370.207 369.972 370.36C368.008 372.069 365.508 374.032 363.289 375.791C361.988 376.811 360.763 377.78 359.87 378.519C359.743 378.621 359.641 378.8 359.615 378.978C359.08 381.758 358.978 392.39 359.998 402.691C361.324 416.025 363.875 423.19 367.548 423.955C367.778 423.98 368.008 424.006 368.263 424.006ZM383.415 395.271C377.93 411.946 372.038 422.451 368.263 422.451C368.135 422.451 367.982 422.425 367.855 422.4C365.023 421.813 362.702 414.547 361.503 402.461C360.534 392.747 360.585 382.446 361.044 379.437C361.911 378.723 363.034 377.857 364.232 376.913C366.222 375.358 368.416 373.624 370.278 372.043C373.849 378.111 379.665 388.54 382.216 393.078C382.802 394.226 383.185 394.914 383.415 395.271Z" fill="#232323"/>
<path d="M570.518 545.473C572.354 540.578 549.014 526.504 532.383 519.39C518.43 513.398 493.993 505.8 458.893 508.911C473.152 515.922 537.459 547.182 563.12 547.36C565.314 547.386 569.803 547.411 570.518 545.473Z" fill="white"/>
<path d="M563.86 548.125C566.462 548.125 570.415 547.947 571.232 545.728C572.226 543.077 568.043 538.666 558.784 532.623C551.208 527.676 541.208 522.322 532.689 518.676C510.777 509.268 485.932 505.724 458.817 508.146C458.485 508.171 458.204 508.426 458.128 508.758C458.077 509.089 458.23 509.421 458.536 509.574C481.978 521.098 539.091 547.921 563.12 548.1C563.35 548.125 563.605 548.125 563.86 548.125ZM475.04 508.936C495.676 508.936 514.807 512.659 532.076 520.078C540.545 523.699 550.442 529.002 557.942 533.898C561.921 536.498 565.084 538.895 567.125 540.884C569.956 543.638 569.931 544.81 569.778 545.193C569.242 546.621 564.625 546.595 563.12 546.57C552.33 546.493 533.454 540.909 507.002 529.971C493.176 524.26 477.565 517.172 461.699 509.421C466.24 509.115 470.678 508.936 475.04 508.936Z" fill="#232323"/>
<path d="M388.312 543.128H287.299L291.049 551.363H388.312C390.582 551.363 392.419 549.527 392.419 547.258C392.419 544.989 390.582 543.128 388.312 543.128Z" fill="#D9C6F4"/>
<path d="M289.722 543.128L293.498 551.363H291.431L287.656 543.128H289.722Z" fill="white"/>
<path d="M291.432 551.363H166.645L116.292 439.916C115.425 437.978 116.266 435.709 118.205 434.842C118.715 434.613 119.251 434.511 119.786 434.511H233.298C236.538 434.511 239.471 436.397 240.798 439.355L291.432 551.363Z" fill="#D9C6F4"/>
<path d="M298.242 548.992C297.298 548.992 296.533 548.227 296.533 547.284C296.533 546.34 297.298 545.575 298.242 545.575C299.186 545.575 299.951 546.34 299.951 547.284C299.951 548.227 299.186 548.992 298.242 548.992Z" fill="white"/>
<path d="M304.237 548.686C303.395 548.686 302.732 548.023 302.732 547.182C302.732 546.34 303.395 545.677 304.237 545.677L313.037 545.652C313.879 545.652 314.542 546.315 314.542 547.156C314.542 547.998 313.879 548.66 313.037 548.66L304.237 548.686ZM197.97 504.041C194.322 504.041 191.184 501.415 190.572 497.82C189.985 494.454 192.256 491.267 195.623 490.68H195.648C198.454 490.196 201.107 492.083 201.592 494.862C202 497.208 200.418 499.426 198.072 499.808C197.026 499.987 195.954 499.706 195.138 499.043C194.73 498.712 194.679 498.126 195.011 497.718C195.342 497.31 195.929 497.259 196.337 497.59C196.72 497.922 197.23 498.049 197.74 497.973C199.066 497.743 199.934 496.494 199.73 495.193C199.423 493.434 197.74 492.236 195.98 492.542C193.633 492.95 192.052 495.142 192.46 497.488C192.995 500.548 195.878 502.587 198.939 502.078C202.893 501.415 205.545 497.667 204.882 493.715C204.015 488.666 199.832 485.734 194.73 486.601C191.643 487.136 189.118 488.717 187.613 491.063C186.057 493.511 185.675 496.647 186.567 499.91C186.695 500.42 186.414 500.93 185.904 501.058C185.394 501.185 184.884 500.905 184.756 500.395C183.736 496.621 184.17 492.924 186.032 490.043C187.817 487.238 190.802 485.352 194.424 484.74C200.52 483.694 205.699 487.34 206.744 493.383C207.586 498.355 204.245 503.072 199.27 503.913C198.811 504.015 198.403 504.041 197.97 504.041ZM557.56 532.725C555.34 541.674 549.831 554.372 541.336 561.613C528.123 572.832 514.476 569.313 479.504 570.715C439.941 572.296 418.616 573.137 395.021 584.611C379.741 592.031 365.839 602.765 363.263 599.884C361.631 598.048 365.533 591.827 369.283 586.6C369.385 586.447 369.487 586.294 369.589 586.166C367.14 588.232 364.87 590.093 362.804 591.725C353.315 599.246 347.78 602.306 346.249 600.929C344.642 599.501 347.295 593.331 354.208 582.418L354.335 582.214C352.575 583.668 350.892 585.019 349.31 586.294C336.199 596.799 328.827 601.261 327.194 599.731C325.562 598.201 329.643 590.679 339.387 577.242L339.081 577.446C337.678 578.415 336.199 579.41 334.719 580.353C327.883 584.79 320.97 588.665 319.465 587.033C317.986 585.452 322.22 579.308 323.751 577.064C347.218 543.026 399.128 524.719 399.128 524.719C431.039 513.449 464.914 501.95 507.104 511.18C531.082 517.044 547.203 524.744 557.56 532.725Z" fill="white"/>
<path d="M347.244 602C348.366 602 349.897 601.439 351.912 600.317C354.692 598.762 358.518 596.085 363.289 592.311C364.105 591.674 364.947 590.985 365.839 590.271C362.319 595.702 361.35 598.889 362.702 600.394C364.742 602.663 370.303 599.425 379.512 594.019C384.307 591.215 389.741 588.028 395.378 585.274C418.846 573.877 440.426 573.01 479.555 571.455C488.1 571.123 495.294 571.072 501.671 571.021C521.006 570.894 531.643 570.817 541.846 562.174C550.443 554.856 556.004 542.261 558.325 532.903C558.401 532.597 558.299 532.291 558.044 532.113C546.387 523.113 529.322 515.82 507.334 510.415C488.279 506.234 469.25 505.928 449.175 509.472C430.783 512.71 413.106 518.957 398.924 523.954C398.796 524.005 385.71 528.645 369.921 537.416C360.636 542.567 352.269 548.1 344.999 553.887C335.918 561.128 328.572 568.778 323.164 576.58C318.828 582.877 317.603 586.039 318.93 587.492C320.078 588.742 322.909 588.92 335.178 580.94C335.561 580.71 335.918 580.455 336.326 580.2C325.536 595.498 325.358 598.94 326.71 600.241C328.164 601.618 332.041 601.108 349.82 586.855C350.305 586.472 350.815 586.064 351.325 585.656C349.055 589.43 347.397 592.515 346.377 594.886C344.846 598.43 344.667 600.47 345.79 601.465C346.121 601.822 346.606 602 347.244 602ZM369.589 585.402C369.411 585.402 369.232 585.453 369.104 585.58C366.656 587.645 364.385 589.507 362.319 591.138C349.233 601.49 347.04 600.649 346.734 600.368C346.402 600.088 345.305 597.895 354.82 582.826L354.947 582.622C355.151 582.316 355.1 581.883 354.82 581.628C354.539 581.373 354.106 581.373 353.825 581.602C352.065 583.056 350.381 584.407 348.8 585.682C342.295 590.883 337.143 594.657 333.52 596.85C328.546 599.858 327.73 599.17 327.704 599.144C327.679 599.119 326.939 598.328 329.669 593.28C331.684 589.583 335.153 584.331 339.974 577.65C340.204 577.344 340.153 576.937 339.897 576.656C339.642 576.401 339.234 576.35 338.903 576.554L338.597 576.758C336.99 577.854 335.561 578.798 334.26 579.665C321.787 587.773 320.129 586.625 319.975 586.447C319.95 586.421 319.414 585.784 321.098 582.597C322.144 580.634 323.572 578.568 324.337 577.446C330.995 567.809 344.387 553.275 370.584 538.742C386.271 530.048 399.23 525.433 399.357 525.382C429.738 514.673 464.199 502.511 506.926 511.868C528.455 517.146 545.188 524.26 556.667 532.98C554.422 541.674 548.989 554.015 540.801 560.975C531.031 569.262 521.185 569.338 501.594 569.466C495.217 569.517 487.998 569.542 479.428 569.899C440.068 571.48 418.386 572.322 394.638 583.872C388.95 586.625 383.491 589.838 378.67 592.668C374.614 595.039 371.094 597.105 368.39 598.354C364.896 599.96 364.003 599.578 363.799 599.323C363.442 598.915 362.778 596.824 369.87 587.008C369.972 586.855 370.074 586.702 370.176 586.574C370.405 586.268 370.354 585.835 370.074 585.554C369.972 585.453 369.793 585.402 369.589 585.402Z" fill="#232323"/>
<path d="M173.201 533.209C173.507 535.708 166.313 539.482 157.283 539.252C149.299 539.048 145.779 530.762 153.049 530.583C161.773 530.354 172.741 529.563 173.201 533.209Z" fill="white"/>
<path d="M158.074 540.017C161.977 540.017 165.089 539.303 167.053 538.691C169.732 537.85 171.925 536.626 173.048 535.377C173.736 534.612 174.043 533.847 173.966 533.107C173.481 529.155 164.987 529.436 155.983 529.716C154.988 529.742 153.993 529.767 153.024 529.793C150.754 529.844 148.305 530.813 148.305 533.388C148.305 536.396 151.978 539.864 157.258 539.992C157.539 540.017 157.794 540.017 158.074 540.017ZM162.615 531.119C164.324 531.119 165.956 531.17 167.385 531.297C170.548 531.603 172.308 532.291 172.41 533.311C172.436 533.566 172.257 533.949 171.9 534.357C170.242 536.192 164.605 538.666 157.284 538.487C154.248 538.411 149.835 536.396 149.835 533.413C149.835 532.164 151.009 531.399 153.049 531.348C154.019 531.323 155.013 531.297 156.008 531.272C158.253 531.195 160.498 531.119 162.615 531.119Z" fill="#232323"/>
<path d="M170.089 525.994C170.216 527.574 165.752 531.526 150.141 531.246C141.545 531.093 138.56 520.104 147.131 520.69C157.437 521.43 169.757 521.659 170.089 525.994Z" fill="white"/>
<path d="M151.672 532.036C164.579 532.036 168.788 529.104 170.012 527.804C170.752 527.014 170.879 526.351 170.854 525.943C170.497 521.43 160.88 520.818 150.702 520.18C149.529 520.104 148.356 520.027 147.208 519.951C144.759 519.772 142.871 520.512 141.928 521.991C140.984 523.444 141.035 525.433 142.055 527.345C143.229 529.563 145.983 531.96 150.141 532.036H151.672ZM169.323 526.07C169.323 526.147 169.272 526.402 168.89 526.784C167.079 528.722 161.186 530.711 150.141 530.507C146.647 530.456 144.351 528.467 143.382 526.631C142.616 525.229 142.565 523.801 143.177 522.807C143.841 521.812 145.167 521.328 147.08 521.481C148.228 521.557 149.402 521.634 150.6 521.71C158.814 522.22 169.068 522.858 169.323 526.07Z" fill="#232323"/>
<path d="M167.359 517.197C166.875 518.421 162.258 521.506 147.131 520.716C133.892 520.027 132.515 506.922 142.463 507.891C152.743 508.911 168.966 513.143 167.359 517.197Z" fill="white"/>
<path d="M151.799 521.608C156.289 521.608 160.013 521.226 162.921 520.461C165.701 519.721 167.614 518.625 168.048 517.503C168.252 516.993 168.354 516.228 167.793 515.31C166.416 513.041 161.467 511.231 157.564 510.084C152.871 508.707 147.259 507.636 142.514 507.177C139.606 506.896 137.311 507.712 136.061 509.523C134.938 511.154 134.862 513.373 135.908 515.463C137.642 518.982 141.826 521.251 147.08 521.532C148.738 521.557 150.32 521.608 151.799 521.608ZM166.645 516.917C166.543 517.197 165.548 518.166 162.538 518.982C159.987 519.67 155.243 520.384 147.182 519.951C140.219 519.594 137.872 515.871 137.311 514.75C136.52 513.169 136.545 511.511 137.362 510.339C138.28 509.013 140.066 508.426 142.412 508.656C152.054 509.599 164.681 513.041 166.543 516.075C166.747 516.483 166.722 516.738 166.645 516.917Z" fill="#232323"/>
<path d="M161.416 508.63C160.498 510.39 155.37 511.435 142.004 509.778C128.638 508.12 133 493.383 143.254 496.621C153.1 499.732 163.048 505.494 161.416 508.63Z" fill="white"/>
<path d="M153.151 511.384C158.253 511.384 161.237 510.594 162.079 509.013C162.309 508.554 162.513 507.814 162.105 506.794C160.574 503.072 151.366 498.406 143.483 495.907C138.713 494.403 135.908 496.621 134.913 497.641C133.051 499.553 132.413 502.384 133.28 504.857C134.352 507.916 137.515 509.982 141.902 510.543C146.391 511.103 150.141 511.384 153.151 511.384ZM160.727 508.273C160.472 508.758 158.38 511.052 142.106 509.013C136.877 508.375 135.244 505.8 134.734 504.347C134.045 502.435 134.556 500.216 136.01 498.712C137.693 496.978 140.244 496.494 143.024 497.361C151.621 500.089 159.554 504.576 160.702 507.355C160.906 507.865 160.804 508.12 160.727 508.273ZM416.447 274.925C413.948 279.77 409.79 289.561 410.683 298.332C410.759 299.046 410.861 299.734 410.989 300.422C402.954 303.533 387.266 321.865 387.266 321.865C387.266 321.865 386.985 321.559 386.45 321.024C384.868 319.443 381.195 315.721 376.502 311.233C374.92 309.703 373.211 308.122 371.425 306.465C370.124 305.241 368.747 304.017 367.395 302.794C362.242 298.179 356.784 293.564 351.937 290.096C348.493 287.623 345.356 285.736 342.882 284.818C342.856 284.818 342.831 284.793 342.805 284.793L342.729 284.767C326.403 278.75 329.235 256.058 340.866 251.264C345.994 249.097 351.861 249.479 356.682 252.284C363.059 235.125 386.067 239.485 388.465 252.973C405.198 241.626 423.845 260.673 416.447 274.925Z" fill="#232323"/>
<path d="M408.004 331.452C408.03 331.554 408.055 331.631 408.081 331.707C408.234 332.217 408.387 332.752 408.54 333.288C409.662 337.112 411.04 341.243 412.723 345.552C414.586 350.294 416.575 354.578 418.539 358.428C410.963 379.896 398.719 394.914 386.45 395.169C384.894 395.194 379.69 395.296 375.813 391.905C375.813 391.905 369.028 385.965 370.482 370.794C370.482 370.794 370.482 370.692 370.507 370.59C370.558 370.054 370.711 368.525 370.839 366.51C370.864 366.179 370.89 365.847 370.89 365.491C371.17 360.672 371.17 356.108 370.992 351.799V351.722C358.748 357.51 344.897 357.382 336.811 350.167C335.561 349.045 329.898 343.869 330.459 336.934C331.352 325.868 339.515 320.055 341.198 307.077C341.836 302.309 342.27 297.49 342.525 292.646C342.652 290.02 342.729 287.393 342.729 284.767L342.882 284.742C344.361 284.589 345.968 284.461 347.626 284.385C353.85 284.104 361.095 284.461 367.242 286.425C368.773 286.909 370.252 287.521 371.681 288.26C373.033 288.949 374.282 289.79 375.456 290.759C379.027 293.768 383.823 299.249 386.96 305.471C390.48 312.508 392.036 315.771 397.393 309.958C402.469 304.451 405.173 300.499 410.657 298.255C411.423 297.949 412.213 297.669 413.004 297.439C420.35 295.348 427.85 301.136 429.125 308.199C431.37 320.718 417.162 330.254 408.004 331.452Z" fill="white"/>
<path d="M385.94 395.959H386.45C398.668 395.704 411.218 381.426 419.253 358.708C419.33 358.504 419.304 358.3 419.202 358.096C417.085 353.94 415.121 349.631 413.437 345.297C411.881 341.345 410.479 337.24 409.28 333.084C409.178 332.752 409.076 332.396 408.999 332.064C414.611 331.044 422.212 327.041 426.625 321.024C429.584 316.995 430.707 312.533 429.916 308.148C429.227 304.247 426.702 300.601 423.182 298.408C419.942 296.394 416.269 295.807 412.851 296.776C412.035 297.006 411.218 297.286 410.427 297.618C405.811 299.504 403.056 302.615 399.535 306.567C398.694 307.511 397.852 308.479 396.883 309.499C395.046 311.463 393.694 312.355 392.674 312.227C391.118 311.998 389.74 309.244 387.802 305.42L387.674 305.19C384.358 298.663 379.46 293.181 375.966 290.224C374.767 289.204 373.44 288.337 372.063 287.623C370.609 286.883 369.079 286.246 367.497 285.736C360.737 283.594 352.957 283.416 347.626 283.671C346.045 283.747 344.438 283.849 342.831 284.028L342.652 284.053C342.269 284.104 341.963 284.41 341.963 284.818C341.963 287.419 341.887 290.071 341.759 292.646C341.53 297.439 341.096 302.258 340.458 307.001C339.617 313.451 337.168 318.092 334.795 322.579C332.423 327.067 330.178 331.299 329.719 336.908C329.184 343.359 333.622 348.357 336.3 350.779C340.331 354.374 345.866 356.388 352.32 356.618C358.187 356.822 364.36 355.547 370.277 352.921C370.405 357.051 370.354 361.284 370.124 365.465C370.099 365.796 370.073 366.128 370.073 366.485C369.946 368.448 369.818 369.952 369.742 370.539C369.716 370.641 369.716 370.743 369.716 370.794C368.262 386.143 375.022 392.262 375.303 392.517C377.904 394.786 381.476 395.959 385.94 395.959ZM417.697 358.504C413.948 369.009 409.101 377.908 403.668 384.282C398.081 390.809 392.113 394.302 386.45 394.43C382.139 394.506 378.746 393.486 376.323 391.344C376.272 391.293 369.869 385.429 371.247 370.87V370.666C371.298 370.105 371.451 368.55 371.578 366.561C371.604 366.23 371.629 365.873 371.655 365.541C371.91 360.952 371.961 356.312 371.757 351.773C371.782 351.493 371.655 351.238 371.425 351.11C371.196 350.957 370.915 350.932 370.66 351.059C358.238 356.924 344.846 356.363 337.321 349.631C334.846 347.413 330.765 342.824 331.224 337.036C331.658 331.733 333.826 327.628 336.122 323.293C338.571 318.678 341.096 313.91 341.963 307.205C342.601 302.437 343.06 297.567 343.29 292.722C343.417 290.326 343.468 287.903 343.494 285.507C344.897 285.379 346.3 285.277 347.677 285.226C352.881 284.997 360.482 285.15 367.038 287.24C368.517 287.699 369.971 288.311 371.349 289.025C372.65 289.688 373.874 290.504 374.971 291.422C378.338 294.278 383.083 299.555 386.297 305.904L386.424 306.134C388.643 310.519 390.097 313.426 392.444 313.757C394.026 313.987 395.735 312.992 397.979 310.545C398.949 309.499 399.816 308.53 400.658 307.587C404.178 303.635 406.703 300.779 410.989 299.02C411.728 298.714 412.494 298.459 413.259 298.23C416.269 297.363 419.508 297.898 422.365 299.683C425.528 301.672 427.799 304.91 428.411 308.403C429.125 312.431 428.13 316.358 425.375 320.106C420.988 326.098 413.284 329.973 407.928 330.687C407.698 330.713 407.52 330.84 407.392 331.019C407.264 331.197 407.239 331.427 407.29 331.631C407.315 331.733 407.341 331.835 407.367 331.911L407.494 332.345C407.596 332.727 407.724 333.109 407.826 333.492C409.05 337.673 410.479 341.829 412.035 345.832C413.693 350.141 415.606 354.399 417.697 358.504Z" fill="#232323"/>
<path d="M376.833 297.694L376.808 296.929L376.731 296.241C376.68 295.782 376.578 295.348 376.451 294.915C376.195 294.048 375.864 293.207 375.405 292.391C374.486 290.734 373.16 289.306 371.578 288.235C370.737 287.674 369.844 287.215 368.9 286.883C367.931 286.552 366.91 286.374 365.89 286.348C364.895 286.323 363.9 286.476 362.957 286.781C362.013 287.062 361.146 287.546 360.431 288.184C359.513 289.025 359.437 290.453 360.253 291.396C360.406 291.575 360.61 291.728 360.814 291.83L361.197 292.059C361.911 292.467 362.549 292.748 363.084 293.028C363.62 293.309 364.13 293.589 364.564 293.793C365.456 294.278 366.247 294.686 367.089 295.195C367.931 295.705 368.849 296.266 369.844 296.955L371.425 298.026C371.706 298.23 371.987 298.434 372.293 298.587C372.956 299.071 373.721 299.351 374.537 299.453C374.971 299.504 375.405 299.428 375.787 299.275C376.323 299.046 376.706 298.561 376.808 298C376.833 297.949 376.833 297.822 376.833 297.694ZM373.007 304.145C370.864 303.686 365.712 302.717 360.916 300.295C360.253 299.963 359.437 300.218 359.079 300.881V300.907C358.212 302.641 357.294 305.7 360.788 306.924C365.048 308.454 371.91 307.103 373.415 305.241C373.645 304.961 373.594 304.527 373.313 304.298L373.288 304.272C373.211 304.196 373.109 304.17 373.007 304.145ZM343.749 299.836C345.917 300.116 347.524 299.938 351.478 299.479C352.218 299.377 352.906 299.887 353.008 300.626V300.652C353.264 302.564 352.294 304.527 349.208 304.859C345.739 305.241 343.596 302.666 342.984 300.754C342.856 300.397 343.06 299.989 343.417 299.887C343.545 299.861 343.647 299.836 343.749 299.836ZM408.744 332.243C406.372 332.421 403.974 332.217 401.653 331.605C401.219 331.554 400.913 331.146 400.964 330.713C401.015 330.279 401.423 329.973 401.857 330.024C401.908 330.024 401.984 330.05 402.035 330.075C404.076 330.585 406.193 330.789 408.285 330.662C408.438 331.172 408.565 331.707 408.744 332.243ZM351.963 290.096C351.886 290.173 351.784 290.249 351.682 290.3C351.503 290.402 351.299 290.504 351.095 290.555L350.713 290.657C349.998 290.861 349.386 290.912 348.851 291.065C348.289 291.141 347.805 291.294 347.371 291.396C346.478 291.626 345.688 291.804 344.846 292.008C344.132 292.187 343.366 292.442 342.55 292.697C342.678 290.071 342.754 287.444 342.754 284.818L342.907 284.793L342.831 284.767L342.754 284.742C343.57 284.487 344.412 284.334 345.279 284.257C346.07 284.232 346.886 284.283 347.652 284.436L348.009 284.512C348.876 284.742 349.718 285.099 350.458 285.583C351.197 286.068 351.835 286.68 352.32 287.419C352.855 288.311 352.702 289.408 351.963 290.096ZM370.456 364.802C370.737 360.009 370.737 355.419 370.558 351.11C374.231 349.478 379.945 346.521 383.465 342.62C385.736 343.844 386.807 358.504 370.456 364.802ZM348.596 324.262C349.616 324.95 350.84 325.333 352.09 325.358C353.315 325.435 354.539 325.205 355.687 324.721C356.784 324.185 357.753 323.395 358.467 322.401C359.207 321.381 359.641 320.208 359.717 318.959V318.933C359.743 318.551 360.1 318.245 360.482 318.27C360.814 318.296 361.095 318.551 361.146 318.857C361.401 320.463 361.044 322.12 360.202 323.497C359.794 324.185 359.258 324.823 358.671 325.358C356.835 326.99 354.36 327.73 351.937 327.373C351.146 327.271 350.381 327.041 349.641 326.71C348.902 326.378 348.213 325.868 347.677 325.256C347.422 324.95 347.448 324.517 347.754 324.262L347.779 324.236C348.034 324.033 348.391 324.007 348.672 324.185L348.596 324.262ZM403.821 320.208C403.387 320.31 402.979 320.029 402.877 319.596V319.571C402.852 319.443 402.852 319.29 402.903 319.163C407.086 305.802 418.718 306.618 418.845 306.618C419.279 306.644 419.611 307.026 419.585 307.46C419.534 307.893 419.151 308.224 418.718 308.199C418.31 308.173 408.234 307.51 404.433 319.647C404.331 319.953 404.102 320.157 403.821 320.208Z" fill="#232323"/>
<path d="M349.973 315.364C349.794 315.389 349.616 315.364 349.463 315.262C347.32 313.783 346.3 312.584 346.172 311.31C345.994 309.703 347.295 308.352 348.774 306.797C352.09 303.304 351.452 300.932 351.452 300.907C351.35 300.575 351.529 300.218 351.861 300.116C352.192 300.014 352.549 300.167 352.651 300.499C352.702 300.626 353.621 303.558 349.692 307.663C348.213 309.193 347.346 310.213 347.422 311.157C347.499 311.998 348.391 312.992 350.151 314.191C350.432 314.395 350.509 314.777 350.305 315.083C350.253 315.262 350.126 315.364 349.973 315.364Z" fill="#232323"/>
<path d="M361.987 255.369C363.212 257.282 364.13 259.372 364.717 261.565V261.591C364.819 262.049 364.513 262.508 364.053 262.61C363.977 262.636 363.926 262.636 363.849 262.636C363.441 262.636 363.084 262.355 363.008 261.947C362.982 261.871 361.732 255.675 356.682 252.233C356.911 251.647 357.141 251.086 357.396 250.55C359.156 251.672 360.635 253.253 361.987 255.369Z" fill="white"/>
<path d="M447.134 572.322C437.645 573.01 429.329 573.953 421.549 575.509C420.758 567.12 418.284 556.819 415.555 548.839C414.56 545.83 413.361 542.898 411.983 540.068C411.907 539.915 411.83 539.762 411.754 539.635C411.728 539.558 411.703 539.456 411.677 539.38C411.218 537.85 410.759 536.345 410.274 534.841C410.223 534.688 410.172 534.51 410.121 534.357C408.846 530.481 407.468 526.708 405.989 523.036L411.167 520.92H411.193L412.468 520.41L413.897 519.823L419.228 517.656L428.997 513.679L430.681 512.99C430.732 513.143 430.809 513.296 430.86 513.449C430.962 513.679 431.038 513.908 431.14 514.138L432.211 516.891C432.262 517.044 432.339 517.197 432.39 517.35C432.467 517.554 432.543 517.758 432.62 517.937C432.671 518.064 432.722 518.192 432.747 518.294C433.921 521.43 435.017 524.617 436.063 527.855L436.191 528.263C436.624 529.64 437.058 531.042 437.466 532.419C437.492 532.546 437.543 532.674 437.568 532.801L437.772 533.209C439.379 536.6 441.42 543.051 443.18 550.114C445.093 557.814 446.7 566.253 447.134 572.322Z" fill="#232323"/>
<path d="M444.787 517.809C446.751 526.504 437.721 536.524 424.355 539.533C410.989 542.541 398.388 537.416 396.423 528.722C394.459 520.027 403.693 510.517 417.034 507.508C430.375 504.5 442.823 509.115 444.787 517.809Z" fill="#232323"/>
<path d="M419.024 542.235C418.208 542.286 417.392 542.312 416.601 542.312C414.841 542.312 413.106 542.184 411.397 541.955C410.989 541.215 410.581 540.45 410.173 539.711C412.953 540.221 415.912 540.374 418.922 540.195C426.932 539.711 433.921 536.855 438.334 532.75C438.666 533.388 438.972 534 439.303 534.612C438.87 534.994 438.385 535.377 437.9 535.759C432.926 539.507 426.243 541.802 419.024 542.235Z" fill="white"/>
<path d="M398.188 525.415C396.513 517.997 404.925 509.78 416.977 507.06C429.03 504.341 440.158 508.15 441.833 515.567C443.508 522.985 435.096 531.203 423.044 533.922C410.991 536.642 399.863 532.833 398.188 525.415Z" fill="white"/>
<path d="M415.351 535.58C417.901 535.58 420.554 535.275 423.207 534.688C429.176 533.337 434.456 530.634 438.104 527.065C441.854 523.393 443.435 519.262 442.568 515.412L441.828 515.591L442.568 515.412C441.701 511.562 438.487 508.503 433.538 506.794C428.717 505.137 422.773 504.959 416.804 506.31C410.836 507.661 405.555 510.364 401.908 513.934C398.158 517.605 396.576 521.736 397.444 525.586C398.311 529.436 401.525 532.495 406.474 534.204C409.152 535.122 412.188 535.58 415.351 535.58ZM424.687 506.947C427.697 506.947 430.528 507.381 433.053 508.248C437.492 509.778 440.349 512.429 441.088 515.769C441.828 519.084 440.4 522.73 437.058 525.994C433.614 529.359 428.589 531.934 422.901 533.209C417.213 534.484 411.575 534.331 407.009 532.776C402.571 531.246 399.714 528.594 398.974 525.28C397.393 518.268 405.555 510.441 417.187 507.84C419.712 507.228 422.238 506.947 424.687 506.947Z" fill="#232323"/>
<path d="M422.136 527.243C422.238 527.243 422.365 527.218 422.493 527.192C423.105 527.014 423.437 526.351 423.233 525.764L421.013 518.676L432.645 514.903C433.257 514.699 433.589 514.061 433.385 513.449C433.181 512.837 432.543 512.506 431.931 512.71L419.228 516.815C418.641 517.019 418.309 517.656 418.488 518.243L421.064 526.402C421.192 526.937 421.651 527.243 422.136 527.243ZM566.589 501.976C566.87 501.976 567.125 501.823 567.278 501.568C567.482 501.185 567.329 500.726 566.972 500.522C554.932 494.174 534.755 489.788 510.114 488.207C492.947 487.111 474.963 487.493 460.883 489.151C467.744 487.136 477.438 484.638 488.33 482.572C502.563 479.87 523.021 477.065 539.729 479.156C540.137 479.207 540.52 478.901 540.571 478.493C540.622 478.085 540.315 477.702 539.907 477.651C508.15 473.674 461.98 486.55 451.751 490.553C451.394 490.706 451.19 491.088 451.292 491.471C451.394 491.853 451.776 492.083 452.159 492.006C466.852 489.253 489.018 488.386 509.986 489.737C534.423 491.318 554.396 495.627 566.232 501.874C566.334 501.95 566.461 501.976 566.589 501.976ZM369.614 586.906C369.844 586.906 370.073 586.804 370.226 586.6C374.078 581.551 381.782 574.642 381.858 574.565C382.164 574.285 382.19 573.8 381.909 573.494C381.629 573.188 381.144 573.163 380.838 573.443C380.506 573.724 372.956 580.506 369.002 585.682C368.747 586.013 368.798 586.498 369.155 586.753C369.283 586.855 369.436 586.906 369.614 586.906ZM354.207 583.158C354.462 583.158 354.692 583.03 354.845 582.801C358.62 577.013 367.344 569.797 368.798 568.727C369.13 568.472 369.206 567.987 368.951 567.656C368.696 567.324 368.211 567.248 367.88 567.503C366.4 568.625 357.447 575.993 353.569 581.985C353.34 582.342 353.442 582.801 353.799 583.056C353.927 583.132 354.054 583.158 354.207 583.158ZM339.387 577.982C339.642 577.982 339.872 577.854 340.025 577.65C343.443 572.679 353.187 563.882 355.942 561.766C356.273 561.511 356.324 561.026 356.069 560.695C355.814 560.364 355.33 560.313 354.998 560.567C352.447 562.531 342.422 571.429 338.775 576.809C338.545 577.166 338.622 577.625 338.979 577.88C339.081 577.956 339.234 577.982 339.387 577.982Z" fill="#232323"/>
</g>
<defs>
<filter id="filter0_f_2363_2878" x="0" y="-96" width="915" height="915" filterUnits="userSpaceOnUse" color-interpolation-filters="sRGB">
<feFlood flood-opacity="0" result="BackgroundImageFix"/>
<feBlend mode="normal" in="SourceGraphic" in2="BackgroundImageFix" result="shape"/>
<feGaussianBlur stdDeviation="100" result="effect1_foregroundBlur_2363_2878"/>
</filter>
<clipPath id="clip0_2363_2878">
<rect width="264.96" height="209.28" fill="white" transform="matrix(-1 0 0 1 312.76 203.12)"/>
</clipPath>
<clipPath id="clip1_2363_2878">
<rect width="462.72" height="360.96" fill="white" transform="matrix(-1 0 0 1 578.68 241.04)"/>
</clipPath>
</defs>
</svg>
