<svg width="146" height="24" viewBox="0 0 146 24" fill="none" xmlns="http://www.w3.org/2000/svg">
<path d="M56.9251 6.24966H53.4526L48.4367 17.4129L44.7712 9.4417L43.3244 6.24966H42.7456L37.7104 17.4129L32.6173 6.24966H32L37.7104 18.7325H40.6042L44.4819 10.1193L48.4174 18.7325H51.3112L56.9251 6.24966Z" fill="#FAFCFF"/>
<path d="M57.7886 6.24966H64.7144C66.3349 6.24966 67.5117 6.41015 68.2448 6.73114C68.9908 7.05213 69.4474 7.47417 69.6146 7.99726C69.7946 8.52035 69.8846 9.27526 69.8846 10.262V11.0823C69.8846 11.546 69.7432 11.962 69.4602 12.3306C69.1901 12.6991 68.8236 12.9845 68.3606 13.1866C67.8976 13.3887 67.396 13.4897 66.8558 13.4897H58.3674V18.7325H57.7886V6.24966ZM66.8558 12.9726C67.4989 12.9726 68.0712 12.8121 68.5728 12.4911C69.0744 12.1701 69.3252 11.7183 69.3252 11.1358C69.3252 10.5176 69.0487 10.0718 68.4956 9.79835C67.9426 9.51303 67.2481 9.37037 66.4121 9.37037H58.3674V12.9726H66.8558Z" fill="#FAFCFF"/>
<path d="M71.3775 12.2414H79.6344V12.7586H71.3775V12.2414Z" fill="#FAFCFF"/>
<path d="M88.1488 6C86.5669 6 85.2486 6.28532 84.194 6.85597C83.1522 7.42661 82.3869 8.09831 81.8982 8.87106C81.4224 9.63192 81.1844 10.3155 81.1844 10.9218C81.1844 11.6351 81.5252 12.1107 82.2069 12.3484C82.9014 12.5743 83.8145 12.6872 84.9463 12.6872H89.2484C90.4703 12.6872 91.422 12.711 92.1036 12.7586C92.7853 12.7942 93.3448 12.9012 93.782 13.0796C94.2322 13.246 94.4573 13.5135 94.4573 13.882C94.4573 14.31 94.155 14.6786 93.5505 14.9877C92.9461 15.2849 92.2001 15.5107 91.3127 15.6653C90.4381 15.8198 89.5893 15.8971 88.7661 15.8971H87.7244C86.3868 15.8971 85.255 15.7485 84.329 15.4513C83.4159 15.1422 82.5477 14.6132 81.7246 13.8642L80.9336 14.0069C81.9625 17.3356 84.4512 19 88.3996 19C89.6986 19 90.8497 18.7682 91.8528 18.3045C92.8689 17.8409 93.6534 17.2286 94.2065 16.4678C94.7595 15.7069 95.036 14.9104 95.036 14.0782C95.036 13.3173 94.6823 12.818 93.975 12.5802C93.2804 12.3306 92.4638 12.2058 91.5249 12.2058H86.2968C85.1393 12.2058 84.2325 12.1701 83.5766 12.0988C82.9336 12.0155 82.477 11.8967 82.2069 11.7421C81.9368 11.5876 81.8018 11.3795 81.8018 11.118C81.8018 10.6662 82.1169 10.2917 82.7471 9.99451C83.3773 9.6973 84.1361 9.48331 85.0235 9.35254C85.9238 9.20988 86.7726 9.13855 87.57 9.13855H88.6118C89.8594 9.13855 90.9847 9.28715 91.9879 9.58436C92.9911 9.86968 93.8592 10.3868 94.5923 11.1358L95.4026 10.9931C94.9396 9.37631 94.0714 8.13992 92.7982 7.28395C91.5377 6.42798 89.988 6 88.1488 6Z" fill="#FAFCFF"/>
<path d="M104.143 6C105.48 6 106.696 6.29127 107.789 6.8738C108.895 7.45633 109.763 8.24691 110.393 9.24554C111.036 10.2323 111.358 11.3141 111.358 12.4911C111.358 13.6799 111.036 14.7737 110.393 15.7723C109.763 16.759 108.895 17.5437 107.789 18.1262C106.696 18.7087 105.48 19 104.143 19H103.409C102.059 19 100.831 18.7087 99.7247 18.1262C98.6186 17.5437 97.7505 16.759 97.1203 15.7723C96.4901 14.7737 96.175 13.6799 96.175 12.4911C96.175 11.3022 96.4901 10.2144 97.1203 9.22771C97.7505 8.24097 98.6186 7.45633 99.7247 6.8738C100.831 6.29127 102.059 6 103.409 6H104.143ZM104.297 15.8793C105.48 15.8793 106.573 15.7307 107.577 15.4335C108.58 15.1244 109.377 14.7142 109.969 14.203C110.56 13.6799 110.856 13.1093 110.856 12.4911C110.856 11.8848 110.56 11.326 109.969 10.8148C109.377 10.2917 108.58 9.88157 107.577 9.58436C106.573 9.27526 105.48 9.12071 104.297 9.12071H103.255C102.072 9.12071 100.972 9.27526 99.9562 9.58436C98.953 9.88157 98.1556 10.2917 97.564 10.8148C96.9724 11.326 96.6766 11.8848 96.6766 12.4911C96.6766 13.1093 96.9724 13.6799 97.564 14.203C98.1556 14.7142 98.953 15.1244 99.9562 15.4335C100.972 15.7307 102.072 15.8793 103.255 15.8793H104.297Z" fill="#FAFCFF"/>
<path d="M121.875 12.7407H113.058V18.7147H112.518V6.24966H123.437V9.37037H113.058V12.2236H121.875V12.7407Z" fill="#FAFCFF"/>
<path d="M128.123 6.24966L121.602 18.7325H125.152L127.467 14.2743H135.126L137.383 18.7325H138L131.672 6.24966H128.123ZM131.344 6.85597L134.855 13.7572H127.737L131.344 6.85597Z" fill="#FAFCFF"/>
<g clip-path="url(#clip0_1526_3172)">
<path d="M7.125 2.625H16.875C17.969 2.625 19.0182 3.0596 19.7918 3.83318C20.5654 4.60677 21 5.65598 21 6.75V14.625H3V6.75C3 5.65598 3.4346 4.60677 4.20818 3.83318C4.98177 3.0596 6.03098 2.625 7.125 2.625Z" fill="#FAFCFF"/>
<path d="M19.125 10.875V16.125H4.875V10.875C4.875 10.2783 4.63795 9.70597 4.21599 9.28401C3.79403 8.86205 3.22174 8.625 2.625 8.625C2.02826 8.625 1.45597 8.86205 1.03401 9.28401C0.612053 9.70597 0.375 10.2783 0.375 10.875C0.375004 11.3257 0.500519 11.7676 0.737481 12.151C0.974444 12.5344 1.31349 12.8443 1.71664 13.0458L1.875 13.125V19.875C1.875 20.2728 2.03304 20.6544 2.31434 20.9357C2.59564 21.217 2.97718 21.375 3.375 21.375H20.625C21.0228 21.375 21.4044 21.217 21.6857 20.9357C21.967 20.6544 22.125 20.2728 22.125 19.875V13.125L22.2834 13.0458C22.6865 12.8443 23.0256 12.5344 23.2625 12.151C23.4995 11.7676 23.625 11.3257 23.625 10.875C23.625 10.2783 23.3879 9.70597 22.966 9.28401C22.544 8.86205 21.9717 8.625 21.375 8.625C20.7783 8.625 20.206 8.86205 19.784 9.28401C19.3621 9.70597 19.125 10.2783 19.125 10.875Z" fill="#FAFCFF"/>
<path d="M19.125 13.875H4.875C4.46079 13.875 4.125 14.2108 4.125 14.625V16.125C4.125 16.5392 4.46079 16.875 4.875 16.875H19.125C19.5392 16.875 19.875 16.5392 19.875 16.125V14.625C19.875 14.2108 19.5392 13.875 19.125 13.875Z" fill="#FAFCFF"/>
<path d="M16.875 12.375H7.125V13.875H16.875V12.375Z" fill="#FAFCFF"/>
<path d="M16.125 12.375H7.87503L7.2304 7.21804C7.21721 7.11251 7.22661 7.00539 7.25798 6.90377C7.28935 6.80215 7.34197 6.70837 7.41235 6.62865C7.48273 6.54892 7.56927 6.48507 7.66621 6.44134C7.76315 6.39761 7.86828 6.375 7.97463 6.375H16.0254C16.1318 6.375 16.2369 6.39761 16.3338 6.44134C16.4308 6.48507 16.5173 6.54892 16.5877 6.62865C16.6581 6.70837 16.7107 6.80215 16.7421 6.90377C16.7734 7.00539 16.7828 7.11251 16.7697 7.21804L16.125 12.375Z" fill="#FAFCFF"/>
<path d="M16.7697 7.218C16.7722 7.18706 16.7727 7.156 16.7712 7.125H8.72459C8.61824 7.125 8.51312 7.14762 8.41619 7.19135C8.31925 7.23508 8.23273 7.29893 8.16235 7.37865C8.09197 7.45837 8.03936 7.55214 8.00799 7.65375C7.97662 7.75536 7.96721 7.86248 7.9804 7.968L8.53135 12.375H16.1251L16.7697 7.218Z" fill="#FAFCFF"/>
<path d="M12 10.5C12.6213 10.5 13.125 9.99632 13.125 9.375C13.125 8.75368 12.6213 8.25 12 8.25C11.3787 8.25 10.875 8.75368 10.875 9.375C10.875 9.99632 11.3787 10.5 12 10.5Z" fill="#FAFCFF"/>
<path d="M12 7.875C11.7033 7.875 11.4133 7.96297 11.1666 8.1278C10.92 8.29262 10.7277 8.52689 10.6142 8.80098C10.5006 9.07506 10.4709 9.37666 10.5288 9.66764C10.5867 9.95861 10.7296 10.2259 10.9393 10.4357C11.1491 10.6454 11.4164 10.7883 11.7074 10.8462C11.9983 10.9041 12.2999 10.8744 12.574 10.7608C12.8481 10.6473 13.0824 10.455 13.2472 10.2084C13.412 9.96168 13.5 9.67167 13.5 9.375C13.4996 8.9773 13.3414 8.59601 13.0602 8.3148C12.779 8.03359 12.3977 7.87542 12 7.875ZM12 10.125C11.8517 10.125 11.7067 10.081 11.5833 9.9986C11.46 9.91619 11.3639 9.79906 11.3071 9.66201C11.2503 9.52497 11.2355 9.37417 11.2644 9.22868C11.2934 9.0832 11.3648 8.94956 11.4697 8.84467C11.5746 8.73978 11.7082 8.66835 11.8537 8.63941C11.9992 8.61047 12.15 8.62532 12.287 8.68209C12.4241 8.73886 12.5412 8.83499 12.6236 8.95832C12.706 9.08166 12.75 9.22666 12.75 9.375C12.7498 9.57384 12.6707 9.76448 12.5301 9.90508C12.3895 10.0457 12.1988 10.1248 12 10.125Z" fill="#2E2E2E"/>
<path d="M21.375 8.25V6.75C21.3737 5.55693 20.8992 4.41311 20.0555 3.56949C19.2119 2.72586 18.0681 2.25133 16.875 2.25H7.12502C5.93195 2.25133 4.78813 2.72586 3.9445 3.56949C3.10088 4.41311 2.62635 5.55693 2.62502 6.75V8.25C1.92907 8.2508 1.26186 8.52762 0.769749 9.01973C0.27764 9.51184 0.000820041 10.1791 1.61263e-05 10.875C-0.00172347 11.3864 0.137311 11.8884 0.401888 12.326C0.666466 12.7636 1.04638 13.12 1.50002 13.3561V19.875C1.5006 20.3721 1.69833 20.8487 2.04984 21.2002C2.40134 21.5517 2.87791 21.7494 3.37502 21.75H20.625C21.1221 21.7494 21.5987 21.5517 21.9502 21.2002C22.3017 20.8487 22.4994 20.3721 22.5 19.875V13.3561C22.9537 13.12 23.3336 12.7636 23.5981 12.326C23.8627 11.8884 24.0018 11.3864 24 10.875C23.9992 10.1791 23.7224 9.51184 23.2303 9.01973C22.7382 8.52762 22.071 8.2508 21.375 8.25ZM3.37502 6.75C3.37615 5.75579 3.7716 4.80262 4.47462 4.0996C5.17763 3.39658 6.1308 3.00113 7.12502 3H16.875C17.8692 3.00113 18.8224 3.39658 19.5254 4.0996C20.2284 4.80262 20.6239 5.75579 20.625 6.75V8.36055C20.0838 8.52254 19.6091 8.85459 19.2714 9.30749C18.9337 9.76039 18.7509 10.31 18.75 10.875V13.5H17.25V12.375C17.25 12.2755 17.2105 12.1802 17.1402 12.1098C17.0699 12.0395 16.9745 12 16.875 12H16.5498L17.1416 7.26454C17.1614 7.10626 17.1473 6.94559 17.1002 6.79318C17.0532 6.64077 16.9743 6.5001 16.8687 6.38052C16.7632 6.26093 16.6334 6.16516 16.488 6.09956C16.3426 6.03395 16.1849 6.00002 16.0254 6H7.97462C7.81511 6.00002 7.65743 6.03395 7.51204 6.09956C7.36665 6.16516 7.23687 6.26093 7.13131 6.38052C7.02576 6.5001 6.94684 6.64077 6.89979 6.79318C6.85274 6.94559 6.83864 7.10626 6.85843 7.26454L7.45025 12H7.12502C7.02556 12 6.93018 12.0395 6.85985 12.1098C6.78952 12.1802 6.75002 12.2755 6.75002 12.375V13.5H5.25002V10.875C5.24917 10.31 5.06634 9.76039 4.72862 9.30749C4.3909 8.85459 3.91625 8.52254 3.37502 8.36055V6.75ZM4.87502 14.25H19.125C19.2244 14.2501 19.3198 14.2896 19.3901 14.3599C19.4604 14.4302 19.4999 14.5256 19.5 14.625V16.125C19.4999 16.2244 19.4604 16.3198 19.3901 16.3901C19.3198 16.4604 19.2244 16.4999 19.125 16.5H4.87502C4.77559 16.4999 4.68026 16.4604 4.60995 16.3901C4.53964 16.3198 4.50011 16.2244 4.50002 16.125V14.625C4.50011 14.5256 4.53964 14.4302 4.60995 14.3599C4.68026 14.2896 4.77559 14.2501 4.87502 14.25ZM7.60254 7.1715C7.59595 7.11874 7.60065 7.06518 7.61633 7.01438C7.63202 6.96358 7.65833 6.91669 7.69351 6.87683C7.7287 6.83697 7.77196 6.80505 7.82042 6.78318C7.86889 6.76131 7.92145 6.75 7.97462 6.75H16.0254C16.0786 6.75 16.1311 6.76131 16.1796 6.78318C16.2281 6.80505 16.2713 6.83697 16.3065 6.87683C16.3417 6.91669 16.368 6.96358 16.3837 7.01438C16.3994 7.06518 16.4041 7.11874 16.3975 7.1715L15.794 12H8.20603L7.60254 7.1715ZM16.5 12.75V13.5H7.50002V12.75H16.5ZM22.1159 12.7104L21.9575 12.7896C21.8951 12.8207 21.8427 12.8686 21.8061 12.9278C21.7694 12.9871 21.75 13.0553 21.75 13.125V19.875C21.7497 20.1733 21.6311 20.4592 21.4202 20.6701C21.2092 20.881 20.9233 20.9997 20.625 21H3.37502C3.07675 20.9997 2.79079 20.881 2.57988 20.6701C2.36898 20.4592 2.25034 20.1733 2.25002 19.875V13.125C2.25001 13.0553 2.23059 12.9871 2.19395 12.9278C2.15731 12.8686 2.10489 12.8207 2.04257 12.7896L1.88435 12.7104C1.54271 12.541 1.25536 12.2792 1.05487 11.9548C0.854381 11.6304 0.748773 11.2564 0.750016 10.875C0.750016 10.3777 0.94756 9.90081 1.29919 9.54917C1.65082 9.19754 2.12774 9 2.62502 9C3.1223 9 3.59921 9.19754 3.95084 9.54917C4.30247 9.90081 4.50002 10.3777 4.50002 10.875V13.5691C4.28129 13.6462 4.09178 13.789 3.95749 13.9781C3.8232 14.1671 3.75073 14.3931 3.75002 14.625V16.125C3.75034 16.4233 3.86898 16.7092 4.07988 16.9201C4.29079 17.131 4.57675 17.2497 4.87502 17.25H19.125C19.4233 17.2497 19.7092 17.131 19.9202 16.9201C20.1311 16.7092 20.2497 16.4233 20.25 16.125V14.625C20.2493 14.3931 20.1768 14.1671 20.0425 13.9781C19.9083 13.789 19.7187 13.6462 19.5 13.5691V10.875C19.5 10.3777 19.6976 9.90081 20.0492 9.54917C20.4008 9.19754 20.8777 9 21.375 9C21.8723 9 22.3492 9.19754 22.7008 9.54917C23.0525 9.90081 23.25 10.3777 23.25 10.875C23.2513 11.2563 23.1457 11.6304 22.9452 11.9548C22.7448 12.2792 22.4575 12.541 22.1159 12.7104Z" fill="#2E2E2E"/>
</g>
<defs>
<clipPath id="clip0_1526_3172">
<rect width="24" height="24" fill="white"/>
</clipPath>
</defs>
</svg>
