<svg width="600" height="600" viewBox="0 0 600 600" fill="none" xmlns="http://www.w3.org/2000/svg">
<g clip-path="url(#clip0_1445_2410)">
<path d="M45.5347 331.765H289.025C294.596 331.765 299.124 327.241 299.124 321.676V133.844C299.124 128.279 294.596 123.755 289.025 123.755H45.5347C39.9638 123.755 35.4359 128.279 35.4359 133.844V321.676C35.4359 327.266 39.9638 331.765 45.5347 331.765Z" fill="white"/>
<path d="M45.5345 332.4H289.025C294.952 332.4 299.76 327.597 299.76 321.675V133.844C299.76 127.923 294.952 123.12 289.025 123.12H45.5345C39.6075 123.12 34.7998 127.923 34.7998 133.844V321.675C34.7998 327.597 39.6075 332.4 45.5345 332.4ZM289.025 124.391C294.24 124.391 298.488 128.635 298.488 133.844V321.675C298.488 326.885 294.24 331.129 289.025 331.129H45.5345C40.3198 331.129 36.0717 326.885 36.0717 321.675V133.844C36.0717 128.635 40.3198 124.391 45.5345 124.391H289.025Z" fill="#D9C6F4"/>
<path d="M35.0287 146.272L298.717 146.221V134.073C298.717 128.508 294.189 123.984 288.618 123.984H45.1275C39.5566 123.984 35.0287 128.508 35.0287 134.073V146.272Z" fill="#D9C6F4"/>
<path d="M46.6539 137.834C44.9259 137.834 43.525 136.435 43.525 134.709C43.525 132.982 44.9259 131.583 46.6539 131.583C48.3819 131.583 49.7827 132.982 49.7827 134.709C49.7827 136.435 48.3819 137.834 46.6539 137.834Z" fill="white"/>
<path d="M57.2867 137.834C55.5587 137.834 54.1578 136.435 54.1578 134.709C54.1578 132.982 55.5587 131.583 57.2867 131.583C59.0147 131.583 60.4155 132.982 60.4155 134.709C60.4155 136.435 59.0147 137.834 57.2867 137.834Z" fill="white"/>
<path d="M67.9454 137.834C66.2174 137.834 64.8165 136.435 64.8165 134.709C64.8165 132.982 66.2174 131.583 67.9454 131.583C69.6734 131.583 71.0742 132.982 71.0742 134.709C71.0742 136.435 69.6734 137.834 67.9454 137.834Z" fill="white"/>
<path d="M167.153 173.718H253.667C254.379 173.718 254.938 173.159 254.938 172.448C254.938 171.736 254.379 171.177 253.667 171.177H167.153C166.44 171.177 165.881 171.736 165.881 172.448C165.881 173.159 166.44 173.718 167.153 173.718Z" fill="#00676C"/>
<path d="M101.981 173.718H151.915C152.627 173.718 153.187 173.159 153.187 172.448C153.187 171.736 152.627 171.177 151.915 171.177H101.981C101.268 171.177 100.709 171.736 100.709 172.448C100.709 173.159 101.294 173.718 101.981 173.718Z" fill="#D9C6F4"/>
<path d="M270.608 176.31C268.473 176.31 266.742 174.581 266.742 172.448C266.742 170.314 268.473 168.585 270.608 168.585C272.743 168.585 274.475 170.314 274.475 172.448C274.475 174.581 272.743 176.31 270.608 176.31Z" fill="#00676C"/>
<path d="M148.1 195.675H176.819C177.531 195.675 178.091 195.116 178.091 194.405C178.091 193.693 177.531 193.134 176.819 193.134H148.1C147.387 193.134 146.828 193.693 146.828 194.405C146.828 195.116 147.387 195.675 148.1 195.675Z" fill="#00676C"/>
<path d="M191.344 195.675H234.613C235.326 195.675 235.885 195.116 235.885 194.405C235.885 193.693 235.326 193.134 234.613 193.134H191.344C190.631 193.134 190.072 193.693 190.072 194.405C190.072 195.116 190.657 195.675 191.344 195.675Z" fill="#232323"/>
<path d="M107.654 195.675H132.862C133.575 195.675 134.134 195.116 134.134 194.405C134.134 193.693 133.575 193.134 132.862 193.134H107.654C106.941 193.134 106.382 193.693 106.382 194.405C106.382 195.116 106.941 195.675 107.654 195.675Z" fill="#00676C"/>
<path d="M270.608 198.268C268.473 198.268 266.742 196.538 266.742 194.405C266.742 192.271 268.473 190.542 270.608 190.542C272.743 190.542 274.475 192.271 274.475 194.405C274.475 196.538 272.743 198.268 270.608 198.268Z" fill="#00676C"/>
<path d="M182.39 217.633H234.613C235.326 217.633 235.885 217.074 235.885 216.362C235.885 215.65 235.326 215.091 234.613 215.091H182.39C181.677 215.091 181.118 215.65 181.118 216.362C181.118 217.074 181.677 217.633 182.39 217.633Z" fill="#00676C"/>
<path d="M142.223 217.633H167.152C167.865 217.633 168.424 217.074 168.424 216.362C168.424 215.65 167.865 215.091 167.152 215.091H142.223C141.511 215.091 140.952 215.65 140.952 216.362C140.952 217.074 141.537 217.633 142.223 217.633Z" fill="#D9C6F4"/>
<path d="M270.608 220.225C268.473 220.225 266.742 218.495 266.742 216.362C266.742 214.229 268.473 212.499 270.608 212.499C272.743 212.499 274.475 214.229 274.475 216.362C274.475 218.495 272.743 220.225 270.608 220.225Z" fill="#00676C"/>
<path d="M218.028 239.59H253.667C254.379 239.59 254.938 239.031 254.938 238.319C254.938 237.608 254.379 237.049 253.667 237.049H218.028C217.316 237.049 216.756 237.608 216.756 238.319C216.756 239.031 217.316 239.59 218.028 239.59ZM134.058 239.59H202.791C203.503 239.59 204.063 239.031 204.063 238.319C204.063 237.608 203.503 237.049 202.791 237.049H134.058C133.346 237.049 132.786 237.608 132.786 238.319C132.786 239.031 133.346 239.59 134.058 239.59Z" fill="#00676C"/>
<path d="M270.608 242.182C268.473 242.182 266.742 240.453 266.742 238.319C266.742 236.186 268.473 234.456 270.608 234.456C272.743 234.456 274.475 236.186 274.475 238.319C274.475 240.453 272.743 242.182 270.608 242.182Z" fill="#00676C"/>
<path d="M198.975 261.547H234.613C235.326 261.547 235.885 260.988 235.885 260.277C235.885 259.565 235.326 259.006 234.613 259.006H198.975C198.263 259.006 197.703 259.565 197.703 260.277C197.703 260.988 198.263 261.547 198.975 261.547ZM97.58 261.547H147.336C148.049 261.547 148.608 260.988 148.608 260.277C148.608 259.565 148.049 259.006 147.336 259.006H97.58C96.8678 259.006 96.3081 259.565 96.3081 260.277C96.3081 260.988 96.8678 261.547 97.58 261.547ZM162.065 261.547H183.738C184.45 261.547 185.01 260.988 185.01 260.277C185.01 259.565 184.45 259.006 183.738 259.006H162.065C161.353 259.006 160.793 259.565 160.793 260.277C160.793 260.988 161.353 261.547 162.065 261.547Z" fill="#00676C"/>
<path d="M270.608 264.139C268.473 264.139 266.742 262.41 266.742 260.277C266.742 258.143 268.473 256.414 270.608 256.414C272.743 256.414 274.475 258.143 274.475 260.277C274.475 262.41 272.743 264.139 270.608 264.139Z" fill="#00676C"/>
<path d="M138.204 283.479H175.98C176.692 283.479 177.251 282.92 177.251 282.208C177.251 281.497 176.692 280.938 175.98 280.938H138.179C137.467 280.938 136.907 281.497 136.907 282.208C136.907 282.92 137.492 283.479 138.204 283.479Z" fill="#D9C6F4"/>
<path d="M188.775 283.479H253.667C254.379 283.479 254.938 282.92 254.938 282.208C254.938 281.497 254.379 280.938 253.667 280.938H188.775C188.063 280.938 187.503 281.497 187.503 282.208C187.503 282.92 188.088 283.479 188.775 283.479Z" fill="#00676C"/>
<path d="M270.608 286.071C268.473 286.071 266.742 284.342 266.742 282.208C266.742 280.075 268.473 278.346 270.608 278.346C272.743 278.346 274.475 280.075 274.475 282.208C274.475 284.342 272.743 286.071 270.608 286.071Z" fill="#00676C"/>
<path d="M204.012 305.436H234.613C235.326 305.436 235.885 304.877 235.885 304.166C235.885 303.454 235.326 302.895 234.613 302.895H204.012C203.299 302.895 202.74 303.454 202.74 304.166C202.74 304.877 203.299 305.436 204.012 305.436Z" fill="#232323"/>
<path d="M123.984 305.436H188.774C189.487 305.436 190.046 304.877 190.046 304.166C190.046 303.454 189.487 302.895 188.774 302.895H123.984C123.272 302.895 122.713 303.454 122.713 304.166C122.713 304.877 123.272 305.436 123.984 305.436Z" fill="#00676C"/>
<path d="M270.608 308.028C268.473 308.028 266.742 306.299 266.742 304.166C266.742 302.032 268.473 300.303 270.608 300.303C272.743 300.303 274.475 302.032 274.475 304.166C274.475 306.299 272.743 308.028 270.608 308.028Z" fill="#00676C"/>
</g>
<g clip-path="url(#clip1_1445_2410)">
<path d="M315.597 351.63C318.454 348.366 318.888 302.344 330.188 300.075C348.197 296.454 375.975 304.18 393.168 297.245C399.877 294.542 444.669 276.541 463.086 279.703C501.093 292.451 519.179 377.177 499.282 473.173C434.874 470.19 366.716 470.037 302.307 467.08C295.191 431.282 299.706 392.45 315.597 351.63Z" fill="white"/>
<path d="M499.307 473.964C499.665 473.964 499.971 473.709 500.047 473.352C509.562 427.432 510.837 381.894 503.644 345.102C500.2 327.484 495.022 312.798 488.237 301.452C481.222 289.749 472.855 282.201 463.341 279.014C463.315 279.014 463.264 278.989 463.239 278.989C446.378 276.082 408.422 290.309 392.887 296.556C383.321 300.406 370.236 299.641 357.584 298.902C347.508 298.315 337.968 297.755 330.035 299.335C321.795 300.993 319.168 322.436 317.255 338.091C316.515 344.082 315.775 350.278 315.01 351.145C314.959 351.222 314.908 351.298 314.883 351.375C298.889 392.45 294.425 431.435 301.593 467.258C301.669 467.615 301.95 467.845 302.307 467.87C334.524 469.349 368.22 470.165 400.795 470.93C433.369 471.695 467.065 472.485 499.256 473.989C499.282 473.964 499.307 473.964 499.307 473.964ZM462.907 280.468C472.039 283.553 480.125 290.87 486.936 302.217C493.645 313.41 498.746 327.917 502.164 345.383C509.281 381.818 508.031 426.896 498.695 472.408C466.682 470.93 433.216 470.139 400.846 469.374C368.476 468.609 334.983 467.819 302.97 466.34C296.032 431.001 300.496 392.527 316.26 351.987C317.229 350.661 317.791 346.275 318.785 338.244C320.444 324.781 323.198 302.242 330.341 300.814C338.07 299.259 347.508 299.82 357.482 300.406C370.312 301.171 383.576 301.936 393.448 297.959C406.789 292.579 417.4 289.035 423.956 286.995C442.194 281.36 455.28 279.167 462.907 280.468Z" fill="#232323"/>
<path d="M304.909 467.182C291.39 472.077 273.406 470.445 261.647 461.266C235.475 440.818 246.265 387.682 260.448 358.106C265.269 348.06 283.252 310.503 321.923 300.942C329.933 298.978 338.223 298.315 346.462 298.978C346.972 299.029 347.482 299.055 347.992 299.106H348.018C349.115 299.208 350.161 299.335 351.13 299.463" fill="white"/>
<path d="M288.941 470.675C294.476 470.675 300.037 469.782 305.164 467.921C305.572 467.768 305.776 467.335 305.623 466.952C305.47 466.544 305.037 466.34 304.654 466.493C290.522 471.618 273.049 469.221 262.132 460.68C247.669 449.359 245.755 428.605 246.699 413.179C247.771 395.535 253.178 375.087 261.162 358.463C263.586 353.44 269.223 341.635 279.095 329.855C291.39 315.194 305.878 305.735 322.127 301.707C330.086 299.769 338.248 299.106 346.411 299.769C346.921 299.794 347.431 299.845 347.916 299.896H347.967C349.013 299.998 350.033 300.126 351.028 300.253C351.436 300.304 351.844 300.024 351.895 299.59C351.946 299.182 351.666 298.774 351.232 298.723C350.212 298.596 349.166 298.468 348.095 298.366H348.044C347.482 298.315 346.998 298.264 346.539 298.239C338.223 297.576 329.882 298.239 321.77 300.228C305.19 304.333 290.446 313.971 277.921 328.886C267.922 340.819 262.208 352.726 259.785 357.8C251.724 374.602 246.266 395.28 245.194 413.103C244.225 428.885 246.215 450.175 261.213 461.904C268.509 467.615 278.712 470.675 288.941 470.675Z" fill="#232323"/>
<path d="M364.675 342.298C359.165 353.593 354.523 365.321 350.773 377.305C339.575 413.179 338.402 445.433 339.779 468.966L390.949 464.02C383.526 440.308 378.807 415.831 376.868 391.073C375.567 374.169 375.567 357.188 376.868 340.258L364.675 342.298Z" fill="#00676C"/>
<path d="M301.542 467.921H301.67C302.078 467.845 302.358 467.462 302.282 467.029C299.884 453.107 299.756 432.149 301.95 410.91C304.424 386.917 309.526 365.984 316.26 351.961C316.439 351.579 316.286 351.12 315.903 350.941C315.52 350.763 315.061 350.916 314.883 351.298C308.047 365.5 302.919 386.611 300.42 410.757C298.226 432.098 298.353 453.235 300.751 467.284C300.853 467.666 301.185 467.921 301.542 467.921Z" fill="#232323"/>
<path d="M371.664 312.874C375.388 321.467 380.413 332.201 384.138 340.793C383.117 341.635 377.965 345 371.919 344.873C365.44 344.745 361.308 340.921 360.415 340.079C361.639 337.938 362.838 335.719 364.012 333.399C367.226 327.051 369.572 318.637 371.664 312.874Z" fill="#00676C"/>
<path d="M372.659 345.689C377.863 345.689 382.837 343.955 385.541 340.972C385.821 340.666 385.796 340.181 385.49 339.901C385.184 339.62 384.699 339.646 384.419 339.952C381.332 343.292 375.006 344.898 368.986 343.853C364.624 343.088 361.487 341.099 360.339 338.371C360.186 337.989 359.727 337.81 359.344 337.963C358.961 338.116 358.783 338.575 358.936 338.958C360.288 342.17 363.859 344.516 368.731 345.357C370.032 345.587 371.333 345.689 372.659 345.689Z" fill="white"/>
<path d="M392.581 347.219C384.087 346.607 375.414 325.47 371.894 315.169C377.863 309.815 388.372 300.967 396.433 289.341C399.137 285.465 402.172 281.844 405.539 278.53L420.64 288.321C416.814 299.692 400.922 347.83 392.581 347.219Z" fill="white"/>
<path d="M392.734 348.009C396.586 348.009 401.586 340.36 408.422 323.965C413.779 311.14 418.6 296.811 420.921 289.901L421.38 288.576C421.482 288.244 421.355 287.887 421.074 287.683L405.973 277.892C405.667 277.688 405.284 277.739 405.029 277.994C401.637 281.335 398.55 285.006 395.846 288.907C388.628 299.284 379.419 307.469 373.348 312.9C372.659 313.512 372.022 314.073 371.435 314.608C371.205 314.812 371.129 315.143 371.231 315.424C372.404 318.84 375.542 327.56 379.776 335.21C384.291 343.394 388.628 347.703 392.607 347.983C396.586 348.264 392.683 348.009 392.734 348.009ZM419.748 288.652L419.493 289.417C417.171 296.301 412.35 310.605 407.019 323.379C398.525 343.751 394.367 346.607 392.632 346.479C385.694 345.995 377.659 329.549 372.787 315.424C373.272 314.99 373.782 314.532 374.317 314.047C380.465 308.591 389.75 300.33 397.071 289.799C399.622 286.128 402.504 282.686 405.642 279.524L419.748 288.652Z" fill="#232323"/>
<path d="M429.287 311.472C432.144 300.942 440.333 278.53 463.877 279.218L470.228 279.856C473.927 280.34 477.549 281.156 481.095 282.303C538.335 300.661 551.293 392.476 552.365 400.074C552.543 401.425 552.696 402.623 552.696 402.674C553.36 408.309 553.666 413.995 553.615 419.681C553.615 420.191 553.589 420.701 553.589 421.211L553.921 421.44C559.966 425.494 564.022 430.084 564.736 435.081C565.144 437.835 564.762 441.608 564.558 443.495C563.767 451.221 561.344 458.717 557.517 465.448C552.594 462.312 547.416 459.15 541.983 455.988C540.988 456.881 539.917 457.697 538.794 458.411C517.725 471.644 453.087 462.745 435.486 430.339C431.405 416.519 432.093 413.128 438.981 411.241C438.879 410.961 430.741 386.739 427.553 359.202C425.742 343.267 425.41 325.929 429.287 311.472Z" fill="white"/>
<path d="M557.518 466.238C557.569 466.238 557.645 466.238 557.696 466.213C557.9 466.162 558.079 466.034 558.181 465.856C562.109 458.972 564.507 451.476 565.323 443.597C565.502 441.71 565.91 437.809 565.502 435.005C564.788 430.058 561.038 425.316 554.355 420.828C554.355 420.446 554.38 420.089 554.38 419.706C554.431 414.021 554.125 408.258 553.462 402.598V402.572C553.462 402.572 553.462 402.496 553.436 402.394C553.385 401.986 553.283 401.017 553.13 399.997C550.784 383.322 536.244 299.208 481.35 281.615C477.779 280.468 474.08 279.652 470.356 279.142L463.979 278.504H463.928C453.47 278.198 444.848 282.303 438.267 290.717C434.109 296.021 430.844 302.956 428.599 311.319C425.206 323.863 424.62 340.028 426.839 359.381C429.594 383.22 436.353 405.862 438.037 410.833C435.486 411.624 433.981 412.669 433.114 414.225C431.583 416.978 432.017 421.262 434.797 430.645C434.823 430.696 434.823 430.747 434.848 430.798C438.777 438.013 445.128 444.413 453.776 449.818C461.403 454.586 470.815 458.513 481.018 461.19C503.848 467.156 527.775 466.315 539.228 459.15C540.249 458.513 541.218 457.799 542.111 457.008C547.314 460.068 552.365 463.153 557.135 466.187C557.237 466.187 557.365 466.238 557.518 466.238ZM551.957 402.776C552.62 408.36 552.926 414.072 552.85 419.681C552.85 420.191 552.824 420.701 552.824 421.185C552.824 421.44 552.952 421.695 553.156 421.848L553.487 422.078C559.788 426.285 563.308 430.721 563.971 435.208C564.354 437.835 563.971 441.608 563.793 443.418C563.028 450.838 560.808 457.901 557.237 464.402C552.518 461.419 547.519 458.36 542.366 455.351C542.085 455.173 541.703 455.224 541.473 455.453C540.529 456.32 539.483 457.11 538.387 457.799C533.055 461.164 524.434 463.179 514.128 463.536C503.823 463.867 492.191 462.516 481.376 459.686C471.325 457.059 462.04 453.184 454.541 448.492C446.149 443.24 439.976 437.07 436.175 430.109C433.599 421.338 433.114 417.233 434.389 414.938C435.129 413.613 436.558 412.746 439.159 412.032C439.363 411.981 439.542 411.828 439.644 411.649C439.746 411.445 439.746 411.241 439.67 411.037C439.593 410.833 431.481 386.815 428.293 359.177C426.099 340.028 426.66 324.042 430.002 311.701C432.196 303.542 435.359 296.786 439.389 291.635C445.638 283.629 453.852 279.728 463.775 280.009L470.101 280.646C473.723 281.131 477.32 281.946 480.814 283.043C493.773 287.199 505.481 295.536 515.582 307.877C523.796 317.897 531.015 330.544 537.035 345.51C546.498 369.069 550.35 391.583 551.549 400.176C551.702 401.196 551.804 402.139 551.855 402.547C551.931 402.649 551.931 402.725 551.957 402.776Z" fill="#232323"/>
<path d="M354.676 343.165C346.972 341.558 346.283 304.537 347.329 299.055C349.727 297.092 354.318 293.624 357.456 290.896C361.996 298.519 370.873 314.608 371.23 315.194C369.751 319.707 361.435 344.592 354.676 343.165Z" fill="white"/>
<path d="M355.263 344.006C358.349 344.006 361.767 339.977 365.645 331.742C368.476 325.699 370.823 318.942 371.971 315.449C372.047 315.245 372.022 315.016 371.894 314.812C371.818 314.684 371.282 313.716 370.542 312.39C367.889 307.622 361.64 296.454 358.12 290.539C357.992 290.335 357.814 290.207 357.584 290.182C357.354 290.156 357.125 290.207 356.972 290.36C355.008 292.069 352.508 294.032 350.289 295.791C348.988 296.811 347.763 297.78 346.87 298.519C346.743 298.621 346.641 298.8 346.615 298.978C346.08 301.758 345.978 312.39 346.998 322.691C348.324 336.025 350.875 343.19 354.548 343.955C354.778 343.98 355.008 344.006 355.263 344.006ZM370.415 315.271C364.93 331.946 359.038 342.451 355.263 342.451C355.135 342.451 354.982 342.425 354.855 342.4C352.023 341.813 349.702 334.547 348.503 322.461C347.534 312.747 347.585 302.446 348.044 299.437C348.911 298.723 350.034 297.857 351.232 296.913C353.222 295.358 355.416 293.624 357.278 292.043C360.849 298.111 366.665 308.54 369.216 313.078C369.802 314.226 370.185 314.914 370.415 315.271Z" fill="#232323"/>
<path d="M557.518 465.473C559.354 460.578 536.014 446.504 519.383 439.39C505.43 433.398 480.993 425.8 445.893 428.911C460.152 435.922 524.459 467.182 550.12 467.36C552.314 467.386 556.803 467.411 557.518 465.473Z" fill="white"/>
<path d="M550.86 468.125C553.462 468.125 557.415 467.947 558.232 465.728C559.226 463.077 555.043 458.666 545.784 452.623C538.208 447.676 528.208 442.322 519.689 438.676C497.777 429.268 472.932 425.724 445.817 428.146C445.485 428.171 445.204 428.426 445.128 428.758C445.077 429.089 445.23 429.421 445.536 429.574C468.978 441.098 526.091 467.921 550.12 468.1C550.35 468.125 550.605 468.125 550.86 468.125ZM462.04 428.936C482.676 428.936 501.807 432.659 519.076 440.078C527.545 443.699 537.442 449.002 544.942 453.898C548.921 456.498 552.084 458.895 554.125 460.884C556.956 463.638 556.931 464.81 556.778 465.193C556.242 466.621 551.625 466.595 550.12 466.57C539.33 466.493 520.454 460.909 494.002 449.971C480.176 444.26 464.565 437.172 448.699 429.421C453.24 429.115 457.678 428.936 462.04 428.936Z" fill="#232323"/>
<path d="M375.312 463.128H274.299L278.049 471.363H375.312C377.582 471.363 379.419 469.527 379.419 467.258C379.419 464.989 377.582 463.128 375.312 463.128Z" fill="#D9C6F4"/>
<path d="M276.722 463.128L280.498 471.363H278.431L274.656 463.128H276.722Z" fill="white"/>
<path d="M278.432 471.363H153.645L103.292 359.916C102.425 357.978 103.266 355.709 105.205 354.842C105.715 354.613 106.251 354.511 106.786 354.511H220.298C223.538 354.511 226.471 356.397 227.798 359.355L278.432 471.363Z" fill="#D9C6F4"/>
<path d="M285.242 468.992C284.298 468.992 283.533 468.227 283.533 467.284C283.533 466.34 284.298 465.575 285.242 465.575C286.186 465.575 286.951 466.34 286.951 467.284C286.951 468.227 286.186 468.992 285.242 468.992Z" fill="white"/>
<path d="M291.237 468.686C290.395 468.686 289.732 468.023 289.732 467.182C289.732 466.34 290.395 465.677 291.237 465.677L300.037 465.652C300.879 465.652 301.542 466.315 301.542 467.156C301.542 467.998 300.879 468.66 300.037 468.66L291.237 468.686ZM184.97 424.041C181.322 424.041 178.184 421.415 177.572 417.82C176.985 414.454 179.256 411.267 182.623 410.68H182.648C185.454 410.196 188.107 412.083 188.592 414.862C189 417.208 187.418 419.426 185.072 419.808C184.026 419.987 182.954 419.706 182.138 419.043C181.73 418.712 181.679 418.126 182.011 417.718C182.342 417.31 182.929 417.259 183.337 417.59C183.72 417.922 184.23 418.049 184.74 417.973C186.066 417.743 186.934 416.494 186.73 415.193C186.423 413.434 184.74 412.236 182.98 412.542C180.633 412.95 179.052 415.142 179.46 417.488C179.995 420.548 182.878 422.587 185.939 422.078C189.893 421.415 192.545 417.667 191.882 413.715C191.015 408.666 186.832 405.734 181.73 406.601C178.643 407.136 176.118 408.717 174.613 411.063C173.057 413.511 172.675 416.647 173.567 419.91C173.695 420.42 173.414 420.93 172.904 421.058C172.394 421.185 171.884 420.905 171.756 420.395C170.736 416.621 171.17 412.924 173.032 410.043C174.817 407.238 177.802 405.352 181.424 404.74C187.52 403.694 192.699 407.34 193.744 413.383C194.586 418.355 191.245 423.072 186.27 423.913C185.811 424.015 185.403 424.041 184.97 424.041ZM544.56 452.725C542.34 461.674 536.831 474.372 528.336 481.613C515.123 492.832 501.476 489.313 466.504 490.715C426.941 492.296 405.616 493.137 382.021 504.611C366.741 512.031 352.839 522.765 350.263 519.884C348.631 518.048 352.533 511.827 356.283 506.6C356.385 506.447 356.487 506.294 356.589 506.166C354.14 508.232 351.87 510.093 349.804 511.725C340.315 519.246 334.78 522.306 333.249 520.929C331.642 519.501 334.295 513.331 341.208 502.418L341.335 502.214C339.575 503.668 337.892 505.019 336.31 506.294C323.199 516.799 315.827 521.261 314.194 519.731C312.562 518.201 316.643 510.679 326.387 497.242L326.081 497.446C324.678 498.415 323.199 499.41 321.719 500.353C314.883 504.79 307.97 508.665 306.465 507.033C304.986 505.452 309.22 499.308 310.751 497.064C334.218 463.026 386.128 444.719 386.128 444.719C418.039 433.449 451.914 421.95 494.104 431.18C518.082 437.044 534.203 444.744 544.56 452.725Z" fill="white"/>
<path d="M334.244 522C335.366 522 336.897 521.439 338.912 520.317C341.692 518.762 345.518 516.085 350.289 512.311C351.105 511.674 351.947 510.985 352.839 510.271C349.319 515.702 348.35 518.889 349.702 520.394C351.742 522.663 357.303 519.425 366.512 514.019C371.307 511.215 376.741 508.028 382.378 505.274C405.846 493.877 427.426 493.01 466.555 491.455C475.1 491.123 482.294 491.072 488.671 491.021C508.006 490.894 518.643 490.817 528.846 482.174C537.443 474.856 543.004 462.261 545.325 452.903C545.401 452.597 545.299 452.291 545.044 452.113C533.387 443.113 516.322 435.82 494.334 430.415C475.279 426.234 456.25 425.928 436.175 429.472C417.783 432.71 400.106 438.957 385.924 443.954C385.796 444.005 372.71 448.645 356.921 457.416C347.636 462.567 339.269 468.1 331.999 473.887C322.918 481.128 315.572 488.778 310.164 496.58C305.828 502.877 304.603 506.039 305.93 507.492C307.078 508.742 309.909 508.92 322.178 500.94C322.561 500.71 322.918 500.455 323.326 500.2C312.536 515.498 312.358 518.94 313.71 520.241C315.164 521.618 319.041 521.108 336.82 506.855C337.305 506.472 337.815 506.064 338.325 505.656C336.055 509.43 334.397 512.515 333.377 514.886C331.846 518.43 331.667 520.47 332.79 521.465C333.121 521.822 333.606 522 334.244 522ZM356.589 505.402C356.411 505.402 356.232 505.453 356.104 505.58C353.656 507.645 351.385 509.507 349.319 511.138C336.233 521.49 334.04 520.649 333.734 520.368C333.402 520.088 332.305 517.895 341.82 502.826L341.947 502.622C342.151 502.316 342.1 501.883 341.82 501.628C341.539 501.373 341.106 501.373 340.825 501.602C339.065 503.056 337.381 504.407 335.8 505.682C329.295 510.883 324.143 514.657 320.52 516.85C315.546 519.858 314.73 519.17 314.704 519.144C314.679 519.119 313.939 518.328 316.669 513.28C318.684 509.583 322.153 504.331 326.974 497.65C327.204 497.344 327.153 496.937 326.897 496.656C326.642 496.401 326.234 496.35 325.903 496.554L325.597 496.758C323.99 497.854 322.561 498.798 321.26 499.665C308.787 507.773 307.129 506.625 306.975 506.447C306.95 506.421 306.414 505.784 308.098 502.597C309.144 500.634 310.572 498.568 311.337 497.446C317.995 487.809 331.387 473.275 357.584 458.742C373.271 450.048 386.23 445.433 386.357 445.382C416.738 434.673 451.199 422.511 493.926 431.868C515.455 437.146 532.188 444.26 543.667 452.98C541.422 461.674 535.989 474.015 527.801 480.975C518.031 489.262 508.185 489.338 488.594 489.466C482.217 489.517 474.998 489.542 466.428 489.899C427.068 491.48 405.386 492.322 381.638 503.872C375.95 506.625 370.491 509.838 365.67 512.668C361.614 515.039 358.094 517.105 355.39 518.354C351.896 519.96 351.003 519.578 350.799 519.323C350.442 518.915 349.778 516.824 356.87 507.008C356.972 506.855 357.074 506.702 357.176 506.574C357.405 506.268 357.354 505.835 357.074 505.554C356.972 505.453 356.793 505.402 356.589 505.402Z" fill="#232323"/>
<path d="M160.201 453.209C160.507 455.708 153.313 459.482 144.283 459.252C136.299 459.048 132.779 450.762 140.049 450.583C148.773 450.354 159.741 449.563 160.201 453.209Z" fill="white"/>
<path d="M145.074 460.017C148.977 460.017 152.089 459.303 154.053 458.691C156.732 457.85 158.925 456.626 160.048 455.377C160.736 454.612 161.043 453.847 160.966 453.107C160.481 449.155 151.987 449.436 142.983 449.716C141.988 449.742 140.993 449.767 140.024 449.793C137.754 449.844 135.305 450.813 135.305 453.388C135.305 456.396 138.978 459.864 144.258 459.992C144.539 460.017 144.794 460.017 145.074 460.017ZM149.615 451.119C151.324 451.119 152.956 451.17 154.385 451.297C157.548 451.603 159.308 452.291 159.41 453.311C159.436 453.566 159.257 453.949 158.9 454.357C157.242 456.192 151.605 458.666 144.284 458.487C141.248 458.411 136.835 456.396 136.835 453.413C136.835 452.164 138.009 451.399 140.049 451.348C141.019 451.323 142.013 451.297 143.008 451.272C145.253 451.195 147.498 451.119 149.615 451.119Z" fill="#232323"/>
<path d="M157.089 445.994C157.216 447.574 152.752 451.526 137.141 451.246C128.545 451.093 125.56 440.104 134.131 440.69C144.437 441.43 156.757 441.659 157.089 445.994Z" fill="white"/>
<path d="M138.672 452.036C151.579 452.036 155.788 449.104 157.012 447.804C157.752 447.014 157.879 446.351 157.854 445.943C157.497 441.43 147.88 440.818 137.702 440.18C136.529 440.104 135.356 440.027 134.208 439.951C131.759 439.772 129.871 440.512 128.928 441.991C127.984 443.444 128.035 445.433 129.055 447.345C130.229 449.563 132.983 451.96 137.141 452.036H138.672ZM156.323 446.07C156.323 446.147 156.272 446.402 155.89 446.784C154.079 448.722 148.186 450.711 137.141 450.507C133.647 450.456 131.351 448.467 130.382 446.631C129.616 445.229 129.565 443.801 130.177 442.807C130.841 441.812 132.167 441.328 134.08 441.481C135.228 441.557 136.402 441.634 137.6 441.71C145.814 442.22 156.068 442.858 156.323 446.07Z" fill="#232323"/>
<path d="M154.359 437.197C153.875 438.421 149.258 441.506 134.131 440.716C120.892 440.027 119.515 426.922 129.463 427.891C139.743 428.911 155.966 433.143 154.359 437.197Z" fill="white"/>
<path d="M138.799 441.608C143.289 441.608 147.013 441.226 149.921 440.461C152.701 439.721 154.614 438.625 155.048 437.503C155.252 436.993 155.354 436.228 154.793 435.31C153.416 433.041 148.467 431.231 144.564 430.084C139.871 428.707 134.259 427.636 129.514 427.177C126.606 426.896 124.311 427.712 123.061 429.523C121.938 431.154 121.862 433.373 122.908 435.463C124.642 438.982 128.826 441.251 134.08 441.532C135.738 441.557 137.32 441.608 138.799 441.608ZM153.645 436.917C153.543 437.197 152.548 438.166 149.538 438.982C146.987 439.67 142.243 440.384 134.182 439.951C127.219 439.594 124.872 435.871 124.311 434.75C123.52 433.169 123.545 431.511 124.362 430.339C125.28 429.013 127.066 428.426 129.412 428.656C139.054 429.599 151.681 433.041 153.543 436.075C153.747 436.483 153.722 436.738 153.645 436.917Z" fill="#232323"/>
<path d="M148.416 428.63C147.498 430.39 142.37 431.435 129.004 429.778C115.638 428.12 120 413.383 130.254 416.621C140.1 419.732 150.048 425.494 148.416 428.63Z" fill="white"/>
<path d="M140.151 431.384C145.253 431.384 148.237 430.594 149.079 429.013C149.309 428.554 149.513 427.814 149.105 426.794C147.574 423.072 138.366 418.406 130.483 415.907C125.713 414.403 122.908 416.621 121.913 417.641C120.051 419.553 119.413 422.384 120.28 424.857C121.352 427.916 124.515 429.982 128.902 430.543C133.391 431.103 137.141 431.384 140.151 431.384ZM147.727 428.273C147.472 428.758 145.38 431.052 129.106 429.013C123.877 428.375 122.244 425.8 121.734 424.347C121.045 422.435 121.556 420.216 123.01 418.712C124.693 416.978 127.244 416.494 130.024 417.361C138.621 420.089 146.554 424.576 147.702 427.355C147.906 427.865 147.804 428.12 147.727 428.273ZM403.447 194.925C400.948 199.77 396.79 209.561 397.683 218.332C397.759 219.046 397.861 219.734 397.989 220.422C389.954 223.533 374.266 241.865 374.266 241.865C374.266 241.865 373.985 241.559 373.45 241.024C371.868 239.443 368.195 235.721 363.502 231.233C361.92 229.703 360.211 228.122 358.425 226.465C357.124 225.241 355.747 224.017 354.395 222.794C349.242 218.179 343.784 213.564 338.937 210.096C335.493 207.623 332.356 205.736 329.882 204.818C329.856 204.818 329.831 204.793 329.805 204.793L329.729 204.767C313.403 198.75 316.235 176.058 327.866 171.264C332.994 169.097 338.861 169.479 343.682 172.284C350.059 155.125 373.067 159.485 375.465 172.973C392.198 161.626 410.845 180.673 403.447 194.925Z" fill="#232323"/>
<path d="M395.004 251.452C395.03 251.554 395.055 251.631 395.081 251.707C395.234 252.217 395.387 252.752 395.54 253.288C396.662 257.112 398.04 261.243 399.723 265.552C401.586 270.294 403.575 274.578 405.539 278.428C397.963 299.896 385.719 314.914 373.45 315.169C371.894 315.194 366.69 315.296 362.813 311.905C362.813 311.905 356.028 305.965 357.482 290.794C357.482 290.794 357.482 290.692 357.507 290.59C357.558 290.054 357.711 288.525 357.839 286.51C357.864 286.179 357.89 285.847 357.89 285.491C358.17 280.672 358.17 276.108 357.992 271.799V271.722C345.748 277.51 331.897 277.382 323.811 270.167C322.561 269.045 316.898 263.869 317.459 256.934C318.352 245.868 326.515 240.055 328.198 227.077C328.836 222.309 329.27 217.49 329.525 212.646C329.652 210.02 329.729 207.393 329.729 204.767L329.882 204.742C331.361 204.589 332.968 204.461 334.626 204.385C340.85 204.104 348.095 204.461 354.242 206.425C355.773 206.909 357.252 207.521 358.681 208.26C360.033 208.949 361.282 209.79 362.456 210.759C366.027 213.768 370.823 219.249 373.96 225.471C377.48 232.508 379.036 235.771 384.393 229.958C389.469 224.451 392.173 220.499 397.657 218.255C398.423 217.949 399.213 217.669 400.004 217.439C407.35 215.348 414.85 221.136 416.125 228.199C418.37 240.718 404.162 250.254 395.004 251.452Z" fill="white"/>
<path d="M372.94 315.959H373.45C385.668 315.704 398.218 301.426 406.253 278.708C406.33 278.504 406.304 278.3 406.202 278.096C404.085 273.94 402.121 269.631 400.437 265.297C398.881 261.345 397.479 257.24 396.28 253.084C396.178 252.752 396.076 252.396 395.999 252.064C401.611 251.044 409.212 247.041 413.625 241.024C416.584 236.995 417.707 232.533 416.916 228.148C416.227 224.247 413.702 220.601 410.182 218.408C406.942 216.394 403.269 215.807 399.851 216.776C399.035 217.006 398.218 217.286 397.427 217.618C392.811 219.504 390.056 222.615 386.535 226.567C385.694 227.511 384.852 228.479 383.883 229.499C382.046 231.463 380.694 232.355 379.674 232.227C378.118 231.998 376.74 229.244 374.802 225.42L374.674 225.19C371.358 218.663 366.46 213.181 362.966 210.224C361.767 209.204 360.44 208.337 359.063 207.623C357.609 206.883 356.079 206.246 354.497 205.736C347.737 203.594 339.957 203.416 334.626 203.671C333.045 203.747 331.438 203.849 329.831 204.028L329.652 204.053C329.269 204.104 328.963 204.41 328.963 204.818C328.963 207.419 328.887 210.071 328.759 212.646C328.53 217.439 328.096 222.258 327.458 227.001C326.617 233.451 324.168 238.092 321.795 242.579C319.423 247.067 317.178 251.299 316.719 256.908C316.184 263.359 320.622 268.357 323.3 270.779C327.331 274.374 332.866 276.388 339.32 276.618C345.187 276.822 351.36 275.547 357.277 272.921C357.405 277.051 357.354 281.284 357.124 285.465C357.099 285.796 357.073 286.128 357.073 286.485C356.946 288.448 356.818 289.952 356.742 290.539C356.716 290.641 356.716 290.743 356.716 290.794C355.262 306.143 362.022 312.262 362.303 312.517C364.904 314.786 368.476 315.959 372.94 315.959ZM404.697 278.504C400.948 289.009 396.101 297.908 390.668 304.282C385.081 310.809 379.113 314.302 373.45 314.43C369.139 314.506 365.746 313.486 363.323 311.344C363.272 311.293 356.869 305.429 358.247 290.87V290.666C358.298 290.105 358.451 288.55 358.578 286.561C358.604 286.23 358.629 285.873 358.655 285.541C358.91 280.952 358.961 276.312 358.757 271.773C358.782 271.493 358.655 271.238 358.425 271.11C358.196 270.957 357.915 270.932 357.66 271.059C345.238 276.924 331.846 276.363 324.321 269.631C321.846 267.413 317.765 262.824 318.224 257.036C318.658 251.733 320.826 247.628 323.122 243.293C325.571 238.678 328.096 233.91 328.963 227.205C329.601 222.437 330.06 217.567 330.29 212.722C330.417 210.326 330.468 207.903 330.494 205.507C331.897 205.379 333.3 205.277 334.677 205.226C339.881 204.997 347.482 205.15 354.038 207.24C355.517 207.699 356.971 208.311 358.349 209.025C359.65 209.688 360.874 210.504 361.971 211.422C365.338 214.278 370.083 219.555 373.297 225.904L373.424 226.134C375.643 230.519 377.097 233.426 379.444 233.757C381.026 233.987 382.735 232.992 384.979 230.545C385.949 229.499 386.816 228.53 387.658 227.587C391.178 223.635 393.703 220.779 397.989 219.02C398.728 218.714 399.494 218.459 400.259 218.23C403.269 217.363 406.508 217.898 409.365 219.683C412.528 221.672 414.799 224.91 415.411 228.403C416.125 232.431 415.13 236.358 412.375 240.106C407.988 246.098 400.284 249.973 394.928 250.687C394.698 250.713 394.52 250.84 394.392 251.019C394.264 251.197 394.239 251.427 394.29 251.631C394.315 251.733 394.341 251.835 394.367 251.911L394.494 252.345C394.596 252.727 394.724 253.109 394.826 253.492C396.05 257.673 397.479 261.829 399.035 265.832C400.693 270.141 402.606 274.399 404.697 278.504Z" fill="#232323"/>
<path d="M363.833 217.694L363.808 216.929L363.731 216.241C363.68 215.782 363.578 215.348 363.451 214.915C363.195 214.048 362.864 213.207 362.405 212.391C361.486 210.734 360.16 209.306 358.578 208.235C357.737 207.674 356.844 207.215 355.9 206.883C354.931 206.552 353.91 206.374 352.89 206.348C351.895 206.323 350.9 206.476 349.957 206.781C349.013 207.062 348.146 207.546 347.431 208.184C346.513 209.025 346.437 210.453 347.253 211.396C347.406 211.575 347.61 211.728 347.814 211.83L348.197 212.059C348.911 212.467 349.549 212.748 350.084 213.028C350.62 213.309 351.13 213.589 351.564 213.793C352.456 214.278 353.247 214.686 354.089 215.195C354.931 215.705 355.849 216.266 356.844 216.955L358.425 218.026C358.706 218.23 358.987 218.434 359.293 218.587C359.956 219.071 360.721 219.351 361.537 219.453C361.971 219.504 362.405 219.428 362.787 219.275C363.323 219.046 363.706 218.561 363.808 218C363.833 217.949 363.833 217.822 363.833 217.694ZM360.007 224.145C357.864 223.686 352.712 222.717 347.916 220.295C347.253 219.963 346.437 220.218 346.079 220.881V220.907C345.212 222.641 344.294 225.7 347.788 226.924C352.048 228.454 358.91 227.103 360.415 225.241C360.645 224.961 360.594 224.527 360.313 224.298L360.288 224.272C360.211 224.196 360.109 224.17 360.007 224.145ZM330.749 219.836C332.917 220.116 334.524 219.938 338.478 219.479C339.218 219.377 339.906 219.887 340.008 220.626V220.652C340.264 222.564 339.294 224.527 336.208 224.859C332.739 225.241 330.596 222.666 329.984 220.754C329.856 220.397 330.06 219.989 330.417 219.887C330.545 219.861 330.647 219.836 330.749 219.836ZM395.744 252.243C393.372 252.421 390.974 252.217 388.653 251.605C388.219 251.554 387.913 251.146 387.964 250.713C388.015 250.279 388.423 249.973 388.857 250.024C388.908 250.024 388.984 250.05 389.035 250.075C391.076 250.585 393.193 250.789 395.285 250.662C395.438 251.172 395.565 251.707 395.744 252.243ZM338.963 210.096C338.886 210.173 338.784 210.249 338.682 210.3C338.503 210.402 338.299 210.504 338.095 210.555L337.713 210.657C336.998 210.861 336.386 210.912 335.851 211.065C335.289 211.141 334.805 211.294 334.371 211.396C333.478 211.626 332.688 211.804 331.846 212.008C331.132 212.187 330.366 212.442 329.55 212.697C329.678 210.071 329.754 207.444 329.754 204.818L329.907 204.793L329.831 204.767L329.754 204.742C330.57 204.487 331.412 204.334 332.279 204.257C333.07 204.232 333.886 204.283 334.652 204.436L335.009 204.512C335.876 204.742 336.718 205.099 337.458 205.583C338.197 206.068 338.835 206.68 339.32 207.419C339.855 208.311 339.702 209.408 338.963 210.096ZM357.456 284.802C357.737 280.009 357.737 275.419 357.558 271.11C361.231 269.478 366.945 266.521 370.465 262.62C372.736 263.844 373.807 278.504 357.456 284.802ZM335.596 244.262C336.616 244.95 337.84 245.333 339.09 245.358C340.315 245.435 341.539 245.205 342.687 244.721C343.784 244.185 344.753 243.395 345.467 242.401C346.207 241.381 346.641 240.208 346.717 238.959V238.933C346.743 238.551 347.1 238.245 347.482 238.27C347.814 238.296 348.095 238.551 348.146 238.857C348.401 240.463 348.044 242.12 347.202 243.497C346.794 244.185 346.258 244.823 345.671 245.358C343.835 246.99 341.36 247.73 338.937 247.373C338.146 247.271 337.381 247.041 336.641 246.71C335.902 246.378 335.213 245.868 334.677 245.256C334.422 244.95 334.448 244.517 334.754 244.262L334.779 244.236C335.034 244.033 335.391 244.007 335.672 244.185L335.596 244.262ZM390.821 240.208C390.387 240.31 389.979 240.029 389.877 239.596V239.571C389.852 239.443 389.852 239.29 389.903 239.163C394.086 225.802 405.718 226.618 405.845 226.618C406.279 226.644 406.611 227.026 406.585 227.46C406.534 227.893 406.151 228.224 405.718 228.199C405.31 228.173 395.234 227.51 391.433 239.647C391.331 239.953 391.102 240.157 390.821 240.208Z" fill="#232323"/>
<path d="M336.973 235.364C336.794 235.389 336.616 235.364 336.463 235.262C334.32 233.783 333.3 232.584 333.172 231.31C332.994 229.703 334.295 228.352 335.774 226.797C339.09 223.304 338.452 220.932 338.452 220.907C338.35 220.575 338.529 220.218 338.861 220.116C339.192 220.014 339.549 220.167 339.651 220.499C339.702 220.626 340.621 223.558 336.692 227.663C335.213 229.193 334.346 230.213 334.422 231.157C334.499 231.998 335.391 232.992 337.151 234.191C337.432 234.395 337.509 234.777 337.305 235.083C337.253 235.262 337.126 235.364 336.973 235.364Z" fill="#232323"/>
<path d="M348.987 175.369C350.212 177.282 351.13 179.372 351.717 181.565V181.591C351.819 182.049 351.513 182.508 351.053 182.61C350.977 182.636 350.926 182.636 350.849 182.636C350.441 182.636 350.084 182.355 350.008 181.947C349.982 181.871 348.732 175.675 343.682 172.233C343.911 171.647 344.141 171.086 344.396 170.55C346.156 171.672 347.635 173.253 348.987 175.369Z" fill="white"/>
<path d="M434.134 492.322C424.645 493.01 416.329 493.953 408.549 495.509C407.758 487.12 405.284 476.819 402.555 468.839C401.56 465.83 400.361 462.898 398.983 460.068C398.907 459.915 398.83 459.762 398.754 459.635C398.728 459.558 398.703 459.456 398.677 459.38C398.218 457.85 397.759 456.345 397.274 454.841C397.223 454.688 397.172 454.51 397.121 454.357C395.846 450.481 394.468 446.708 392.989 443.036L398.167 440.92H398.193L399.468 440.41L400.897 439.823L406.228 437.656L415.997 433.679L417.681 432.99C417.732 433.143 417.809 433.296 417.86 433.449C417.962 433.679 418.038 433.908 418.14 434.138L419.211 436.891C419.262 437.044 419.339 437.197 419.39 437.35C419.467 437.554 419.543 437.758 419.62 437.937C419.671 438.064 419.722 438.192 419.747 438.294C420.921 441.43 422.017 444.617 423.063 447.855L423.191 448.263C423.624 449.64 424.058 451.042 424.466 452.419C424.492 452.546 424.543 452.674 424.568 452.801L424.772 453.209C426.379 456.6 428.42 463.051 430.18 470.114C432.093 477.814 433.7 486.253 434.134 492.322Z" fill="#232323"/>
<path d="M431.787 437.809C433.751 446.504 424.721 456.524 411.355 459.533C397.989 462.541 385.388 457.416 383.423 448.722C381.459 440.027 390.693 430.517 404.034 427.508C417.375 424.5 429.823 429.115 431.787 437.809Z" fill="#232323"/>
<path d="M406.024 462.235C405.208 462.286 404.392 462.312 403.601 462.312C401.841 462.312 400.106 462.184 398.397 461.955C397.989 461.215 397.581 460.45 397.173 459.711C399.953 460.221 402.912 460.374 405.922 460.195C413.932 459.711 420.921 456.855 425.334 452.75C425.666 453.388 425.972 454 426.303 454.612C425.87 454.994 425.385 455.377 424.9 455.759C419.926 459.507 413.243 461.802 406.024 462.235Z" fill="white"/>
<path d="M385.188 445.415C383.513 437.997 391.925 429.78 403.977 427.06C416.03 424.341 427.158 428.15 428.833 435.567C430.508 442.985 422.096 451.203 410.044 453.922C397.991 456.642 386.863 452.833 385.188 445.415Z" fill="white"/>
<path d="M402.351 455.58C404.901 455.58 407.554 455.275 410.207 454.688C416.176 453.337 421.456 450.634 425.104 447.065C428.854 443.393 430.435 439.262 429.568 435.412L428.828 435.591L429.568 435.412C428.701 431.562 425.487 428.503 420.538 426.794C415.717 425.137 409.773 424.959 403.804 426.31C397.836 427.661 392.555 430.364 388.908 433.934C385.158 437.605 383.576 441.736 384.444 445.586C385.311 449.436 388.525 452.495 393.474 454.204C396.152 455.122 399.188 455.58 402.351 455.58ZM411.687 426.947C414.697 426.947 417.528 427.381 420.053 428.248C424.492 429.778 427.349 432.429 428.088 435.769C428.828 439.084 427.4 442.73 424.058 445.994C420.614 449.359 415.589 451.934 409.901 453.209C404.213 454.484 398.575 454.331 394.009 452.776C389.571 451.246 386.714 448.594 385.974 445.28C384.393 438.268 392.555 430.441 404.187 427.84C406.712 427.228 409.238 426.947 411.687 426.947Z" fill="#232323"/>
<path d="M409.136 447.243C409.238 447.243 409.365 447.218 409.493 447.192C410.105 447.014 410.437 446.351 410.233 445.764L408.013 438.676L419.645 434.903C420.257 434.699 420.589 434.061 420.385 433.449C420.181 432.837 419.543 432.506 418.931 432.71L406.228 436.815C405.641 437.019 405.309 437.656 405.488 438.243L408.064 446.402C408.192 446.937 408.651 447.243 409.136 447.243ZM553.589 421.976C553.87 421.976 554.125 421.823 554.278 421.568C554.482 421.185 554.329 420.726 553.972 420.522C541.932 414.174 521.755 409.788 497.114 408.207C479.947 407.111 461.963 407.493 447.883 409.151C454.744 407.136 464.438 404.638 475.33 402.572C489.563 399.87 510.021 397.065 526.729 399.156C527.137 399.207 527.52 398.901 527.571 398.493C527.622 398.085 527.315 397.702 526.907 397.651C495.15 393.674 448.98 406.55 438.751 410.553C438.394 410.706 438.19 411.088 438.292 411.471C438.394 411.853 438.776 412.083 439.159 412.006C453.852 409.253 476.018 408.386 496.986 409.737C521.423 411.318 541.396 415.627 553.232 421.874C553.334 421.95 553.461 421.976 553.589 421.976ZM356.614 506.906C356.844 506.906 357.073 506.804 357.226 506.6C361.078 501.551 368.782 494.642 368.858 494.565C369.164 494.285 369.19 493.8 368.909 493.494C368.629 493.188 368.144 493.163 367.838 493.443C367.506 493.724 359.956 500.506 356.002 505.682C355.747 506.013 355.798 506.498 356.155 506.753C356.283 506.855 356.436 506.906 356.614 506.906ZM341.207 503.158C341.462 503.158 341.692 503.03 341.845 502.801C345.62 497.013 354.344 489.797 355.798 488.727C356.13 488.472 356.206 487.987 355.951 487.656C355.696 487.324 355.211 487.248 354.88 487.503C353.4 488.625 344.447 495.993 340.569 501.985C340.34 502.342 340.442 502.801 340.799 503.056C340.927 503.132 341.054 503.158 341.207 503.158ZM326.387 497.982C326.642 497.982 326.872 497.854 327.025 497.65C330.443 492.679 340.187 483.882 342.942 481.766C343.273 481.511 343.324 481.026 343.069 480.695C342.814 480.364 342.33 480.313 341.998 480.567C339.447 482.531 329.422 491.429 325.775 496.809C325.545 497.166 325.622 497.625 325.979 497.88C326.081 497.956 326.234 497.982 326.387 497.982Z" fill="#232323"/>
</g>
<defs>
<clipPath id="clip0_1445_2410">
<rect width="264.96" height="209.28" fill="white" transform="matrix(-1 0 0 1 299.76 123.12)"/>
</clipPath>
<clipPath id="clip1_1445_2410">
<rect width="462.72" height="360.96" fill="white" transform="matrix(-1 0 0 1 565.68 161.04)"/>
</clipPath>
</defs>
</svg>
