<svg width="341" height="402" viewBox="0 0 341 402" fill="none" xmlns="http://www.w3.org/2000/svg">
<g clip-path="url(#clip0_1568_4318)">
<path d="M104.915 74.2331L96.2926 88.1682C94.8637 90.4774 91.8333 91.1914 89.5236 89.7626L82.2947 85.2897C76.5922 81.7809 71.7757 77.004 68.2205 71.3307C65.894 67.6038 64.3792 63.4289 63.7744 59.0777C61.7087 44.8014 60.4035 38.2317 59.9159 36.3929C55.689 27.5739 45.1136 23.8514 36.2947 28.0779C33.389 29.4707 30.9186 31.6296 29.149 34.3224C29.0614 34.4552 28.9758 34.5896 28.8922 34.7248C24.9933 41.0061 25.4057 49.0487 29.9266 54.898C31.3286 56.716 31.2798 59.2637 29.8098 61.0269L19.1984 73.8163C17.4708 75.9072 14.3755 76.2012 12.2851 74.4735C12.1311 74.3463 11.9847 74.2095 11.8474 74.0643C-1.70839 59.5773 -3.86483 37.8001 6.58656 20.9362C6.79336 20.6018 7.00336 20.2722 7.22017 19.9418C20.5388 -0.343001 47.7797 -5.9907 68.0648 7.32794C75.0102 11.888 80.5203 18.3237 83.9559 25.8887C84.832 27.7855 86.1556 30.6524 89.7252 55.3228C89.8136 56.048 90.0505 56.7476 90.4201 57.3776C91.8533 59.6601 93.7937 61.5813 96.0902 62.9917L103.319 67.4646C105.629 68.8926 106.344 71.9231 104.915 74.2331Z" fill="#D9C6F4"/>
<path d="M117.877 107.151L108.453 101.326C106.142 99.8979 105.426 96.8667 106.855 94.5558L115.472 80.6128C116.9 78.3019 119.931 77.5863 122.242 79.0147L131.667 84.8397C133.977 86.2677 134.693 89.2989 133.265 91.6098L124.647 105.553C123.219 107.863 120.188 108.579 117.877 107.151Z" fill="#D9C6F4"/>
</g>
<g clip-path="url(#clip1_1568_4318)">
<path d="M260.77 190.553L245.078 185.831C242.478 185.048 241.004 182.306 241.786 179.705L244.236 171.565C246.149 165.149 249.517 159.26 254.076 154.357C257.074 151.146 260.715 148.602 264.761 146.892C278.016 141.201 284.024 138.24 285.674 137.293C293.099 130.928 293.957 119.749 287.592 112.325C285.495 109.879 282.77 108.051 279.711 107.039C279.56 106.989 279.408 106.941 279.256 106.895C272.18 104.755 264.518 107.235 260.038 113.115C258.645 114.94 256.171 115.552 254.088 114.589L238.988 107.649C236.521 106.522 235.436 103.608 236.564 101.141C236.647 100.96 236.741 100.783 236.846 100.613C247.33 83.7694 267.807 76.0501 286.802 81.7807C287.178 81.8939 287.551 82.0114 287.926 82.1353C310.967 89.75 323.473 114.601 315.858 137.642C313.251 145.531 308.461 152.519 302.043 157.796C300.437 159.133 298.011 161.153 275.105 170.986C274.427 171.259 273.813 171.669 273.3 172.189C271.466 174.164 270.112 176.536 269.344 179.119L266.895 187.26C266.113 189.86 263.371 191.335 260.77 190.553Z" fill="#D9C6F4"/>
<path d="M232.329 211.593L235.516 200.982C236.297 198.38 239.04 196.905 241.642 197.686L257.34 202.401C259.942 203.183 261.418 205.925 260.636 208.527L257.449 219.138C256.667 221.74 253.925 223.216 251.323 222.434L235.625 217.719C233.023 216.937 231.547 214.195 232.329 211.593Z" fill="#D9C6F4"/>
</g>
<g clip-path="url(#clip2_1568_4318)">
<path d="M77.1443 354.08L65.9157 342.145C64.055 340.167 64.1496 337.055 66.1275 335.194L72.319 329.369C77.1842 324.769 83.0449 321.353 89.4451 319.387C93.6471 318.104 98.0718 317.722 102.431 318.264C116.756 319.963 123.439 320.403 125.342 320.408C134.954 318.608 141.287 309.356 139.487 299.744C138.894 296.577 137.448 293.632 135.305 291.225C135.199 291.106 135.091 290.989 134.983 290.873C129.924 285.481 122.049 283.798 115.229 286.651C113.11 287.535 110.662 286.828 109.339 284.952L99.732 271.392C98.1595 269.182 98.6767 266.116 100.886 264.544C101.049 264.428 101.219 264.322 101.395 264.227C118.897 254.883 140.49 258.436 154.074 272.896C154.344 273.183 154.608 273.471 154.871 273.766C171.017 291.881 169.422 319.655 151.307 335.802C145.105 341.33 137.462 344.987 129.266 346.348C127.207 346.703 124.095 347.239 99.3417 344.302C98.6183 344.2 97.8812 344.247 97.177 344.441C94.6014 345.235 92.2434 346.612 90.2867 348.465L84.0952 354.29C82.1181 356.152 79.0059 356.058 77.1443 354.08Z" fill="#D9C6F4"/>
<path d="M41.9933 358.081L50.059 350.485C52.0365 348.622 55.1496 348.716 57.012 350.694L68.2497 362.626C70.1122 364.603 70.0188 367.717 68.041 369.579L59.9753 377.175C57.9979 379.037 54.8847 378.944 53.0223 376.966L41.7847 365.034C39.9227 363.056 40.0159 359.943 41.9933 358.081Z" fill="#D9C6F4"/>
</g>
<defs>
<clipPath id="clip0_1568_4318">
<rect width="134" height="108" fill="white"/>
</clipPath>
<clipPath id="clip1_1568_4318">
<rect width="134" height="108" fill="white" transform="translate(305.32 70) rotate(75)"/>
</clipPath>
<clipPath id="clip2_1568_4318">
<rect width="134" height="108" fill="white" transform="translate(176.002 271.953) rotate(105)"/>
</clipPath>
</defs>
</svg>
