<svg width="46" height="42" viewBox="0 0 46 42" fill="none" xmlns="http://www.w3.org/2000/svg">
<g clip-path="url(#clip0_1481_3052)">
<g filter="url(#filter0_d_1481_3052)">
<path d="M1.62752 28.6936C1.64607 28.7243 1.6654 28.7534 1.68559 28.7841L1.71703 28.8325C1.77269 28.9164 1.82836 28.9979 1.88479 29.0778C1.90739 29.1101 1.93075 29.1424 1.95498 29.1731C1.97113 29.1957 1.98719 29.2183 2.0042 29.2409C2.01794 29.2595 2.0316 29.2772 2.04535 29.2957L3.88898 26.7372L4.23096 26.2627C4.17692 26.2231 4.03012 26.0932 3.88898 25.9657C3.75352 25.8438 3.62449 25.7244 3.59056 25.6937L3.58249 25.6856C2.57674 24.6548 1.94038 23.3198 1.7727 21.889C1.65819 20.8745 0.995283 20.4112 0.52746 21.8018C-0.219375 24.0254 0.388634 26.7316 1.62752 28.6936Z" fill="white"/>
<path d="M2.04548 29.4973C2.04591 29.4973 2.04626 29.4973 2.04669 29.4973C2.11103 29.4969 2.17142 29.4659 2.20904 29.4136L4.39456 26.3806C4.45933 26.2907 4.4394 26.1655 4.35015 26.1001C4.33572 26.0895 4.26949 26.0377 4.02433 25.8161C3.92777 25.7292 3.83483 25.6439 3.77727 25.5911L3.72521 25.5431C2.75761 24.5513 2.13473 23.2447 1.97315 21.8655C1.89996 21.2166 1.61743 20.7717 1.25355 20.7331C0.998334 20.7062 0.632478 20.8582 0.336717 21.7375C-0.36751 23.8343 0.0720444 26.6062 1.45645 28.7997C1.47388 28.8284 1.49193 28.8559 1.51074 28.8845L1.54828 28.9422C1.60816 29.0324 1.66408 29.1143 1.72052 29.1941C1.7438 29.2274 1.76845 29.2615 1.79388 29.294C1.81003 29.3166 1.82618 29.3391 1.8431 29.3617L1.88347 29.4155C1.92135 29.4671 1.98148 29.4973 2.04548 29.4973ZM3.95784 26.2971L2.04385 28.9533C1.99016 28.8772 1.93768 28.8002 1.88528 28.7211L1.84731 28.6628C1.83107 28.6381 1.81535 28.6143 1.80023 28.5894C1.79955 28.5882 1.79885 28.5871 1.79817 28.5861C0.4751 26.4907 0.0514374 23.8529 0.718726 21.866C0.920253 21.2669 1.12856 21.1243 1.21077 21.134C1.32261 21.146 1.51495 21.4013 1.57259 21.9116C1.74457 23.3796 2.40713 24.7695 3.43838 25.8264L3.44818 25.8362C3.4505 25.8385 3.4529 25.8409 3.45539 25.8431L3.50461 25.8882C3.56277 25.9416 3.65692 26.028 3.75433 26.1156C3.84195 26.1949 3.90801 26.2535 3.95784 26.2971Z" fill="#232323"/>
<path d="M28.5932 29.6637C31.6753 28.7275 34.3637 29.1278 35.3007 29.3883C36.5452 29.7343 36.7337 31.2258 37.7459 31.2551C39.0893 31.2941 39.195 28.5684 38.1541 26.8716C36.4086 24.0454 31.6202 24.0454 31.6202 24.0454C31.6202 24.0454 26.6523 29.954 28.5932 29.6637Z" fill="#232323"/>
<path d="M33.3124 1.20622C34.5041 1.36028 34.0145 2.55936 34.6085 3.08351C35.4908 3.86255 31.6902 6.39561 28.8083 7.33284C26.3493 8.13277 23.7471 7.54268 22.7944 4.87827C21.743 1.93841 23.5606 0.717236 25.3773 1.16866C26.6401 1.48253 30.8908 1.71825 33.3124 1.20622Z" fill="#232323"/>
<path d="M4.71119 38.1987C11.5042 43.4884 20.515 40.7645 23.5618 39.0502C23.6175 39.0195 23.6707 38.9889 23.7223 38.9583C23.7892 38.9179 23.8537 38.8792 23.9175 38.8388C23.9182 38.8381 23.9199 38.8372 23.9207 38.8364C24.3804 39.7226 25.7063 41.0222 27.5741 40.1778C28.8274 39.2046 27.3434 39.1794 28.2443 33.4272C29.896 25.6621 32.7211 24.1286 35.776 20.575C41.3173 16.3022 44.6328 12.0682 44.8207 9.56537V9.56374C44.8554 9.10286 44.761 8.75581 44.5207 8.55808C44.2773 8.36336 43.9848 8.23991 43.6755 8.20131H43.6747C42.9505 8.08835 41.9948 8.28367 40.9166 8.73801C41.8223 7.12869 41.2318 2.6463 38.0194 1.28568C35.576 0.250711 33.4317 0.472506 29.3904 2.98097C24.3015 6.13996 14.306 16.6395 14.0124 16.9244C9.15981 21.6427 6.0243 23.5766 3.8605 25.947C3.79358 26.0196 3.72263 26.0891 3.66292 26.1673C2.24974 28.0179 -0.845486 33.4449 4.71119 38.1987Z" fill="white"/>
<path d="M14.2416 41.4966C14.6745 41.4966 15.1122 41.4818 15.5549 41.452C19.0329 41.2183 22.0951 40.1067 23.6608 39.2259C23.7169 39.195 23.7719 39.1632 23.8254 39.1315L23.8394 39.1231C23.8426 39.1212 23.8457 39.1193 23.8489 39.1174C24.4012 40.0116 25.7616 41.2182 27.6572 40.3615C27.6716 40.355 27.6853 40.3467 27.6977 40.337C28.3906 39.7989 28.3475 39.4436 28.253 38.6652C28.151 37.8249 27.9803 36.4188 28.4426 33.4638C29.7647 27.2528 31.816 25.0962 34.191 22.5995C34.7506 22.0113 35.329 21.4033 35.9154 20.722C38.5881 18.6596 40.8517 16.52 42.4625 14.5333C44.0395 12.5884 44.9245 10.8757 45.0217 9.58034C45.0219 9.57801 45.022 9.5756 45.0222 9.57328C45.0618 9.03271 44.9362 8.63881 44.6488 8.40231C44.3741 8.18249 44.0469 8.04443 43.7006 8.00118C43.7001 8.00118 43.6998 8.0011 43.6994 8.0011C43.0565 7.90249 42.2317 8.03084 41.2933 8.37317C41.6244 7.37001 41.5631 5.88679 41.1073 4.55093C40.5477 2.91049 39.479 1.68492 38.0981 1.1C36.7467 0.527534 35.5658 0.375115 34.2688 0.606026C32.8968 0.850175 31.3129 1.55038 29.2842 2.80964C25.2123 5.33728 18.0489 12.4742 14.1414 16.5034C13.9982 16.6511 13.8948 16.7577 13.8721 16.7797C11.3285 19.2529 9.2334 20.9794 7.54989 22.3667C5.98466 23.6565 4.74836 24.6753 3.7116 25.811C3.69528 25.8287 3.67801 25.8469 3.66074 25.8651C3.60783 25.921 3.5531 25.9787 3.50259 26.0449C2.95557 26.7614 1.65295 28.6855 1.37325 31.0708C1.05249 33.8071 2.13142 36.2568 4.58024 38.3518C4.58256 38.3538 4.58496 38.3558 4.58746 38.3577C7.23909 40.4226 10.5553 41.4966 14.2416 41.4966ZM23.8036 38.6722C23.7473 38.7078 23.6901 38.7422 23.6312 38.7777L23.6182 38.7856C23.5695 38.8145 23.5183 38.844 23.4646 38.8737C21.9341 39.7347 18.9385 40.8206 15.5278 41.0499C12.6615 41.2428 8.48115 40.8772 4.83864 38.0425C2.50064 36.0409 1.46946 33.7112 1.77356 31.1178C2.04157 28.8317 3.29609 26.9797 3.82292 26.2896C3.86046 26.2405 3.90548 26.1928 3.95324 26.1425C3.9718 26.1229 3.99026 26.1033 4.00856 26.0836C5.02667 24.9683 6.25319 23.9576 7.80613 22.6779C9.49531 21.2859 11.5976 19.5535 14.1528 17.0689C14.1786 17.0438 14.2566 16.9635 14.4306 16.784C23.5041 7.42804 27.7646 4.22735 29.4965 3.15214C33.2608 0.815697 35.3915 0.391446 37.9406 1.47121C39.2144 2.01074 40.2035 3.15068 40.7256 4.68109C41.216 6.11865 41.2224 7.78326 40.7408 8.63907C40.6985 8.71421 40.7087 8.80782 40.7661 8.87213C40.8234 8.93652 40.9153 8.95715 40.9947 8.92371C42.0559 8.4765 42.9718 8.29554 43.6435 8.40042C43.6476 8.40103 43.6515 8.40154 43.6555 8.40197C43.9261 8.43661 44.1815 8.54502 44.3947 8.71549C44.5737 8.86275 44.65 9.14361 44.6195 9.54861C44.6194 9.55085 44.6193 9.55308 44.6191 9.55532C44.4235 12.1036 40.905 16.3654 35.6527 20.4153C35.6419 20.4238 35.6319 20.4332 35.623 20.4436C35.0385 21.1235 34.459 21.7326 33.8987 22.3217C31.4809 24.8634 29.3928 27.0585 28.0469 33.3853C28.0462 33.3888 28.0456 33.3924 28.045 33.396C27.5729 36.4102 27.748 37.8522 27.8525 38.7138C27.9426 39.4552 27.9622 39.6167 27.4692 40.0038C25.7233 40.778 24.5023 39.5202 24.0995 38.7435C24.0699 38.6864 24.0149 38.647 23.9514 38.6371C23.8992 38.629 23.8461 38.6419 23.8036 38.6722ZM23.9208 38.8363H23.9201H23.9208ZM4.71124 38.1986H4.71055H4.71124Z" fill="#232323"/>
<path d="M44.384 9.56909C43.7924 9.40599 43.5156 8.53685 43.7659 7.62781C44.0161 6.71878 44.6986 6.11408 45.2901 6.27718C45.8817 6.44029 46.1585 7.30943 45.9082 8.21846C45.658 9.1275 44.9755 9.73219 44.384 9.56909Z" fill="#232323"/>
<path d="M38.422 9.6896C37.9687 9.51137 37.7823 8.90559 38.0057 8.33655C38.2291 7.76752 38.7777 7.45071 39.231 7.62894C39.6843 7.80717 39.8707 8.41295 39.6473 8.98199C39.4239 9.55102 38.8753 9.86784 38.422 9.6896Z" fill="#232323"/>
<path d="M28.3592 7.14743C30.3874 6.6508 31.1532 5.38792 32.4606 5.81888C34.4031 6.45943 33.1353 11.6381 29.1728 15.1086C25.7916 18.07 21.1667 19.4223 17.8864 15.3044C14.2336 10.7183 17.0281 7.67847 19.3804 7.31061C21.3858 6.99708 24.3961 8.56153 28.3592 7.14743Z" fill="#232323"/>
<path d="M3.86026 25.9467C6.19989 28.0823 10.5976 28.531 13.8203 25.5423C16.3309 23.2122 16.3656 19.0669 14.0122 16.9241C9.15991 21.6424 6.02405 23.5762 3.86026 25.9467Z" fill="#232323"/>
<path d="M38.6696 13.835C38.9887 13.835 39.3473 13.7393 39.7108 13.546C39.8092 13.4938 39.8465 13.3718 39.7943 13.2734C39.742 13.1751 39.62 13.1378 39.5217 13.19C38.9154 13.5121 38.3522 13.5156 38.0868 13.1984C37.8742 12.9443 38.0352 12.428 38.2377 12.0631C38.2917 11.9658 38.2566 11.843 38.1593 11.789C38.0619 11.735 37.9392 11.7702 37.8852 11.8674C37.7507 12.1097 37.3456 12.9406 37.7777 13.4571C37.9876 13.7082 38.3026 13.835 38.6696 13.835Z" fill="#232323"/>
<path d="M23.9175 38.8389C23.3303 37.0181 23.1147 34.9911 23.0686 33.2068C22.9988 30.509 23.3164 28.366 23.3223 28.3296" fill="white"/>
<path d="M23.9179 39.0404C23.9385 39.0404 23.9592 39.0373 23.9799 39.0306C24.0858 38.9965 24.144 38.8829 24.1098 38.7769C23.6084 37.2221 23.3261 35.3463 23.2707 33.2016C23.2009 30.5032 23.5187 28.3818 23.5219 28.3611C23.5391 28.2513 23.4641 28.148 23.3542 28.1306C23.244 28.1134 23.1413 28.1881 23.1238 28.2978C23.1204 28.3186 22.7972 30.4893 22.8676 33.212C22.924 35.3952 23.2129 37.3092 23.7262 38.9007C23.7536 38.986 23.8328 39.0404 23.9179 39.0404Z" fill="#232323"/>
<path d="M23.0591 34.2837C23.0591 34.2837 19.4887 34.0052 16.4381 35.0137C17.6919 33.661 17.9946 31.982 17.4272 29.7095" fill="white"/>
<path d="M16.4378 35.2155C16.4589 35.2155 16.4802 35.2121 16.501 35.2052C19.4637 34.2258 22.8984 34.4737 23.0432 34.4848C23.0993 34.4889 23.1546 34.4699 23.1957 34.4317C23.2545 34.3772 23.2754 34.2931 23.249 34.2174C23.2226 34.1417 23.1538 34.0889 23.0739 34.0828L23.0586 34.2838L23.0738 34.0828C22.936 34.0724 19.8828 33.852 17.0107 34.6316C17.9455 33.3264 18.1384 31.7277 17.6223 29.6608C17.5953 29.5527 17.4857 29.4872 17.3779 29.5141C17.2699 29.5411 17.2042 29.6504 17.2312 29.7585C17.7818 31.9636 17.4827 33.59 16.2899 34.8768C16.2274 34.9443 16.2184 35.0455 16.2682 35.1229C16.306 35.1817 16.3706 35.2154 16.4378 35.2155Z" fill="#232323"/>
</g>
</g>
<defs>
<filter id="filter0_d_1481_3052" x="-3.99463" y="0.502686" width="53.9951" height="48.9939" filterUnits="userSpaceOnUse" color-interpolation-filters="sRGB">
<feFlood flood-opacity="0" result="BackgroundImageFix"/>
<feColorMatrix in="SourceAlpha" type="matrix" values="0 0 0 0 0 0 0 0 0 0 0 0 0 0 0 0 0 0 127 0" result="hardAlpha"/>
<feOffset dy="4"/>
<feGaussianBlur stdDeviation="2"/>
<feComposite in2="hardAlpha" operator="out"/>
<feColorMatrix type="matrix" values="0 0 0 0 0 0 0 0 0 0 0 0 0 0 0 0 0 0 0.25 0"/>
<feBlend mode="normal" in2="BackgroundImageFix" result="effect1_dropShadow_1481_3052"/>
<feBlend mode="normal" in="SourceGraphic" in2="effect1_dropShadow_1481_3052" result="shape"/>
</filter>
<clipPath id="clip0_1481_3052">
<rect width="46" height="41.0307" fill="white" transform="matrix(-1 0 0 1 46 0.484619)"/>
</clipPath>
</defs>
</svg>
