<svg width="600" height="600" viewBox="0 0 600 600" fill="none" xmlns="http://www.w3.org/2000/svg">
<g clip-path="url(#clip0_1481_3140)">
<path d="M534.316 315.256L220.626 491.07C213.209 495.226 203.825 492.585 199.669 485.167L68.5989 251.306L59.5377 235.141C55.382 227.725 58.0246 218.344 65.4419 214.185L379.134 38.3717C386.552 34.215 395.933 36.8561 400.091 44.2743L409.2 60.5275L540.222 294.3C544.379 301.716 541.734 311.099 534.316 315.256Z" fill="white"/>
<path d="M534.958 316.272L534.903 316.303L221.213 492.116C217.346 494.284 212.866 494.815 208.599 493.614C204.332 492.412 200.789 489.621 198.622 485.754L67.5522 251.893L58.4909 235.728C54.0281 227.764 56.8616 217.657 64.8045 213.167L64.8553 213.138L378.548 37.3247C386.53 32.8513 396.664 35.7053 401.139 43.6871L410.247 59.9404L541.27 293.713C543.437 297.579 543.967 302.058 542.765 306.325C541.568 310.572 538.797 314.102 534.958 316.272ZM65.9854 215.256C59.1909 219.097 56.7676 227.742 60.585 234.554L69.6463 250.719L200.716 484.58C202.569 487.888 205.6 490.276 209.25 491.304C212.9 492.331 216.732 491.876 220.04 490.023L533.73 314.209L533.777 314.183C537.06 312.326 539.431 309.307 540.454 305.675C541.483 302.025 541.029 298.194 539.176 294.887L408.153 61.1142L399.045 44.8609C395.218 38.0337 386.549 35.5921 379.721 39.4186L66.0289 215.232L65.9854 215.256Z" fill="#D9C6F4"/>
<path d="M409.9 60.5227L69.2996 251.301L60.2385 235.136C56.0825 227.72 58.7251 218.339 66.1426 214.18L379.835 38.3671C387.252 34.2103 396.634 36.8514 400.792 44.2696L409.9 60.5227Z" fill="#D9C6F4"/>
<path d="M388.151 57.9254C390.444 56.6294 391.252 53.7206 389.956 51.4284C388.66 49.1362 385.751 48.3286 383.459 49.6246C381.166 50.9206 380.358 53.8294 381.654 56.1216C382.95 58.4138 385.858 59.2214 388.151 57.9254Z" fill="white"/>
<path d="M374.004 65.8607C376.296 64.5647 377.104 61.6559 375.809 59.3637C374.513 57.0715 371.604 56.2639 369.311 57.5599C367.019 58.8559 366.211 61.7647 367.506 64.0569C368.802 66.3491 371.711 67.1567 374.004 65.8607Z" fill="white"/>
<path d="M359.856 73.7962C362.149 72.5002 362.957 69.5914 361.661 67.2992C360.365 65.007 357.456 64.1995 355.164 65.4954C352.871 66.7914 352.063 69.7002 353.359 71.9924C354.655 74.2846 357.564 75.0922 359.856 73.7962Z" fill="white"/>
</g>
<g clip-path="url(#clip1_1481_3140)">
<path d="M231.926 58.0968C231.926 58.0968 218.464 74.5871 202.807 83.72C194.42 88.6117 180.21 92.1059 158.313 93.5036C132.819 95.1307 118.245 111.207 119.177 132.171C119.818 146.607 126.165 157.096 115.449 176.43C102.467 199.853 114.983 230.239 147.642 239.438C147.642 239.438 268.849 96.1257 250.795 57.1648L231.926 58.0968Z" fill="#232323"/>
<path d="M421.317 152.204C426.147 142.776 417.354 148.558 411.696 154.76C411.437 146.457 410.84 138.115 409.669 129.842C406.175 105.151 403.147 120.758 403.147 120.758C403.147 120.758 400.351 115.167 398.022 131.007C395.869 145.643 396.857 155.465 396.857 155.465C396.857 155.465 389.635 164.783 382.647 189.941L288.534 212.536L284.573 244.848C306.937 253.3 338.026 253.665 377.289 222.086C394.785 208.014 406.641 191.804 410.601 175.032C415.94 163.394 419.361 156.023 421.317 152.204Z" fill="white"/>
<path d="M310.862 250.433C301.845 250.433 292.992 248.798 284.319 245.52C284.168 245.463 284.041 245.357 283.958 245.219C283.875 245.082 283.84 244.92 283.86 244.76L287.821 212.448C287.839 212.303 287.9 212.167 287.998 212.057C288.095 211.948 288.224 211.871 288.366 211.837L382.068 189.341C388.471 166.454 394.962 156.848 396.118 155.255C395.98 153.535 395.37 144.099 397.311 130.902C398.089 125.61 399.291 119.487 401.696 119.101C402.087 119.039 402.439 119.13 402.741 119.299C403.212 117.5 404.098 115.174 405.533 115.174C405.545 115.174 405.556 115.174 405.568 115.174C406.586 115.2 407.38 116.252 408.143 118.585C408.914 120.941 409.666 124.694 410.381 129.742C411.396 136.915 412.044 144.55 412.356 153.033C415.272 150.107 420.724 145.359 422.785 146.787C423.864 147.535 423.608 149.307 421.956 152.532C420.006 156.34 416.565 163.754 411.284 175.267C407.368 191.763 395.77 208.144 377.739 222.646C354.739 241.145 332.343 250.432 310.862 250.433ZM285.355 244.373C297.979 249.04 311.133 250.184 324.466 247.772C341.366 244.714 358.987 235.884 376.839 221.526C394.643 207.206 406.076 191.072 409.902 174.867C409.913 174.821 409.928 174.776 409.948 174.732C415.255 163.163 418.711 155.715 420.677 151.876C422.355 148.601 421.958 147.961 421.954 147.955C421.228 147.586 416.712 150.326 412.226 155.243C412.13 155.349 412.004 155.424 411.865 155.457C411.726 155.491 411.58 155.483 411.446 155.433C411.312 155.383 411.196 155.295 411.112 155.179C411.029 155.063 410.982 154.924 410.977 154.781C410.694 145.666 410.033 137.541 408.958 129.942C407.227 117.717 405.755 116.698 405.532 116.613C405.061 116.786 404.25 118.847 403.852 120.894C403.823 121.041 403.749 121.176 403.64 121.279C403.531 121.382 403.392 121.448 403.244 121.468C403.095 121.489 402.944 121.462 402.811 121.392C402.678 121.322 402.571 121.213 402.504 121.079C402.381 120.841 402.087 120.492 401.922 120.52C401.75 120.549 400.206 121.087 398.732 131.111C396.619 145.477 397.561 155.296 397.571 155.394C397.589 155.577 397.537 155.76 397.424 155.905C394.952 159.108 388.825 170.383 383.339 190.133C383.304 190.256 383.238 190.368 383.145 190.457C383.053 190.546 382.939 190.609 382.814 190.639L289.186 213.118L285.355 244.373Z" fill="#232323"/>
<mask id="mask0_1481_3140" style="mask-type:alpha" maskUnits="userSpaceOnUse" x="284" y="115" width="139" height="135">
<path d="M421.317 152.204C426.147 142.776 417.354 148.558 411.696 154.76C411.437 146.457 410.84 138.115 409.669 129.842C406.175 105.151 403.147 120.758 403.147 120.758C403.147 120.758 400.351 115.167 398.022 131.007C395.869 145.643 396.857 155.465 396.857 155.465C396.857 155.465 389.635 164.783 382.647 189.941L288.534 212.536L284.573 244.848C306.937 253.3 338.026 253.665 377.289 222.086C394.785 208.014 406.641 191.804 410.601 175.032C415.94 163.394 419.361 156.023 421.317 152.204Z" fill="white"/>
</mask>
<g mask="url(#mask0_1481_3140)">
<path d="M409.786 179.362C409.679 179.362 409.573 179.338 409.476 179.291C409.379 179.245 409.294 179.178 409.226 179.094C409.159 179.011 409.111 178.913 409.087 178.809C409.062 178.704 409.061 178.595 409.084 178.49C410.887 170.193 410.889 164.374 410.89 157.636C410.89 155.724 410.891 153.747 410.931 151.609C410.933 151.514 410.953 151.421 410.991 151.335C411.029 151.248 411.083 151.17 411.151 151.105C411.219 151.039 411.299 150.988 411.387 150.953C411.475 150.919 411.569 150.902 411.663 150.904C411.757 150.906 411.85 150.926 411.937 150.964C412.023 151.002 412.101 151.056 412.167 151.124C412.232 151.192 412.284 151.272 412.318 151.36C412.353 151.448 412.369 151.541 412.368 151.636C412.328 153.761 412.327 155.731 412.327 157.636C412.325 164.457 412.324 170.348 410.488 178.796C410.453 178.956 410.364 179.099 410.237 179.202C410.109 179.305 409.95 179.361 409.786 179.362ZM406.058 148.148C405.869 148.148 405.688 148.073 405.553 147.94C405.419 147.807 405.342 147.626 405.34 147.437C405.338 147.236 405.068 127.196 401.661 118.337C401.593 118.159 401.599 117.962 401.676 117.788C401.754 117.614 401.897 117.478 402.074 117.41C402.252 117.342 402.449 117.347 402.623 117.424C402.797 117.501 402.933 117.644 403.002 117.821C406.502 126.921 406.768 146.588 406.777 147.421C406.778 147.515 406.761 147.609 406.726 147.697C406.691 147.784 406.639 147.864 406.573 147.931C406.507 147.999 406.428 148.053 406.341 148.09C406.255 148.127 406.161 148.147 406.067 148.148H406.058Z" fill="#232323"/>
</g>
<path d="M294.59 240.488C294.59 240.488 291.338 242.392 284.68 243.975L288.533 212.536L294.59 240.488Z" fill="#F4ADA2"/>
<path d="M254.057 348.339C254.057 348.339 267.568 372.798 272.926 398.654C278.284 424.51 274.63 433.766 265.238 434.76C255.846 435.753 235.886 425.209 254.057 348.339Z" fill="#232323"/>
<path d="M264.139 435.534C261.714 435.534 257.504 434.8 253.71 430.493C246.585 422.402 240.74 401.553 253.357 348.174C253.39 348.033 253.466 347.905 253.573 347.807C253.681 347.71 253.815 347.647 253.959 347.627C254.102 347.608 254.249 347.632 254.378 347.697C254.508 347.762 254.615 347.865 254.685 347.992C254.821 348.237 268.31 372.842 273.629 398.508C277.153 415.514 276.972 425.931 273.059 431.29C271.268 433.744 268.734 435.112 265.313 435.474C264.997 435.507 264.6 435.534 264.139 435.534ZM254.32 350.367C249.112 372.857 246.825 391.333 247.52 405.308C248.08 416.549 250.525 424.703 254.788 429.543C258.86 434.166 263.398 434.233 265.162 434.045C268.157 433.729 270.36 432.551 271.899 430.443C275.505 425.504 275.611 415.153 272.222 398.8C267.744 377.19 257.416 356.32 254.32 350.367ZM364.438 482.858C364.438 482.858 339.064 491.452 315.779 483.371C292.494 475.291 267.102 480.881 264.772 492.994C262.443 505.107 285.196 530.956 364.438 482.858Z" fill="#232323"/>
<path d="M289.951 511.591C280.462 511.591 274.521 509.105 270.956 506.626C264.747 502.309 263.364 496.511 264.067 492.859C264.75 489.303 267.326 486.145 271.515 483.728C282.014 477.67 300.312 477.244 316.014 482.693C322.575 484.97 333.574 487.293 348.718 485.436C357.801 484.322 364.144 482.198 364.207 482.177C364.375 482.121 364.558 482.128 364.72 482.197C364.883 482.267 365.014 482.394 365.089 482.554C365.164 482.715 365.177 482.897 365.125 483.066C365.074 483.236 364.962 483.38 364.811 483.472C340.479 498.241 319.42 507.302 302.22 510.404C297.588 511.239 293.518 511.591 289.951 511.591ZM293.288 480.302C285.128 480.302 277.611 481.869 272.234 484.973C268.417 487.175 266.08 489.996 265.478 493.13C264.857 496.359 266.133 501.523 271.777 505.446C279.161 510.581 302.298 518.581 359.535 484.95C356.037 485.781 352.496 486.418 348.928 486.857C340.41 487.906 327.703 488.269 315.544 484.05C308.322 481.544 300.55 480.302 293.288 480.302Z" fill="#232323"/>
<path d="M367.959 502.235L325.3 510.165C323.458 505.044 321.622 500.437 319.814 496.326C317.049 490.034 314.356 484.907 311.829 480.882H364.031C364.031 480.882 364.18 481.581 364.439 482.857C365.105 486.16 366.505 493.332 367.959 502.235Z" fill="white"/>
<path d="M372.403 541.206C372.403 541.206 339.354 557.458 332.329 532.361C330.018 524.101 327.656 516.715 325.3 510.167V510.165L367.959 502.235V502.238C369.855 513.859 371.84 528.434 372.403 541.206Z" fill="#D9C6F4"/>
<path d="M328.126 517.889L369.266 510.963L369.663 513.325L328.524 520.25L328.126 517.889Z" fill="white"/>
<path d="M351.501 547.089C347.133 547.089 343.973 546.211 341.823 545.25C336.793 543.001 333.366 538.73 331.637 532.554C329.423 524.642 327.064 517.191 324.625 510.41C324.621 510.399 324.618 510.388 324.614 510.378C322.831 505.424 320.995 500.794 319.157 496.614C316.521 490.617 313.851 485.452 311.221 481.264C311.152 481.155 311.115 481.03 311.111 480.902C311.108 480.773 311.138 480.646 311.201 480.534C311.263 480.422 311.354 480.328 311.464 480.263C311.575 480.198 311.701 480.163 311.829 480.163H364.032C364.196 480.163 364.356 480.22 364.483 480.323C364.611 480.426 364.7 480.571 364.734 480.732C364.734 480.732 364.884 481.433 365.143 482.714C365.842 486.179 367.229 493.307 368.668 502.119L368.672 502.142C370.378 512.604 372.534 527.86 373.122 541.174C373.128 541.313 373.093 541.452 373.022 541.572C372.951 541.692 372.847 541.789 372.721 541.85C372.534 541.942 368.076 544.118 362.033 545.65C357.934 546.69 354.443 547.089 351.501 547.089ZM325.987 509.953C328.435 516.759 330.801 524.233 333.021 532.168C334.629 537.912 337.788 541.872 342.409 543.938C353.201 548.762 368.898 542.025 371.664 540.759C371.05 527.62 368.93 512.652 367.25 502.353L367.247 502.33C365.813 493.551 364.431 486.451 363.735 482.999C363.614 482.402 363.517 481.931 363.448 481.6H313.116C315.563 485.639 318.034 490.488 320.472 496.036C322.327 500.254 324.179 504.925 325.977 509.921L325.987 509.953Z" fill="#232323"/>
<path d="M271.528 397.955C271.528 397.955 266.443 398.824 258.522 399.856C257.665 399.968 256.773 400.082 255.85 400.196C250.588 400.854 245.315 401.418 240.033 401.89C228.285 402.933 214.879 403.618 202.84 402.998C172.756 401.449 194.146 368.952 194.146 368.952C200.783 366.574 208.505 364.223 217.008 361.283C224.39 358.73 232.357 355.733 240.704 351.882C242.056 351.26 243.401 350.622 244.739 349.97C244.738 349.97 266.869 386.308 271.528 397.955Z" fill="white"/>
<path d="M240.964 401.657C229.217 402.7 215.81 403.385 203.771 402.765C173.688 401.216 195.077 368.719 195.077 368.719C201.714 366.34 209.437 363.99 217.939 361.05L240.964 401.657Z" fill="black"/>
<mask id="mask1_1481_3140" style="mask-type:alpha" maskUnits="userSpaceOnUse" x="190" y="364" width="58" height="47">
<path d="M247.099 389.656C237.18 396.036 225.625 402.868 214.675 407.91C187.314 420.508 191.164 381.795 191.164 381.795C195.937 376.607 201.684 370.94 207.849 364.388L247.099 389.656Z" fill="white"/>
</mask>
<g mask="url(#mask1_1481_3140)">
<path d="M208.477 364.425L210.598 363.313L230.85 401.93L228.729 403.042L208.477 364.425Z" fill="white"/>
</g>
<path d="M212.572 403.953C209.135 403.953 205.876 403.874 202.802 403.716C194.947 403.311 189.783 400.774 187.454 396.174C182.26 385.912 193.082 369.261 193.546 368.557C193.631 368.427 193.757 368.328 193.903 368.276C197.461 367.001 201.342 365.73 205.451 364.385C209.074 363.198 212.821 361.971 216.773 360.605C225.788 357.487 233.297 354.508 240.403 351.23C241.75 350.61 243.09 349.975 244.423 349.324C244.584 349.246 244.768 349.23 244.94 349.281C245.112 349.331 245.259 349.443 245.352 349.596C246.257 351.082 267.567 386.119 272.195 397.689C272.235 397.788 272.252 397.895 272.245 398.002C272.238 398.109 272.207 398.213 272.155 398.307C272.103 398.4 272.03 398.481 271.942 398.542C271.855 398.604 271.755 398.646 271.649 398.664C271.598 398.672 266.459 399.547 258.615 400.569C257.756 400.681 256.863 400.795 255.938 400.909C250.668 401.568 245.387 402.134 240.096 402.605C229.995 403.502 220.778 403.953 212.572 403.953ZM194.619 369.546C193.414 371.455 184.203 386.575 188.737 395.526C190.817 399.632 195.574 401.905 202.876 402.281C213.224 402.814 225.703 402.441 239.969 401.174C245.144 400.714 250.457 400.146 255.761 399.483C256.683 399.369 257.573 399.255 258.429 399.144C264.356 398.372 268.729 397.685 270.518 397.394C265.649 385.988 247.204 355.423 244.463 350.902C243.316 351.457 242.162 352.002 241.004 352.534C233.855 355.832 226.304 358.828 217.242 361.962C213.279 363.333 209.527 364.561 205.898 365.75C201.888 367.063 198.095 368.305 194.619 369.546Z" fill="#232323"/>
<path d="M200.14 465.24C195.495 464.545 187.73 459.556 180.732 446.875L146.698 385.201C168.796 375.593 186.733 371.866 197.739 367.644C199.956 374.767 195.598 377.717 197.298 384.806C199.268 393.018 202.165 393.455 206.385 413.422C206.453 413.744 206.54 414.058 206.617 414.374C206.639 414.463 206.661 414.548 206.681 414.635C208.107 420.643 208.805 426.128 208.995 431.083C209.807 452.467 201.116 464.01 200.217 465.148C200.217 465.148 200.218 465.15 200.216 465.151C200.195 465.177 200.177 465.197 200.164 465.212L200.14 465.24Z" fill="white"/>
<path d="M200.138 465.958C200.103 465.958 200.068 465.956 200.033 465.951C194.977 465.194 187.085 459.877 180.102 447.223L146.068 385.548C146.02 385.461 145.991 385.364 145.982 385.264C145.973 385.165 145.985 385.064 146.017 384.97C146.05 384.875 146.101 384.788 146.169 384.715C146.237 384.641 146.319 384.582 146.411 384.543C160.655 378.349 173.162 374.597 183.212 371.582C188.773 369.913 193.575 368.472 197.481 366.974C197.573 366.939 197.671 366.923 197.769 366.927C197.867 366.931 197.964 366.955 198.052 366.998C198.14 367.041 198.219 367.102 198.283 367.176C198.347 367.251 198.395 367.338 198.425 367.431C199.632 371.309 198.978 374.038 198.346 376.676C197.766 379.1 197.217 381.389 197.997 384.639C198.72 387.655 199.583 389.628 200.583 391.913C202.299 395.836 204.435 400.719 207.088 413.274C207.123 413.437 207.183 413.689 207.263 414.024C207.848 416.457 209.4 422.922 209.713 431.056C210.525 452.441 201.911 464.152 200.804 465.563C200.776 465.601 200.746 465.638 200.715 465.673L200.693 465.699C200.624 465.78 200.54 465.845 200.444 465.89C200.348 465.935 200.243 465.958 200.138 465.958ZM147.709 385.546L181.361 446.529C187.9 458.379 195.109 463.53 199.84 464.459C201.403 462.379 209.038 451.141 208.277 431.11C207.97 423.119 206.441 416.755 205.866 414.359C205.802 414.097 205.74 413.834 205.682 413.57C203.059 401.16 200.956 396.352 199.266 392.489C198.239 390.141 197.353 388.113 196.6 384.973C195.74 381.389 196.354 378.822 196.949 376.341C197.519 373.962 198.059 371.705 197.261 368.592C193.447 370.011 188.872 371.383 183.625 372.958C173.783 375.911 161.575 379.574 147.709 385.546Z" fill="#232323"/>
<path d="M193.341 392.467C193.228 392.468 193.117 392.441 193.016 392.39C192.915 392.339 192.828 392.264 192.761 392.173C188.855 386.836 186.896 385.983 182.993 384.285C181.945 383.829 180.757 383.312 179.37 382.636C172.789 379.431 171.614 376.727 171.502 376.429C171.433 376.251 171.438 376.053 171.515 375.879C171.592 375.705 171.736 375.569 171.913 375.5C172.091 375.431 172.289 375.436 172.463 375.514C172.637 375.591 172.774 375.734 172.842 375.912C172.87 375.975 173.977 378.411 179.999 381.345C181.359 382.007 182.532 382.517 183.567 382.968C187.576 384.712 189.785 385.673 193.921 391.324C193.976 391.401 194.017 391.487 194.039 391.579C194.061 391.67 194.065 391.765 194.051 391.859C194.036 391.952 194.004 392.041 193.955 392.122C193.906 392.202 193.841 392.273 193.765 392.328C193.642 392.419 193.494 392.468 193.341 392.467ZM202.568 462.22C202.459 462.22 202.352 462.196 202.254 462.148C194.052 458.164 187.796 451.561 183.661 442.522C180.972 436.646 179.19 429.716 178.363 421.924C177.862 417.201 176.216 415.138 174.474 412.953C173.034 411.147 171.545 409.279 170.894 405.935C170.381 403.3 170.73 401.192 171.067 399.152C171.507 396.487 171.923 393.969 170.484 390.263C167.313 382.096 160.626 380.688 160.343 380.632C159.954 380.556 159.7 380.179 159.776 379.79C159.852 379.401 160.228 379.147 160.616 379.222C160.931 379.283 168.355 380.808 171.824 389.743C173.405 393.816 172.937 396.648 172.484 399.387C172.154 401.388 171.841 403.279 172.304 405.661C172.888 408.659 174.204 410.31 175.598 412.057C177.392 414.307 179.246 416.632 179.792 421.772C180.602 429.41 182.344 436.19 184.967 441.924C188.961 450.652 194.988 457.021 202.882 460.856C203.028 460.927 203.146 461.045 203.217 461.192C203.287 461.339 203.305 461.505 203.269 461.663C203.232 461.822 203.143 461.963 203.016 462.065C202.888 462.166 202.73 462.221 202.568 462.22Z" fill="#232323"/>
<path d="M165.001 400.892C167.177 399.692 167.279 395.708 165.23 391.994C163.18 388.281 159.755 386.243 157.58 387.443C155.405 388.644 155.303 392.627 157.352 396.341C159.402 400.055 162.826 402.092 165.001 400.892Z" fill="#00676C"/>
<path d="M207.771 418.574C207.313 418.574 206.872 418.399 206.539 418.084C203.078 414.82 199.104 412.633 194.729 411.585C191.442 410.798 189.146 410.984 189.124 410.986C188.138 411.07 187.266 410.344 187.177 409.359C187.088 408.373 187.81 407.502 188.795 407.409C189.228 407.369 199.514 406.519 209.004 415.471C209.265 415.718 209.447 416.038 209.525 416.389C209.602 416.74 209.573 417.106 209.44 417.44C209.307 417.775 209.077 418.061 208.78 418.263C208.482 418.465 208.131 418.574 207.771 418.574ZM208.927 428.55C208.676 428.55 208.426 428.497 208.196 428.395C207.966 428.292 207.76 428.143 207.592 427.955C200.323 419.878 190.369 420.071 190.272 420.076C189.28 420.1 188.454 419.327 188.422 418.338C188.391 417.349 189.164 416.52 190.153 416.486C190.624 416.467 201.841 416.196 210.262 425.553C210.494 425.811 210.647 426.13 210.701 426.473C210.755 426.816 210.709 427.167 210.568 427.484C210.426 427.801 210.196 428.071 209.905 428.26C209.614 428.449 209.275 428.55 208.927 428.55ZM209.114 437.971C208.858 437.972 208.606 437.917 208.373 437.812C208.14 437.707 207.932 437.553 207.764 437.36C201.367 430.078 193 429.995 192.708 429.995L192.68 429.995C192.444 429.996 192.21 429.951 191.992 429.862C191.774 429.773 191.575 429.642 191.407 429.476C191.069 429.141 190.877 428.685 190.874 428.209C190.872 427.733 191.058 427.275 191.393 426.936C191.728 426.598 192.184 426.406 192.661 426.403C193.066 426.404 202.907 426.388 210.463 434.99C210.777 435.348 210.936 435.816 210.905 436.291C210.875 436.766 210.656 437.21 210.298 437.524C209.971 437.813 209.55 437.972 209.114 437.971Z" fill="#00676C"/>
<path d="M197.449 255.396C188.211 280.978 208.398 314.097 227.267 335.527C246.136 356.958 270.829 380.951 272.46 408.67C274.09 436.39 267.568 477.154 264.772 492.994C270.13 478.319 292.96 478.319 317.187 483.677C341.414 489.034 364.438 482.857 364.438 482.857C364.438 482.857 350.499 417.755 342.579 390.035C342.579 390.035 410.135 338.322 386.141 305.478C362.147 272.634 317.886 250.97 294.59 240.488C271.295 230.006 206.534 230.239 197.449 255.396Z" fill="white"/>
<path d="M264.773 493.713C264.668 493.713 264.564 493.69 264.469 493.646C264.374 493.602 264.289 493.537 264.222 493.456C264.155 493.376 264.106 493.282 264.078 493.18C264.051 493.079 264.047 492.973 264.065 492.87C266.913 476.733 273.361 436.231 271.743 408.713C270.319 384.502 250.801 362.811 233.581 343.673C231.199 341.025 228.948 338.524 226.728 336.002C215.756 323.541 206.676 309.799 201.161 297.309C194.002 281.097 192.526 266.913 196.773 255.153C199.039 248.88 204.7 243.788 213.6 240.018C224.451 235.421 239.678 233.02 256.478 233.253C271.847 233.467 286.204 235.927 294.885 239.833C306.159 244.906 323.153 252.93 340.49 263.992C360.666 276.865 376.22 290.68 386.721 305.055C392.336 312.74 393.487 322.062 390.143 332.761C387.497 341.224 382.037 350.566 373.914 360.527C361.29 376.009 346.013 388.254 343.402 390.304C351.261 417.99 365.002 482.06 365.141 482.707C365.179 482.888 365.147 483.075 365.051 483.233C364.955 483.39 364.802 483.504 364.624 483.552C364.392 483.614 341.151 489.713 317.032 484.378C303.696 481.429 292.58 480.473 283.992 481.536C274.074 482.764 267.834 486.702 265.447 493.241C265.397 493.379 265.305 493.499 265.184 493.583C265.064 493.668 264.92 493.713 264.773 493.713ZM197.449 255.396L198.124 255.64C194.007 267.042 195.471 280.866 202.475 296.729C207.932 309.088 216.928 322.699 227.806 335.053C230.021 337.569 232.269 340.067 234.648 342.712C252.026 362.025 271.723 383.915 273.177 408.628C274.671 434.037 269.34 470.377 266.246 488.68C269.624 484.015 275.511 481.139 283.815 480.111C292.565 479.027 303.845 479.991 317.342 482.975C338.859 487.734 359.657 483.267 363.59 482.328C362.078 475.304 349.278 416.097 341.888 390.233C341.848 390.094 341.851 389.946 341.896 389.81C341.942 389.673 342.027 389.552 342.142 389.465C342.31 389.336 359.138 376.379 372.815 359.602C380.816 349.786 386.186 340.608 388.774 332.323C391.972 322.087 390.891 313.198 385.561 305.902C375.166 291.673 359.742 277.98 339.717 265.203C322.459 254.191 305.529 246.198 294.296 241.143C285.785 237.314 271.641 234.901 256.459 234.689C239.851 234.458 224.832 236.82 214.161 241.34C205.644 244.948 200.248 249.759 198.125 255.64L197.449 255.396Z" fill="#232323"/>
<mask id="mask2_1481_3140" style="mask-type:alpha" maskUnits="userSpaceOnUse" x="195" y="233" width="197" height="260">
<path d="M197.449 255.396C188.211 280.978 208.398 314.097 227.267 335.527C246.136 356.958 270.829 380.951 272.46 408.67C274.09 436.39 267.568 477.154 264.772 492.994C270.13 478.319 292.96 478.319 317.187 483.677C341.414 489.034 364.438 482.857 364.438 482.857C364.438 482.857 350.499 417.755 342.579 390.035C342.579 390.035 410.135 338.322 386.141 305.478C362.147 272.634 317.886 250.97 294.59 240.488C271.295 230.006 206.534 230.239 197.449 255.396Z" fill="white"/>
</mask>
<g mask="url(#mask2_1481_3140)">
<path d="M343.101 392.56C342.944 392.56 342.792 392.509 342.667 392.414C342.542 392.318 342.451 392.185 342.409 392.034C337.977 376.051 329.159 351.491 319.944 329.463C311.396 309.029 298.127 280.143 283.453 258.577C283.4 258.499 283.363 258.411 283.344 258.319C283.325 258.227 283.324 258.131 283.342 258.039C283.359 257.946 283.395 257.858 283.447 257.779C283.498 257.7 283.565 257.632 283.643 257.579C283.721 257.526 283.809 257.489 283.901 257.47C283.994 257.45 284.089 257.45 284.182 257.467C284.274 257.485 284.363 257.521 284.441 257.572C284.52 257.624 284.588 257.691 284.641 257.769C299.382 279.435 312.696 308.414 321.27 328.909C330.505 350.987 339.347 375.614 343.794 391.65C343.823 391.757 343.828 391.869 343.807 391.978C343.786 392.086 343.741 392.189 343.674 392.277C343.606 392.365 343.52 392.437 343.421 392.486C343.321 392.535 343.212 392.561 343.101 392.56ZM272.652 416.5C272.467 416.499 272.288 416.427 272.154 416.299C272.021 416.17 271.942 415.994 271.935 415.809C271.553 405.792 270.66 382.336 267.066 361.217C267.038 361.031 267.084 360.842 267.194 360.689C267.305 360.537 267.471 360.434 267.656 360.402C267.842 360.37 268.032 360.413 268.187 360.52C268.341 360.628 268.447 360.792 268.482 360.977C272.092 382.187 272.988 405.709 273.371 415.754C273.374 415.85 273.359 415.947 273.324 416.037C273.29 416.127 273.237 416.21 273.17 416.279C273.103 416.349 273.023 416.404 272.934 416.442C272.845 416.48 272.749 416.5 272.652 416.5Z" fill="#232323"/>
</g>
<mask id="mask3_1481_3140" style="mask-type:alpha" maskUnits="userSpaceOnUse" x="195" y="233" width="197" height="260">
<path d="M197.449 255.396C188.211 280.978 208.398 314.097 227.267 335.527C246.136 356.958 270.829 380.951 272.46 408.67C274.09 436.39 267.568 477.154 264.772 492.994C270.13 478.319 292.96 478.319 317.187 483.677C341.414 489.034 364.438 482.857 364.438 482.857C364.438 482.857 350.499 417.755 342.579 390.035C342.579 390.035 410.135 338.322 386.141 305.478C362.147 272.634 317.886 250.97 294.59 240.488C271.295 230.006 206.534 230.239 197.449 255.396Z" fill="white"/>
</mask>
<g mask="url(#mask3_1481_3140)">
<path d="M316.778 320.349C316.606 320.349 316.44 320.288 316.31 320.176C316.179 320.065 316.093 319.91 316.067 319.74C316.041 319.57 316.076 319.397 316.167 319.251C316.258 319.105 316.398 318.997 316.562 318.945C316.747 318.887 335.284 313.096 349.948 314.958C350.137 314.982 350.309 315.08 350.426 315.23C350.542 315.381 350.595 315.572 350.571 315.761C350.546 315.95 350.448 316.121 350.297 316.238C350.147 316.354 349.956 316.407 349.767 316.383C335.421 314.56 317.178 320.258 316.995 320.315C316.925 320.338 316.852 320.349 316.778 320.349Z" fill="#232323"/>
</g>
<path d="M288.533 212.535L294.59 240.488C294.59 240.488 291.338 242.391 284.68 243.975C276.681 245.881 263.766 247.323 245.67 244.448C220.744 240.488 197.449 255.396 197.449 255.396L204.903 182.486L231.926 109.576C237.75 113.536 249.63 124.251 262.443 111.672C261.149 107.884 261.578 104.235 261.578 104.235C261.578 104.235 275.742 93.2607 285.051 117.608C294.322 141.866 312.164 182.651 332.11 202.074L288.533 212.535Z" fill="#00676C"/>
<path d="M299.082 62.0964C298.609 67.0254 297.805 82.7255 290.045 85.8375C286.884 87.1072 277.964 84.3048 273.762 82.4832C271.299 82.4832 267.705 84.2997 265.264 88.4C262.75 92.6231 261.033 99.7534 262.443 111.673C262.443 111.673 250.32 126.988 230.985 109.983C230.985 109.983 230.994 101.889 226.102 98.3955C226.102 98.3955 243.341 85.351 247.534 64.3864C248 63.6876 252.931 53.7922 252.731 53.7877C246.892 53.6596 244.187 53.3188 243.62 53.2752L264.621 14.7911C278.289 13.5474 288.466 19.9926 293.428 30.815C298.257 41.3416 297.071 50.5559 298.869 54.3487C299.419 55.5089 300.444 56.3171 301.474 57.0345C303.706 58.5254 301.055 61.3184 299.082 62.0964Z" fill="white"/>
<path d="M262.559 113.332C262.384 113.332 262.216 113.268 262.085 113.153C261.954 113.037 261.869 112.879 261.847 112.706C260.439 101.82 261.381 93.5185 264.646 88.032C267.225 83.7024 271.082 81.7644 273.762 81.7644C273.86 81.7644 273.957 81.7846 274.048 81.8238C278.777 83.8741 287.1 86.2459 289.778 85.1707C296.582 82.4419 297.757 68.9754 298.259 63.2251C298.298 62.7778 298.333 62.376 298.366 62.0278C298.379 61.8959 298.428 61.7701 298.507 61.6642C298.587 61.5584 298.695 61.4767 298.818 61.4282C300.013 60.9569 301.488 59.6078 301.599 58.5748C301.626 58.3171 301.592 57.9771 301.075 57.632C299.949 56.8478 298.834 55.9508 298.22 54.6565C297.485 53.1063 297.228 50.8427 296.903 47.9768C296.404 43.5696 295.719 37.5338 292.775 31.1146C287.745 20.1433 277.663 14.4576 265.067 15.4737L244.773 52.6626C246.113 52.7847 248.657 52.9794 252.747 53.0689C252.876 53.0722 253.003 53.1101 253.113 53.1786C253.223 53.2471 253.312 53.3437 253.373 53.4585C253.584 53.8651 253.611 53.9173 250.989 59.2194C250.074 61.0695 248.65 63.8996 248.213 64.6508C246.984 70.711 243.83 79.9376 235.8 89.7085C232.072 94.2453 228.688 97.2131 227.254 98.3944C231.659 102.276 231.704 109.655 231.703 109.984C231.703 110.174 231.627 110.357 231.493 110.491C231.358 110.626 231.175 110.701 230.985 110.701H230.984C230.794 110.701 230.611 110.625 230.477 110.491C230.342 110.356 230.266 110.173 230.266 109.983C230.266 109.905 230.212 102.214 225.684 98.9798C225.593 98.9143 225.518 98.8281 225.466 98.7283C225.413 98.6285 225.385 98.5178 225.384 98.4052C225.382 98.2926 225.407 98.1813 225.457 98.08C225.506 97.9788 225.578 97.8906 225.668 97.8225C225.838 97.6935 242.74 84.687 246.829 64.2452C246.847 64.1532 246.884 64.0656 246.936 63.9875C247.271 63.4837 250.572 56.9058 251.684 54.4798C247.302 54.3579 244.878 54.1189 243.923 54.0248C243.76 54.0088 243.642 53.9971 243.565 53.9911C243.445 53.9819 243.33 53.9428 243.229 53.8776C243.128 53.8123 243.046 53.7229 242.988 53.6175C242.931 53.512 242.901 53.394 242.901 53.274C242.902 53.1541 242.932 53.036 242.989 52.9307L263.99 14.4469C264.047 14.3433 264.128 14.2552 264.227 14.1905C264.325 14.1257 264.438 14.0862 264.556 14.0755C277.968 12.8564 288.732 18.8469 294.081 30.5155C297.121 37.1432 297.821 43.3112 298.331 47.8147C298.641 50.5479 298.886 52.7066 299.519 54.0406C300.012 55.0816 300.999 55.8275 301.885 56.445C302.716 56.9996 303.125 57.8131 303.027 58.7276C302.864 60.2553 301.278 61.8329 299.758 62.5812C299.737 62.819 299.714 63.0756 299.69 63.3498C299.166 69.3634 297.937 83.4464 290.313 86.504C286.793 87.9171 277.652 84.9289 273.619 83.2036C271.352 83.2737 268.123 85.0022 265.881 88.7672C262.784 93.9704 261.907 101.962 263.272 112.521C263.285 112.623 263.276 112.726 263.247 112.824C263.217 112.921 263.166 113.012 263.099 113.088C263.031 113.165 262.948 113.226 262.855 113.268C262.762 113.31 262.661 113.332 262.559 113.332Z" fill="#232323"/>
<path d="M297.55 47.4595C277.709 54.8791 259.389 53.8492 259.389 53.8492L285.681 46.521L296.308 43.5594L297.059 43.3506C297.061 43.3611 297.062 43.3741 297.064 43.3846C297.256 44.7392 297.397 46.0998 297.55 47.4595ZM274.052 81.8412C273.989 81.8412 273.924 81.8457 273.856 81.8529C272.393 81.8855 268.447 82.8989 265.554 87.758C260.385 82.4353 259.73 75.8454 261.568 74.9254C262.966 74.2266 265.086 76.0506 266.469 77.0683C269.255 79.118 271.352 80.5158 274.052 81.8412Z" fill="#232323"/>
<path d="M283.597 48.0865C280.243 49.3212 278.508 52.3242 279.309 53.8572C280.109 55.3903 283.425 55.4693 286.495 53.6381C289.651 51.7558 291.57 49.2175 290.784 47.8674C289.969 46.4678 286.926 46.8615 283.597 48.0865Z" fill="#232323"/>
<path d="M292.384 71.7964C290.909 72.3407 288.919 71.6012 287.918 70.4166C286.789 69.08 286.602 67.296 287.286 65.9658" fill="white"/>
<path d="M292.568 72.2966C292.134 72.5267 291.648 72.6301 291.171 72.656C290.698 72.6756 290.224 72.6212 289.768 72.4948C288.863 72.2479 288.024 71.7731 287.351 71.0372C287.035 70.6746 286.771 70.269 286.567 69.8323C286.375 69.3926 286.232 68.9283 286.182 68.4504C286.066 67.5019 286.267 66.4988 286.811 65.722C286.885 65.618 286.992 65.5433 287.115 65.5111C287.238 65.479 287.369 65.4914 287.483 65.5463C287.598 65.6011 287.69 65.6948 287.742 65.8108C287.794 65.9267 287.803 66.0574 287.768 66.1796L287.76 66.2093C287.571 66.8566 287.553 67.5417 287.708 68.198C287.789 68.5172 287.894 68.8299 288.052 69.118C288.201 69.41 288.386 69.6817 288.604 69.9262C289.014 70.3943 289.609 70.7777 290.237 71.032C290.872 71.2824 291.55 71.3986 292.199 71.2961L292.233 71.2908C292.359 71.2704 292.488 71.2954 292.597 71.3614C292.706 71.4273 292.788 71.53 292.828 71.6509C292.869 71.7719 292.865 71.9032 292.817 72.0215C292.769 72.1398 292.681 72.2373 292.568 72.2966ZM286.22 56.0502C287.562 55.3232 290.82 53.6535 293.534 51.0798C293.624 50.9938 293.731 50.9265 293.847 50.882C293.964 50.8374 294.088 50.8165 294.213 50.8203C294.338 50.8241 294.46 50.8526 294.574 50.9042C294.688 50.9557 294.79 51.0294 294.875 51.1207C295.8 52.109 297.011 53.9691 294.937 55.4851C292.389 57.3479 287.527 57.8153 286.164 56.8704C285.871 56.6673 285.907 56.2203 286.22 56.0502Z" fill="#232323"/>
<path d="M246.713 58.2262C246.486 58.2782 246.216 58.3261 245.904 58.3704C237.952 59.5382 203.403 58.8198 201.908 48.8418C200.715 40.8724 224.103 36.9731 234.994 35.5947C235.418 35.5401 235.82 35.492 236.203 35.4456C238.583 35.1601 240.152 35.0164 240.39 34.9937C240.41 34.992 240.422 34.9925 240.422 34.9925L246.713 58.2262Z" fill="#D9C6F4"/>
<path d="M246.713 58.2262C246.486 58.2782 246.216 58.3261 245.905 58.3704C242.661 56.7638 233.532 49.9582 234.994 35.5945C235.418 35.5399 235.82 35.4918 236.203 35.4453C238.583 35.1599 240.152 35.0162 240.39 34.9934C240.41 34.9918 240.422 34.9923 240.422 34.9923C240.422 34.9923 240.783 50.7084 246.713 58.2262Z" fill="#232323"/>
<path d="M297.716 43.0226C297.5 43.1469 297.283 43.2673 297.063 43.3837C294.333 44.8489 290.377 46.4935 285.94 48.0356H285.937C281.5 49.5777 276.587 51.0171 271.937 52.0794C267.215 53.1555 262.77 53.8451 259.388 53.8497H258.919C250.004 53.8497 247.46 53.5865 243.34 53.2043L242.739 53.5585C238.205 45.8551 237.902 36.5656 241.923 28.7063C246.196 20.3624 254.444 15.0351 264.557 14.094C271.534 13.4674 277.991 14.8254 283.231 18.0236C288.209 21.0635 292.118 25.7689 294.559 31.6552C294.622 31.8068 294.683 31.9581 294.743 32.1095C296.085 35.4078 297.187 39.4654 297.716 43.0226Z" fill="#D9C6F4"/>
<path d="M259.388 53.8491C259.388 53.8491 253.977 47.8785 247.11 49.7419C240.633 51.4998 240.791 61.2609 251.584 67.5107C253.242 68.4707 256.254 69.6402 258.672 70.0054L259.388 53.8491Z" fill="white"/>
<path d="M258.674 70.7238C258.638 70.7238 258.602 70.7212 258.565 70.7157C256.008 70.3297 252.936 69.124 251.224 68.1324C248.026 66.2804 245.495 63.9672 243.905 61.4431C242.46 59.1479 241.819 56.6966 242.101 54.5409C242.461 51.7841 244.219 49.7822 246.922 49.0485C254.132 47.0921 259.688 53.1092 259.921 53.3664C259.984 53.4363 260.033 53.518 260.065 53.6068C260.097 53.6956 260.111 53.7898 260.106 53.884C260.102 53.9782 260.079 54.0706 260.038 54.1559C259.998 54.2412 259.941 54.3177 259.871 54.381C259.801 54.4443 259.72 54.4933 259.631 54.5251C259.542 54.5569 259.448 54.5709 259.354 54.5664C259.26 54.5618 259.167 54.5387 259.082 54.4984C258.997 54.4582 258.92 54.4015 258.857 54.3317C258.806 54.2754 253.648 48.7128 247.299 50.435C245.182 51.0094 243.807 52.5738 243.525 54.727C243.117 57.8519 245.077 62.9122 251.944 66.8889C253.5 67.7897 256.424 68.9391 258.78 69.2947C258.96 69.3212 259.123 69.4147 259.236 69.5564C259.35 69.6982 259.405 69.8776 259.392 70.0587C259.378 70.2398 259.297 70.4091 259.163 70.5325C259.03 70.6559 258.855 70.7242 258.674 70.7238Z" fill="#232323"/>
<path d="M248.81 55.9292C248.81 55.9292 255.174 55.6665 258.451 62.963L248.81 55.9292Z" fill="white"/>
<path d="M258.452 63.6817C258.314 63.6818 258.178 63.6418 258.062 63.5665C257.945 63.4912 257.853 63.3838 257.797 63.2573C254.771 56.5211 249.079 56.6385 248.838 56.6471C248.436 56.6603 248.109 56.3521 248.094 55.9565C248.079 55.5609 248.385 55.2278 248.781 55.2115C249.063 55.202 255.671 55.0173 259.107 62.669C259.156 62.7784 259.177 62.8983 259.168 63.0178C259.159 63.1374 259.12 63.2527 259.055 63.3534C258.99 63.4541 258.901 63.5369 258.795 63.5942C258.69 63.6515 258.572 63.6816 258.452 63.6817ZM297.716 43.0226C297.5 43.1469 297.283 43.2673 297.063 43.3837C294.333 44.849 290.378 46.4936 285.94 48.0357H285.937C284.661 45.5503 284.048 40.8845 285.567 37.7141C287.09 34.5297 290.116 32.3401 294.559 31.6553C294.622 31.8069 294.683 31.9582 294.743 32.1095C296.085 35.4078 297.187 39.4655 297.716 43.0226Z" fill="#232323"/>
<path d="M427.201 574.842C424.348 578.573 416.229 582.962 401.745 582.962H331.3C333.362 570.867 336.089 550.731 331.992 530.904C339.299 532.404 339.777 537.644 346.806 539.581C354.947 541.824 365.325 538.388 384.847 544.34C385.162 544.436 385.479 544.511 385.793 544.597C385.88 544.621 385.966 544.643 386.052 544.667C392.001 546.322 397.141 548.36 401.571 550.588C420.688 560.208 426.596 573.394 427.158 574.73C427.158 574.73 427.16 574.73 427.16 574.733C427.173 574.763 427.182 574.79 427.188 574.807C427.197 574.831 427.201 574.842 427.201 574.842Z" fill="white"/>
<path d="M401.745 583.68H331.3C331.195 583.68 331.092 583.657 330.997 583.613C330.903 583.569 330.819 583.505 330.751 583.425C330.684 583.345 330.634 583.251 330.607 583.151C330.579 583.05 330.574 582.944 330.592 582.841C332.804 569.866 335.283 550.38 331.288 531.05C331.264 530.933 331.269 530.812 331.303 530.698C331.337 530.584 331.399 530.48 331.483 530.396C331.567 530.312 331.671 530.25 331.785 530.216C331.899 530.182 332.019 530.176 332.136 530.2C336.115 531.017 338.188 532.907 340.193 534.735C342.035 536.415 343.774 538.001 346.996 538.888C349.999 539.716 353.283 539.747 357.44 539.786C364.307 539.851 372.853 539.932 385.056 543.653C385.216 543.702 385.467 543.77 385.798 543.862C388.211 544.526 394.622 546.29 401.894 549.945C421.008 559.565 427.104 572.766 427.805 574.417C427.815 574.436 427.823 574.456 427.831 574.477C427.848 574.52 427.872 574.585 427.879 574.603C427.919 574.716 427.93 574.837 427.911 574.954C427.892 575.072 427.844 575.184 427.772 575.278C424.666 579.34 416.198 583.68 401.745 583.68ZM332.15 582.243H401.745C415.281 582.243 423.273 578.42 426.373 574.728C425.306 572.354 419.152 560.239 401.248 551.229C394.103 547.637 387.793 545.901 385.417 545.247C385.069 545.151 384.805 545.078 384.637 545.027C372.632 541.367 364.201 541.287 357.427 541.222C353.333 541.184 349.799 541.15 346.615 540.273C343.061 539.294 341.111 537.516 339.225 535.797C337.482 534.207 335.824 532.696 332.918 531.869C336.565 550.654 334.3 569.413 332.15 582.243Z" fill="#232323"/>
<path d="M334.487 557.04C334.261 557.04 334.128 557.029 334.099 557.026C333.909 557.009 333.734 556.918 333.612 556.771C333.49 556.625 333.431 556.436 333.448 556.247C333.483 555.852 333.836 555.566 334.225 555.595C334.29 555.6 338.427 555.873 344.012 551.943C345.249 551.073 346.262 550.292 347.157 549.604C350.621 546.936 352.53 545.467 359.476 544.577C359.664 544.555 359.853 544.607 360.002 544.724C360.152 544.84 360.249 545.011 360.273 545.199C360.297 545.387 360.246 545.576 360.131 545.727C360.016 545.877 359.846 545.976 359.659 546.002C353.098 546.843 351.405 548.146 348.033 550.742C347.127 551.44 346.101 552.23 344.838 553.118C339.711 556.727 335.717 557.04 334.487 557.04ZM402.96 578.432C401.773 578.432 400.569 578.386 399.348 578.294C392.904 577.81 385.975 576.022 378.752 572.981C374.375 571.138 371.773 571.581 369.019 572.051C366.742 572.439 364.387 572.841 361.144 571.796C358.589 570.971 356.912 569.647 355.289 568.367C353.168 566.694 351.164 565.113 347.224 564.582C338.539 563.414 334.078 568.587 333.892 568.808C333.769 568.954 333.594 569.045 333.404 569.062C333.215 569.079 333.026 569.019 332.88 568.897C332.734 568.775 332.643 568.601 332.625 568.411C332.608 568.222 332.667 568.033 332.789 567.887C332.993 567.641 337.916 561.879 347.416 563.158C351.745 563.741 353.999 565.519 356.179 567.239C357.772 568.496 359.277 569.683 361.585 570.428C364.492 571.365 366.574 571.011 368.777 570.635C371.614 570.151 374.546 569.651 379.309 571.657C386.389 574.637 393.167 576.388 399.455 576.862C409.029 577.582 417.515 575.382 424.686 570.324C424.764 570.269 424.851 570.231 424.943 570.21C425.035 570.189 425.13 570.187 425.223 570.203C425.316 570.219 425.405 570.253 425.485 570.303C425.564 570.354 425.633 570.419 425.688 570.496C425.742 570.574 425.781 570.661 425.802 570.753C425.822 570.845 425.825 570.94 425.809 571.033C425.793 571.126 425.758 571.215 425.708 571.294C425.658 571.374 425.592 571.443 425.515 571.498C418.982 576.106 411.408 578.432 402.96 578.432Z" fill="#232323"/>
<path d="M346.223 579.012C350.465 579.012 353.904 576.998 353.904 574.513C353.904 572.029 350.465 570.015 346.223 570.015C341.981 570.015 338.542 572.029 338.542 574.513C338.542 576.998 341.981 579.012 346.223 579.012Z" fill="#00676C"/>
<path d="M372.729 559.346C372.481 559.346 372.236 559.294 372.009 559.193C371.103 558.795 370.689 557.742 371.084 556.835C371.258 556.436 375.483 547.022 387.907 543.037C388.131 542.965 388.368 542.938 388.603 542.958C388.838 542.977 389.067 543.043 389.277 543.151C389.486 543.258 389.673 543.407 389.825 543.587C389.978 543.766 390.093 543.975 390.165 544.199C390.237 544.424 390.264 544.66 390.245 544.896C390.226 545.131 390.16 545.36 390.052 545.569C389.944 545.779 389.796 545.965 389.616 546.118C389.436 546.27 389.228 546.386 389.003 546.458C378.19 549.926 374.411 558.193 374.375 558.276C374.233 558.594 374.002 558.865 373.71 559.055C373.418 559.244 373.077 559.345 372.729 559.346ZM381.288 562.641C380.981 562.64 380.679 562.561 380.411 562.411C380.143 562.261 379.918 562.045 379.758 561.783C379.597 561.521 379.507 561.223 379.494 560.916C379.482 560.609 379.549 560.305 379.688 560.031C379.902 559.609 385.081 549.658 397.342 546.806C397.803 546.704 398.287 546.788 398.688 547.04C399.088 547.292 399.373 547.692 399.48 548.152C399.587 548.613 399.508 549.098 399.26 549.501C399.012 549.904 398.615 550.192 398.155 550.304C387.508 552.781 382.936 561.569 382.891 561.657C382.74 561.953 382.511 562.202 382.228 562.375C381.945 562.549 381.62 562.641 381.288 562.641ZM391.163 565.271C390.865 565.271 390.573 565.196 390.311 565.054C389.441 564.583 389.114 563.499 389.583 562.627C389.779 562.262 394.52 553.649 405.702 551.19C405.932 551.139 406.171 551.134 406.403 551.176C406.635 551.217 406.857 551.304 407.056 551.431C407.254 551.558 407.426 551.723 407.561 551.916C407.696 552.11 407.791 552.328 407.842 552.559C407.893 552.789 407.897 553.027 407.856 553.259C407.815 553.491 407.728 553.713 407.601 553.912C407.474 554.111 407.309 554.282 407.115 554.417C406.922 554.552 406.704 554.648 406.473 554.698C396.955 556.791 392.785 564.257 392.744 564.332C392.589 564.616 392.361 564.853 392.082 565.018C391.804 565.184 391.486 565.271 391.163 565.271ZM197.682 192.503C211.426 177.362 233.964 135.836 231.926 109.576C229.829 82.5554 202.341 96.0659 169.728 126.115C155.796 138.951 137.813 147.778 133.154 151.273C144.103 148.943 159.71 160.124 172.29 174.101C177.498 179.887 185.801 189.708 197.682 192.503Z" fill="#00676C"/>
<path d="M193.958 190.14C160.719 178.566 138.031 170.976 132.966 162.809C128.484 155.584 131.28 145.176 149.212 154.074C159.092 158.98 173.57 169.746 193.958 190.14Z" fill="#232323"/>
<path d="M193.958 190.858C193.878 190.858 193.798 190.845 193.722 190.818L189.308 189.282C158.006 178.396 137.327 171.204 132.356 163.188C129.857 159.159 129.711 154.589 131.999 152.073C136.004 147.671 144.703 151.034 149.532 153.43C161.053 159.151 176.171 171.331 194.467 189.632C194.567 189.733 194.635 189.861 194.663 190C194.691 190.139 194.676 190.284 194.622 190.415C194.567 190.546 194.475 190.658 194.357 190.737C194.239 190.816 194.1 190.858 193.958 190.858ZM137.683 151.374C135.65 151.374 134.076 151.926 133.062 153.04C131.203 155.083 131.415 158.944 133.577 162.43C138.28 170.014 159.882 177.527 189.78 187.925L191.212 188.424C174.032 171.469 159.803 160.135 148.893 154.717C144.423 152.499 140.586 151.374 137.683 151.374Z" fill="#00676C"/>
<mask id="mask4_1481_3140" style="mask-type:alpha" maskUnits="userSpaceOnUse" x="133" y="95" width="199" height="161">
<path d="M288.533 212.535L294.59 240.488C294.59 240.488 278.824 249.715 245.67 244.448C220.744 240.488 197.449 255.396 197.449 255.396L204.81 183.385C202.301 186.984 199.878 190.082 197.682 192.502C185.801 189.707 177.499 179.887 172.29 174.1C159.71 160.124 144.103 148.943 133.154 151.272C137.813 147.778 155.797 138.95 169.728 126.115C195.29 102.562 217.704 89.1705 227.211 97.4912C229.83 99.7833 231.469 103.725 231.924 109.553C231.924 109.56 231.926 109.569 231.926 109.576C248.708 124.335 259.327 115.049 261.843 112.34C261.807 112.225 261.777 112.108 261.755 111.99C261.279 109.187 261.2 106.774 261.222 104.341C263.48 102.843 276.616 95.5458 285.051 117.608C294.357 141.954 311.596 182.486 331.63 201.82L288.533 212.535Z" fill="white"/>
</mask>
<g mask="url(#mask4_1481_3140)">
<path d="M263.078 111.05C266.05 130.776 290.636 213.061 290.882 213.883L289.543 214.284C289.301 213.475 265.464 133.806 261.843 112.341" fill="white"/>
</g>
<mask id="mask5_1481_3140" style="mask-type:alpha" maskUnits="userSpaceOnUse" x="133" y="95" width="199" height="161">
<path d="M288.533 212.535L294.59 240.488C294.59 240.488 278.824 249.715 245.67 244.448C220.744 240.488 197.449 255.396 197.449 255.396L204.81 183.385C202.301 186.984 199.878 190.082 197.682 192.502C185.801 189.707 177.499 179.887 172.29 174.1C159.71 160.124 144.103 148.943 133.154 151.272C137.813 147.778 155.797 138.95 169.728 126.115C195.29 102.562 217.704 89.1705 227.211 97.4912C229.83 99.7833 231.469 103.725 231.924 109.553C231.924 109.56 231.926 109.569 231.926 109.576C248.708 124.335 259.327 115.049 261.843 112.34C261.807 112.225 261.777 112.108 261.755 111.99C261.279 109.187 261.2 106.774 261.222 104.341C263.48 102.843 276.616 95.5458 285.051 117.608C294.357 141.954 311.596 182.486 331.63 201.82L288.533 212.535Z" fill="white"/>
</mask>
<g mask="url(#mask5_1481_3140)">
<path d="M198.977 193.721C198.84 193.721 198.707 193.682 198.592 193.608C198.477 193.535 198.385 193.431 198.327 193.307C198.269 193.184 198.248 193.047 198.265 192.911C198.282 192.776 198.338 192.649 198.425 192.544C212.978 175.027 221.133 157.151 225.411 145.24C230.654 130.645 233.003 116.536 231.695 107.5C231.667 107.312 231.716 107.12 231.83 106.967C231.944 106.815 232.114 106.714 232.303 106.686C232.491 106.66 232.683 106.708 232.835 106.822C232.988 106.936 233.089 107.106 233.117 107.295C234.477 116.69 232.161 130.698 226.763 145.726C222.446 157.745 214.216 175.784 199.529 193.462C199.462 193.543 199.378 193.608 199.282 193.653C199.187 193.698 199.082 193.721 198.977 193.721Z" fill="white"/>
</g>
<path d="M193.958 190.14C221.442 167.4 260.013 141.126 295.585 143.229C310.352 144.103 335.59 161.755 345.141 175.964C354.692 190.173 330.931 174.334 330.465 174.101C329.999 178.527 326.272 180.623 326.272 180.623C325.573 186.214 321.613 187.378 321.613 187.378C321.613 187.378 321.38 192.969 310.664 192.037C299.948 191.105 297.619 183.884 297.619 183.884C297.619 183.884 291.795 183.418 285.107 179.631C282.949 178.408 280.257 178.743 278.561 180.553C263.84 196.267 227.218 261.467 177.648 257.726C129.483 254.088 135.793 179.547 149.213 154.074C174.35 159.948 190.69 177.673 193.958 190.14Z" fill="white"/>
<path d="M181.704 258.597C180.331 258.597 178.961 258.545 177.594 258.442C163.965 257.413 153.678 250.785 147.016 238.744C140.819 227.541 137.991 211.498 139.054 193.571C139.95 178.45 143.6 163.187 148.577 153.739C148.651 153.598 148.77 153.486 148.915 153.42C149.059 153.354 149.222 153.338 149.377 153.375C164.039 156.801 174.265 163.815 180.262 169.095C187.248 175.247 192.325 182.398 194.347 188.888C211.303 174.93 226.706 164.406 241.407 156.732C261.303 146.346 279.547 141.563 295.628 142.512C302.623 142.926 312.498 147.113 322.721 154C332.474 160.57 341.078 168.632 345.738 175.564C348.064 179.024 348.655 181.025 347.653 182.052C346.589 183.143 343.73 183.349 330.995 175.283C330.227 178.601 327.811 180.472 326.938 181.054C326.231 185.716 323.369 187.41 322.256 187.9C322.115 188.527 321.709 189.652 320.547 190.673C318.525 192.451 315.177 193.151 310.602 192.753C300.969 191.915 297.827 186.218 297.108 184.552C295.589 184.362 290.511 183.517 284.753 180.256C282.858 179.183 280.527 179.507 279.085 181.045C276.302 184.016 272.628 188.906 268.374 194.569C259.19 206.795 246.611 223.539 231.331 236.801C222.967 244.059 214.564 249.567 206.354 253.172C198.14 256.778 189.867 258.597 181.704 258.597ZM149.592 154.902C144.835 164.215 141.358 178.988 140.488 193.655C139.441 211.315 142.206 227.081 148.273 238.048C154.685 249.639 164.587 256.019 177.702 257.01C186.954 257.708 196.398 255.974 205.777 251.856C213.854 248.31 222.134 242.879 230.388 235.716C245.554 222.554 258.079 205.881 267.225 193.706C271.504 188.01 275.2 183.09 278.036 180.062C279.933 178.038 282.986 177.604 285.461 179.006C291.917 182.662 297.619 183.164 297.677 183.169C297.818 183.18 297.953 183.233 298.065 183.322C298.176 183.41 298.259 183.529 298.302 183.664C298.393 183.938 300.655 190.446 310.726 191.322C315.878 191.768 318.373 190.648 319.558 189.628C320.805 188.556 320.892 187.39 320.895 187.341C320.914 187.04 321.12 186.775 321.41 186.689C321.549 186.646 324.932 185.552 325.559 180.534C325.573 180.423 325.613 180.316 325.675 180.223C325.738 180.129 325.822 180.052 325.92 179.997C325.952 179.978 329.331 178.012 329.75 174.026C329.763 173.91 329.803 173.799 329.867 173.703C329.931 173.606 330.018 173.527 330.12 173.471C330.222 173.415 330.336 173.385 330.452 173.383C330.568 173.381 330.682 173.406 330.786 173.458C330.853 173.492 330.925 173.537 331.395 173.836C344.975 182.478 346.563 181.111 346.624 181.049C346.63 181.043 347.226 180.354 344.544 176.365C339.983 169.579 331.525 161.663 321.917 155.191C311.902 148.444 302.288 144.345 295.542 143.946C279.723 143.009 261.733 147.742 242.071 158.005C227.216 165.759 211.628 176.452 194.416 190.694C194.323 190.77 194.212 190.823 194.094 190.845C193.975 190.868 193.853 190.861 193.738 190.824C193.623 190.787 193.519 190.721 193.436 190.634C193.353 190.546 193.294 190.439 193.263 190.322C191.56 183.825 186.475 176.481 179.311 170.173C173.513 165.067 163.674 158.305 149.592 154.902Z" fill="#232323"/>
<mask id="mask6_1481_3140" style="mask-type:alpha" maskUnits="userSpaceOnUse" x="139" y="143" width="209" height="115">
<path d="M191.924 189.062C192.501 189.365 193.498 189.808 194.071 190.057C194.078 190.052 193.954 190.144 193.958 190.14C198.859 186.084 202.676 183.094 207.412 179.526L207.417 179.523C240.606 154.529 269.853 141.708 295.585 143.229C310.352 144.103 335.59 161.755 345.141 175.964C354.692 190.173 330.931 174.333 330.465 174.1C329.999 178.526 326.272 180.623 326.272 180.623C325.573 186.213 321.613 187.378 321.613 187.378C321.613 187.378 321.38 192.969 310.664 192.037C299.948 191.105 297.619 183.884 297.619 183.884C297.619 183.884 291.795 183.418 285.107 179.631C282.949 178.408 280.257 178.743 278.561 180.553C263.84 196.267 227.218 261.467 177.648 257.726C135.302 254.527 135.432 196.87 144.552 166.034C144.72 165.461 144.892 164.899 145.067 164.347C146.236 160.653 147.536 157.392 148.899 154.722" fill="white"/>
</mask>
<g mask="url(#mask6_1481_3140)">
<path d="M311.246 187.514C311.134 187.514 311.02 187.488 310.913 187.432C306.091 184.906 298.119 184.51 295.224 184.717C294.823 184.749 294.484 184.447 294.456 184.052C294.442 183.862 294.505 183.674 294.63 183.53C294.754 183.386 294.931 183.297 295.121 183.284C298.272 183.06 306.437 183.466 311.58 186.159C311.722 186.234 311.835 186.354 311.901 186.501C311.968 186.647 311.983 186.812 311.944 186.968C311.906 187.124 311.816 187.262 311.689 187.361C311.563 187.461 311.407 187.514 311.246 187.514ZM321.497 188.912C321.399 188.912 321.301 188.891 321.211 188.852C321.12 188.813 321.039 188.756 320.972 188.684C320.904 188.612 320.853 188.527 320.82 188.434C320.787 188.341 320.773 188.242 320.78 188.144C321.237 181.513 315.751 176.213 310.914 173.689C310.75 173.599 310.627 173.447 310.572 173.267C310.518 173.088 310.536 172.893 310.623 172.727C310.71 172.56 310.859 172.434 311.037 172.376C311.216 172.318 311.411 172.332 311.579 172.415C316.801 175.139 322.719 180.919 322.213 188.243C322.201 188.424 322.12 188.594 321.987 188.718C321.854 188.842 321.679 188.911 321.497 188.912ZM326.156 182.156L326.13 182.156C325.94 182.149 325.76 182.067 325.63 181.927C325.5 181.788 325.431 181.603 325.438 181.412C325.537 178.624 324.564 175.785 322.544 172.977C320.95 170.76 318.697 168.599 316.199 166.89C316.12 166.837 316.053 166.769 316.001 166.69C315.948 166.611 315.912 166.522 315.894 166.429C315.877 166.336 315.877 166.24 315.897 166.147C315.916 166.054 315.954 165.966 316.007 165.888C316.061 165.81 316.129 165.743 316.209 165.691C316.288 165.64 316.377 165.604 316.47 165.587C316.564 165.57 316.659 165.572 316.752 165.592C316.845 165.612 316.933 165.65 317.01 165.704C319.642 167.505 322.022 169.79 323.711 172.138C325.921 175.211 326.985 178.349 326.874 181.464C326.867 181.649 326.789 181.825 326.655 181.955C326.521 182.084 326.342 182.156 326.156 182.156ZM330.35 176.1C330.25 176.1 330.151 176.079 330.06 176.039C329.969 175.999 329.887 175.941 329.82 175.867C329.752 175.794 329.701 175.707 329.669 175.613C329.637 175.518 329.624 175.419 329.633 175.319C330.069 170.307 325.29 164.188 320.419 161.168C320.257 161.067 320.141 160.907 320.098 160.721C320.054 160.536 320.086 160.34 320.187 160.179C320.287 160.017 320.448 159.901 320.633 159.858C320.819 159.814 321.014 159.846 321.176 159.946C326.344 163.151 331.566 169.671 331.064 175.444C331.049 175.622 330.967 175.789 330.835 175.911C330.702 176.032 330.529 176.1 330.35 176.1Z" fill="#232323"/>
</g>
<path d="M195.55 188.83L192.927 190.956C183.551 187.052 176.774 179.081 172.29 174.101C161.469 162.076 148.403 152.123 137.994 151.061C143.599 146.994 157.641 142.885 171.525 153.779C188.745 167.292 195.55 188.83 195.55 188.83Z" fill="#00676C"/>
<path d="M175.435 208.479C175.293 208.479 175.155 208.437 175.037 208.359C174.919 208.28 174.827 208.169 174.772 208.039C174.717 207.908 174.703 207.764 174.729 207.625C174.756 207.486 174.823 207.358 174.922 207.257C175.052 207.125 187.948 194.012 195.572 187.883C195.721 187.764 195.911 187.708 196.1 187.729C196.29 187.749 196.463 187.844 196.583 187.993C196.702 188.141 196.757 188.331 196.737 188.52C196.716 188.71 196.621 188.883 196.473 189.003C188.914 195.079 176.076 208.133 175.947 208.264C175.881 208.332 175.801 208.386 175.713 208.423C175.625 208.46 175.53 208.479 175.435 208.479Z" fill="#232323"/>
</g>
<g clip-path="url(#clip2_1481_3140)">
<path d="M351.684 194.85L363.479 105.554L363.492 105.457L363.673 105.362L395.827 89.541L383.447 187.37L351.684 194.85Z" fill="white"/>
<path d="M351.686 196.653C351.429 196.653 351.176 196.599 350.942 196.493C350.708 196.387 350.499 196.232 350.33 196.039C350.161 195.846 350.035 195.619 349.96 195.374C349.886 195.128 349.865 194.869 349.898 194.614L361.708 105.215C361.746 104.929 361.853 104.657 362.018 104.421C362.184 104.185 362.404 103.992 362.659 103.859L362.84 103.764L394.881 87.1234C395.173 86.9723 395.5 86.9036 395.827 86.9249C396.154 86.9462 396.47 87.0566 396.739 87.2442C397.008 87.4317 397.221 87.6893 397.355 87.9892C397.489 88.289 397.538 88.6197 397.497 88.9456L385.235 187.593C385.112 188.581 384.211 189.282 383.225 189.159C382.751 189.1 382.32 188.855 382.027 188.478C381.734 188.101 381.602 187.622 381.661 187.148L393.501 91.9013L365.154 106.623L353.469 195.087C353.412 195.519 353.199 195.917 352.871 196.205C352.543 196.493 352.122 196.652 351.686 196.653Z" fill="#232323"/>
<mask id="mask7_1481_3140" style="mask-type:alpha" maskUnits="userSpaceOnUse" x="349" y="86" width="49" height="111">
<path d="M397.17 86.9551C396.908 86.7718 396.6 86.664 396.28 86.6435C395.961 86.623 395.642 86.6905 395.358 86.8388L362.681 103.903C362.432 104.033 362.218 104.222 362.057 104.452C361.896 104.683 361.792 104.949 361.756 105.228L349.947 194.621C349.917 194.849 349.932 195.081 349.992 195.303C350.051 195.526 350.154 195.734 350.294 195.917C350.434 196.1 350.608 196.253 350.807 196.368C351.006 196.483 351.226 196.558 351.454 196.588C351.682 196.619 351.914 196.603 352.136 196.544C352.359 196.485 352.567 196.382 352.75 196.242C352.932 196.102 353.085 195.927 353.2 195.728C353.316 195.528 353.39 195.308 353.42 195.08L353.508 194.421L381.744 187.771C381.907 188.462 382.48 189.013 383.225 189.109C384.183 189.233 385.062 188.554 385.185 187.594L397.906 88.6168C397.947 88.299 397.9 87.9761 397.77 87.6832C397.64 87.3902 397.433 87.1384 397.17 86.9551Z" fill="white"/>
</mask>
<g mask="url(#mask7_1481_3140)">
<path d="M382.401 184.213C383.719 184.213 384.915 185.114 385.237 186.453C385.614 188.022 384.649 189.6 383.081 189.977L287.284 213.037C287.054 213.092 286.825 213.118 286.599 213.118C285.28 213.118 284.084 212.218 283.762 210.879C283.386 209.31 284.351 207.732 285.918 207.355L381.716 184.295C381.945 184.24 382.175 184.213 382.401 184.213ZM382.401 183.012C382.077 183.012 381.752 183.051 381.435 183.127L285.637 206.187C285.111 206.312 284.614 206.54 284.177 206.859C283.739 207.178 283.368 207.58 283.087 208.043C282.803 208.504 282.614 209.017 282.529 209.552C282.445 210.087 282.467 210.634 282.595 211.16C282.809 212.061 283.321 212.864 284.047 213.437C284.774 214.011 285.673 214.322 286.599 214.32C286.922 214.32 287.247 214.281 287.564 214.205L383.362 191.146C383.888 191.02 384.385 190.792 384.823 190.473C385.26 190.155 385.631 189.752 385.912 189.289C386.196 188.828 386.386 188.315 386.47 187.78C386.555 187.245 386.532 186.698 386.404 186.172C386.19 185.271 385.678 184.468 384.952 183.895C384.225 183.321 383.326 183.01 382.401 183.012Z" fill="white"/>
</g>
<path d="M286.598 213.118C285.28 213.118 284.084 212.218 283.762 210.879C283.385 209.31 284.35 207.732 285.918 207.355L381.715 184.295C383.283 183.918 384.859 184.884 385.236 186.453C385.613 188.022 384.648 189.6 383.08 189.977L287.283 213.037C287.054 213.092 286.824 213.118 286.598 213.118Z" fill="#232323"/>
<path d="M378.894 189.123C379.475 189.123 379.945 188.652 379.945 188.071C379.945 187.49 379.475 187.019 378.894 187.019C378.314 187.019 377.843 187.49 377.843 188.071C377.843 188.652 378.314 189.123 378.894 189.123Z" fill="#D9C6F4"/>
<path d="M367.099 191.721C366.863 191.721 366.635 191.634 366.459 191.477C366.283 191.32 366.171 191.104 366.144 190.869C366.118 190.635 366.178 190.399 366.314 190.206C366.449 190.013 366.651 189.877 366.881 189.824L373.888 188.187C374.011 188.158 374.138 188.154 374.263 188.175C374.387 188.195 374.506 188.24 374.613 188.307C374.72 188.373 374.813 188.46 374.887 188.563C374.96 188.666 375.013 188.782 375.042 188.905C375.07 189.028 375.075 189.155 375.054 189.279C375.033 189.404 374.989 189.523 374.922 189.631C374.856 189.738 374.768 189.831 374.666 189.904C374.563 189.978 374.448 190.031 374.325 190.059L367.318 191.696C367.246 191.712 367.172 191.721 367.099 191.721Z" fill="#D9C6F4"/>
</g>
<defs>
<clipPath id="clip0_1481_3140">
<rect width="393.84" height="321.12" fill="white" transform="translate(49.4419 221.851) rotate(-29.4788)"/>
</clipPath>
<clipPath id="clip1_1481_3140">
<rect width="317.52" height="569.76" fill="white" transform="translate(110.4 13.9199)"/>
</clipPath>
<clipPath id="clip2_1481_3140">
<rect width="115.44" height="127.68" fill="white" transform="translate(282.48 86.6399)"/>
</clipPath>
</defs>
</svg>
