<svg width="46" height="42" viewBox="0 0 46 42" fill="none" xmlns="http://www.w3.org/2000/svg">
<g clip-path="url(#clip0_1503_3369)">
<path d="M29.6409 6.79613C30.9577 6.8575 31.6114 7.47656 32.353 7.02313C33.4549 6.34942 31.931 3.34569 28.9963 1.78083C26.4922 0.445589 23.5684 0.586092 22.0306 3.28503C20.3335 6.26349 22.0641 7.93198 24.1133 7.79119C25.5375 7.69337 27.5029 6.69654 29.6409 6.79613Z" fill="#232323"/>
<path d="M15.8066 33.1201C15.8066 33.1201 10.9016 35.9479 10.1893 39.7319C9.57228 43.01 6.02347 40.7479 7.12421 37.3193C8.25415 33.8 10.0395 31.835 10.0395 31.835L15.8066 33.1201Z" fill="#232323"/>
<path d="M38.4723 22.1086C38.4723 22.1086 43.4316 21.7453 45.2043 17.6279C46.565 14.4672 44.7452 12.4543 42.7714 15.0132C40.4617 18.0076 37.0487 18.3109 37.0487 18.3109L38.4723 22.1086Z" fill="#232323"/>
<path d="M39.0201 20.9786C42.4632 20.7365 44.3787 17.8366 45.4335 19.0626C46.4492 20.2431 45.4008 23.5057 40.7459 25.6931C36.8971 27.5017 34.4034 27.3121 34.4034 27.3121C26.9795 34.8752 13.0987 32.9104 13.0987 32.9104C9.76099 34.8102 8.22009 33.5844 5.63392 35.422C2.991 37.3 3.17186 38.3793 1.9769 38.6579C0.569714 38.986 -0.202751 37.3777 0.442924 35.3706C1.53992 31.9605 5.35221 32.4035 7.01411 27.8103C7.34027 26.9087 8.23514 25.304 8.8647 24.3391C9.40988 23.504 10.0758 22.7685 10.7123 22.31C12.8679 20.7587 15.6642 20.6299 18.1423 19.4686C18.2083 19.4381 18.2734 19.407 18.3377 19.3755C21.2471 17.968 22.7168 16.2383 24.1867 14.3743C24.8166 13.5762 25.36 12.7644 25.8131 11.9601C26.3708 10.9697 26.7925 9.99097 27.0715 9.06173C28.1192 5.57307 29.4804 2.97514 31.8817 2.81453C34.1454 2.66249 36.1531 4.89427 36.9814 6.34014C37.1504 3.76981 37.9621 2.05921 39.0022 2.20163C40.043 2.3439 40.8935 5.86505 41.347 10.6373C41.611 13.415 41.0754 15.9755 40.3781 17.9792C39.6485 20.081 39.3661 20.4892 39.0201 20.9786Z" fill="white"/>
<path d="M1.62273 38.9127C1.75291 38.9127 1.88734 38.8968 2.02494 38.8647C2.67062 38.7142 2.96738 38.3451 3.37806 37.8344C3.81278 37.2937 4.40813 36.5533 5.75652 35.5951C7.01784 34.6989 8.00162 34.5585 9.14074 34.3959C10.2389 34.2392 11.4816 34.0619 13.1412 33.1301C13.6649 33.1964 16.9614 33.5745 20.9888 33.1586C23.5604 32.893 25.925 32.3607 28.0169 31.5763C30.6058 30.6056 32.7823 29.2442 34.4876 27.5287C34.9985 27.5449 37.3631 27.5173 40.836 25.8853C43.6237 24.5754 45.528 22.6674 45.9302 20.7816C46.0919 20.0235 45.9726 19.3638 45.5942 18.924C44.9458 18.1702 44.0776 18.6724 42.9785 19.3081C42.0391 19.8514 40.8913 20.5153 39.4508 20.7195C39.7136 20.2961 40.0201 19.6571 40.5783 18.0491C41.4571 15.5239 41.7868 13.0234 41.5581 10.6173C41.3263 8.17836 40.9949 6.10747 40.5996 4.62847C40.1474 2.93648 39.6343 2.07385 39.0308 1.99139C38.7113 1.94765 38.4074 2.04158 38.1274 2.27042C37.4745 2.80419 37.0104 4.0363 36.825 5.69835C35.8842 4.33776 34.0158 2.45863 31.8674 2.60281C29.0836 2.7889 27.7335 6.11972 26.8683 9.00071C26.5895 9.92924 26.1723 10.8898 25.6283 11.8559C25.1717 12.6663 24.6307 13.4694 24.0203 14.2427C22.4687 16.2103 21.0583 17.8235 18.2454 19.1844C18.1816 19.2157 18.118 19.2461 18.0534 19.2759C17.0478 19.7471 15.9707 20.051 14.929 20.3449C13.4335 20.7668 11.887 21.2032 10.5886 22.1376C9.94077 22.6043 9.24781 23.3643 8.6873 24.2229C8.02444 25.2387 7.14279 26.8313 6.81479 27.7379C5.95285 30.1203 4.52475 31.092 3.14371 32.0317C1.92614 32.8601 0.776134 33.6426 0.241135 35.3055C-0.169907 36.5833 -0.0498352 37.7856 0.554501 38.4433C0.838253 38.7521 1.20844 38.9127 1.62273 38.9127ZM13.0987 32.6981C13.0622 32.6981 13.026 32.7076 12.994 32.7258C11.3731 33.6483 10.2078 33.8147 9.08095 33.9756C7.93688 34.1389 6.85635 34.2931 5.51121 35.2489C4.11484 36.2411 3.49813 37.008 3.0478 37.5681C2.65076 38.0618 2.43209 38.3339 1.92883 38.4512C1.50288 38.5505 1.13537 38.4484 0.866528 38.1558C0.373013 37.6188 0.285942 36.5511 0.644753 35.4359C1.13502 33.912 2.17625 33.2035 3.38195 32.3831C4.75189 31.451 6.30467 30.3944 7.21339 27.8827C7.52669 27.0167 8.40658 25.4294 9.04215 24.4554C9.57517 23.6389 10.229 22.9198 10.836 22.4825C12.0737 21.5918 13.5164 21.1847 15.0439 20.7537C16.102 20.4552 17.1961 20.1465 18.2322 19.6611C18.2986 19.6303 18.3652 19.5986 18.4309 19.5664C21.3192 18.169 22.8218 16.4479 24.353 14.506C24.977 13.7155 25.5303 12.8942 25.9977 12.0646C26.5571 11.0712 26.9867 10.0816 27.2745 9.12302C28.501 5.03844 29.9263 3.15824 31.8958 3.02659C34.1363 2.8761 36.0822 5.19749 36.7974 6.44595C36.8439 6.52721 36.9381 6.56827 37.0291 6.54717C37.1202 6.52608 37.1868 6.44765 37.1929 6.35429C37.3135 4.52017 37.7631 3.11648 38.3956 2.59941C38.5834 2.44589 38.7722 2.38459 38.9735 2.41212C39.669 2.50719 40.6072 5.09358 41.136 10.6575C41.3588 13.0023 41.0365 15.4423 40.1779 17.9094C39.4521 20 39.1718 20.3966 38.8472 20.8559C38.7998 20.9228 38.7952 21.0112 38.8354 21.0827C38.8755 21.1542 38.9537 21.1959 39.035 21.1904C40.7845 21.0674 42.1186 20.2958 43.1905 19.6759C44.3139 19.0263 44.8715 18.7347 45.273 19.2013C45.5627 19.538 45.6488 20.0678 45.5155 20.6929C45.3752 21.3511 44.6099 23.6429 40.6558 25.5009C37.6602 26.9086 35.2661 27.1627 34.4192 27.1004C34.3568 27.0959 34.2959 27.1188 34.2522 27.1632C32.5819 28.8649 30.4358 30.2152 27.8736 31.1766C25.817 31.9484 23.4894 32.4727 20.9554 32.7351C16.6315 33.1829 13.1629 32.705 13.1283 32.7001C13.1184 32.6988 13.1085 32.6981 13.0987 32.6981Z" fill="#232323"/>
<mask id="mask0_1503_3369" style="mask-type:alpha" maskUnits="userSpaceOnUse" x="0" y="2" width="46" height="37">
<path d="M39.0201 20.9786C42.4632 20.7365 44.3787 17.8366 45.4335 19.0626C46.4492 20.2431 45.4008 23.5057 40.7459 25.6931C36.8971 27.5017 34.4034 27.3121 34.4034 27.3121C26.9795 34.8752 13.0987 32.9104 13.0987 32.9104C9.76099 34.8102 8.22009 33.5844 5.63392 35.422C2.991 37.3 3.17186 38.3793 1.9769 38.6579C0.569714 38.986 -0.202751 37.3777 0.442924 35.3706C1.53992 31.9605 5.35221 32.4035 7.01411 27.8103C7.34027 26.9087 8.23514 25.304 8.8647 24.3391C9.40988 23.504 10.0758 22.7685 10.7123 22.31C12.8679 20.7587 15.6642 20.6299 18.1423 19.4686C18.2083 19.4381 18.2734 19.407 18.3377 19.3755C21.2471 17.968 22.7168 16.2383 24.1867 14.3743C24.8166 13.5762 25.36 12.7644 25.8131 11.9601C26.3708 10.9697 26.7925 9.99097 27.0715 9.06173C28.1192 5.57307 29.4804 2.97514 31.8817 2.81453C34.1454 2.66249 36.1531 4.89427 36.9814 6.34014C37.1504 3.76981 37.9621 2.05921 39.0022 2.20163C40.043 2.3439 40.8935 5.86505 41.347 10.6373C41.611 13.415 41.0754 15.9755 40.3781 17.9792C39.6485 20.081 39.3661 20.4892 39.0201 20.9786Z" fill="white"/>
</mask>
<g mask="url(#mask0_1503_3369)">
<path d="M34.6654 27.5306C34.782 27.5306 34.8768 27.4362 34.8774 27.3193C34.878 27.202 34.7835 27.1064 34.6665 27.1059C32.7249 27.0963 31.4206 26.6423 31.4077 26.6377C31.2975 26.5986 31.1762 26.6565 31.1371 26.767C31.098 26.8775 31.1556 26.9987 31.2659 27.038C31.3213 27.0577 32.6457 27.5207 34.6644 27.5306C34.6647 27.5306 34.665 27.5306 34.6654 27.5306Z" fill="#232323"/>
</g>
<mask id="mask1_1503_3369" style="mask-type:alpha" maskUnits="userSpaceOnUse" x="0" y="2" width="46" height="37">
<path d="M39.0201 20.9786C42.4632 20.7365 44.3787 17.8366 45.4335 19.0626C46.4492 20.2431 45.4008 23.5057 40.7459 25.6931C36.8971 27.5017 34.4034 27.3121 34.4034 27.3121C26.9795 34.8752 13.0987 32.9104 13.0987 32.9104C9.76099 34.8102 8.22009 33.5844 5.63392 35.422C2.991 37.3 3.17186 38.3793 1.9769 38.6579C0.569714 38.986 -0.202751 37.3777 0.442924 35.3706C1.53992 31.9605 5.35221 32.4035 7.01411 27.8103C7.34027 26.9087 8.23514 25.304 8.8647 24.3391C9.40988 23.504 10.0758 22.7685 10.7123 22.31C12.8679 20.7587 15.6642 20.6299 18.1423 19.4686C18.2083 19.4381 18.2734 19.407 18.3377 19.3755C21.2471 17.968 22.7168 16.2383 24.1867 14.3743C24.8166 13.5762 25.36 12.7644 25.8131 11.9601C26.3708 10.9697 26.7925 9.99097 27.0715 9.06173C28.1192 5.57307 29.4804 2.97514 31.8817 2.81453C34.1454 2.66249 36.1531 4.89427 36.9814 6.34014C37.1504 3.76981 37.9621 2.05921 39.0022 2.20163C40.043 2.3439 40.8935 5.86505 41.347 10.6373C41.611 13.415 41.0754 15.9755 40.3781 17.9792C39.6485 20.081 39.3661 20.4892 39.0201 20.9786Z" fill="white"/>
</mask>
<g mask="url(#mask1_1503_3369)">
<path d="M38.5068 21.2544C38.8285 21.2544 39.1478 21.2249 39.4103 21.142C39.522 21.1067 39.584 20.9875 39.5487 20.8756C39.5135 20.7637 39.3943 20.7018 39.2828 20.737C38.4994 20.9843 37.0105 20.6632 36.9955 20.66C36.8812 20.635 36.7681 20.7075 36.7431 20.822C36.7181 20.9365 36.7904 21.0497 36.9048 21.0748C36.951 21.0849 37.7357 21.2544 38.5068 21.2544Z" fill="#232323"/>
</g>
<mask id="mask2_1503_3369" style="mask-type:alpha" maskUnits="userSpaceOnUse" x="0" y="2" width="46" height="37">
<path d="M39.0201 20.9786C42.4632 20.7365 44.3787 17.8366 45.4335 19.0626C46.4492 20.2431 45.4008 23.5057 40.7459 25.6931C36.8971 27.5017 34.4034 27.3121 34.4034 27.3121C26.9795 34.8752 13.0987 32.9104 13.0987 32.9104C9.76099 34.8102 8.22009 33.5844 5.63392 35.422C2.991 37.3 3.17186 38.3793 1.9769 38.6579C0.569714 38.986 -0.202751 37.3777 0.442924 35.3706C1.53992 31.9605 5.35221 32.4035 7.01411 27.8103C7.34027 26.9087 8.23514 25.304 8.8647 24.3391C9.40988 23.504 10.0758 22.7685 10.7123 22.31C12.8679 20.7587 15.6642 20.6299 18.1423 19.4686C18.2083 19.4381 18.2734 19.407 18.3377 19.3755C21.2471 17.968 22.7168 16.2383 24.1867 14.3743C24.8166 13.5762 25.36 12.7644 25.8131 11.9601C26.3708 10.9697 26.7925 9.99097 27.0715 9.06173C28.1192 5.57307 29.4804 2.97514 31.8817 2.81453C34.1454 2.66249 36.1531 4.89427 36.9814 6.34014C37.1504 3.76981 37.9621 2.05921 39.0022 2.20163C40.043 2.3439 40.8935 5.86505 41.347 10.6373C41.611 13.415 41.0754 15.9755 40.3781 17.9792C39.6485 20.081 39.3661 20.4892 39.0201 20.9786Z" fill="white"/>
</mask>
<g mask="url(#mask2_1503_3369)">
<path d="M12.5247 33.4518C12.5587 33.4518 12.5932 33.4436 12.6252 33.4263C14.6884 32.3108 17.3302 30.2163 18.255 28.2535C18.3051 28.1474 18.2597 28.0209 18.1538 27.9708C18.0478 27.9207 17.9215 27.9662 17.8716 28.0723C17.0269 29.865 14.4916 31.9347 12.4238 33.0526C12.3208 33.1083 12.2823 33.2371 12.3379 33.3403C12.3762 33.4115 12.4493 33.4518 12.5247 33.4518Z" fill="#232323"/>
</g>
<path d="M39.7866 9.18645C39.6913 9.41253 39.5166 9.60181 39.31 9.74684C39.1031 9.88975 38.8625 9.99415 38.6292 10.0236C38.5096 10.039 38.3842 10.04 38.2635 10.0235C38.1415 10.0105 38.0227 9.97703 37.9079 9.93307C37.6795 9.84162 37.4741 9.69085 37.3188 9.48763L37.315 9.48268C37.2619 9.41317 37.1625 9.39993 37.0931 9.45316C37.0353 9.49747 37.0166 9.57406 37.0426 9.63854C37.1668 9.94609 37.419 10.1975 37.7165 10.3481C37.8649 10.4259 38.027 10.4754 38.1917 10.5052C38.3576 10.5314 38.5248 10.5353 38.6928 10.5143C39.0351 10.4651 39.3384 10.3161 39.5892 10.1045C39.7148 9.99883 39.8256 9.87411 39.915 9.7329C40.0027 9.59133 40.07 9.43157 40.0919 9.26219C40.1032 9.17541 40.042 9.09585 39.9554 9.0846C39.8833 9.07518 39.8162 9.11603 39.7892 9.17994L39.7866 9.18645Z" fill="#232323"/>
<path d="M39.4712 1.80084C39.4715 2.46605 39.2284 3.03408 38.7876 3.07627C38.3468 3.11853 38.007 2.60564 37.875 1.95373C37.7578 1.3755 37.9446 0.737116 38.5586 0.678296C39.1725 0.619476 39.4709 1.14935 39.4712 1.80084Z" fill="#232323"/>
<path d="M29.2841 7.29401C30.7987 6.52665 31.1728 5.38458 32.287 5.48523C33.9424 5.63486 33.8904 9.97256 31.3911 13.4532C29.2586 16.4231 25.8457 18.3475 22.492 15.6885C18.7575 12.7274 20.4112 9.80339 22.2059 9.0783C23.7359 8.46022 28.02 7.93452 29.2841 7.29401Z" fill="#232323"/>
<path d="M35.002 6.56271C34.9533 6.05185 35.2091 5.60944 35.5734 5.57454C35.9377 5.53965 36.2726 5.92549 36.3213 6.43635C36.3701 6.9472 36.1143 7.38961 35.75 7.42451C35.3857 7.4594 35.0508 7.07356 35.002 6.56271Z" fill="#232323"/>
<path d="M12.1074 21.6656C12.1074 21.6656 9.09764 22.6555 6.16206 19.0306C5.54225 18.2653 4.77677 18.2118 5.09636 19.5899C5.66211 22.0294 7.88939 24.1125 10.1288 24.9724L12.1074 21.6656Z" fill="white"/>
<path d="M10.1286 25.1846C10.2013 25.1846 10.2713 25.147 10.3105 25.0814L12.2892 21.7746C12.3347 21.6986 12.3282 21.6022 12.273 21.5329C12.2179 21.4637 12.1257 21.4361 12.0418 21.4635C12.0345 21.4658 11.3083 21.6941 10.2486 21.4937C9.26887 21.3085 7.79319 20.7075 6.32671 18.8967C5.91666 18.3904 5.4599 18.1749 5.13515 18.334C4.91083 18.4438 4.68609 18.7593 4.88984 19.6378C5.16582 20.8279 5.83779 21.9981 6.83309 23.0216C7.74641 23.9609 8.88991 24.724 10.0529 25.1706C10.0776 25.18 10.1032 25.1846 10.1286 25.1846ZM11.6795 21.9671L10.0394 24.7083C7.72796 23.7588 5.79326 21.6568 5.30272 19.5417C5.16314 18.9397 5.2688 18.7412 5.32123 18.7155C5.39926 18.6772 5.67757 18.7697 5.99716 19.1643C7.55439 21.0871 9.14066 21.7221 10.1971 21.9162C10.8181 22.0303 11.3317 22.0111 11.6795 21.9671Z" fill="#232323"/>
<path d="M15.3575 25.0026C12.7729 26.4812 9.89254 26.5728 8.86438 24.339C9.40955 23.504 10.0755 22.7685 10.7119 22.31C12.8676 20.7587 15.6638 20.6298 18.142 19.4686C18.208 19.4381 18.2731 19.407 18.3374 19.3755C18.3834 19.4361 18.4248 19.5001 18.4632 19.5669C19.3326 21.0896 17.9417 23.5226 15.3575 25.0026Z" fill="#232323"/>
</g>
<defs>
<clipPath id="clip0_1503_3369">
<rect width="46" height="40.6923" fill="white" transform="matrix(-1 0 0 1 46 0.653809)"/>
</clipPath>
</defs>
</svg>
