<svg width="600" height="600" viewBox="0 0 600 600" fill="none" xmlns="http://www.w3.org/2000/svg">
<g clip-path="url(#clip0_1447_2745)">
<path d="M553.384 219.545C556.765 277.562 550.677 346.921 503.102 380.116L535.663 543.758C535.748 544.336 535.608 544.924 535.272 545.401C534.936 545.878 534.429 546.206 533.857 546.319C532.629 546.56 531.438 545.759 531.196 544.529L493.566 388.193C471.418 399.623 442.577 399.178 418.22 393.962L384.409 547.778C384.294 548.349 383.964 548.854 383.488 549.189C383.012 549.523 382.425 549.661 381.85 549.575C380.612 549.388 379.759 548.232 379.946 546.992L408.011 389.194C401.428 387.357 394.99 385.032 388.751 382.24C388.245 382.011 387.84 381.603 387.613 381.095C387.387 380.587 387.354 380.013 387.522 379.482C387.901 378.285 389.177 377.623 390.372 378.002L390.382 378.006C420.559 387.563 463.458 392.065 491.542 376.437C551.796 341.776 549.604 248.146 545.018 179.061C544.979 178.484 545.162 177.913 545.53 177.467C545.897 177.02 546.421 176.731 546.994 176.658C548.236 176.5 549.371 177.381 549.528 178.625C551.23 192.237 552.561 205.542 553.384 219.545Z" fill="#232323"/>
</g>
<g clip-path="url(#clip1_1447_2745)">
<path d="M113.578 356.51L86.7268 348.607L58.7425 442.69L85.5933 450.593L113.578 356.51Z" fill="#D9C6F4"/>
<path d="M70.0468 438.23C67.4472 434.848 68.0891 429.994 71.4805 427.386C74.8719 424.779 79.7286 425.406 82.3282 428.787C84.9278 432.168 84.2859 437.023 80.8945 439.63C77.5031 442.238 72.6464 441.611 70.0468 438.23Z" fill="white"/>
<path d="M105.847 362.301L90.0726 357.658L86.5912 369.364L102.366 374.006L105.847 362.301Z" fill="white"/>
</g>
<g clip-path="url(#clip2_1447_2745)">
<path d="M231.443 304.564L184.745 203.708L135.541 203.996L182.552 304.851L231.443 304.564Z" fill="#FFFDFD"/>
<path d="M184.745 203.708L135.541 203.996L182.552 304.851L231.443 304.564L184.745 203.708ZM184.746 199.44C185.558 199.44 186.354 199.673 187.039 200.111C187.723 200.549 188.269 201.174 188.611 201.912L235.308 302.768C235.608 303.416 235.741 304.13 235.694 304.843C235.648 305.557 235.423 306.247 235.041 306.85C234.658 307.454 234.131 307.952 233.507 308.298C232.883 308.644 232.182 308.828 231.468 308.833L182.577 309.12H182.552C181.741 309.12 180.947 308.888 180.263 308.452C179.58 308.016 179.034 307.393 178.691 306.658L131.68 205.802C131.378 205.153 131.243 204.439 131.288 203.724C131.334 203.01 131.558 202.319 131.94 201.714C132.322 201.109 132.849 200.61 133.474 200.262C134.099 199.915 134.801 199.731 135.516 199.727L184.721 199.44H184.746Z" fill="#232323"/>
<path d="M315.953 307.85C318.059 307.381 319.356 305.416 318.851 303.461C318.428 301.823 316.849 300.669 315.034 300.67L182.727 300.634C180.562 300.633 178.806 302.262 178.805 304.273C178.805 306.283 180.559 307.913 182.725 307.914L315.034 307.95C315.343 307.95 315.652 307.917 315.953 307.85Z" fill="#232323"/>
<path d="M187.879 306.072C187.099 306.072 186.467 305.492 186.467 304.778C186.467 304.063 187.099 303.484 187.879 303.484C188.658 303.484 189.29 304.063 189.29 304.778C189.29 305.492 188.658 306.072 187.879 306.072Z" fill="white"/>
<path d="M194.526 305.565H194.532L204.187 305.507C204.299 305.506 204.409 305.484 204.512 305.44C204.615 305.397 204.709 305.333 204.788 305.253C204.866 305.174 204.929 305.079 204.971 304.975C205.013 304.872 205.034 304.76 205.034 304.648C205.031 304.176 204.658 303.803 204.176 303.8L194.522 303.857C194.296 303.858 194.079 303.948 193.92 304.109C193.76 304.269 193.671 304.487 193.672 304.713C193.673 304.94 193.763 305.157 193.923 305.316C194.083 305.476 194.3 305.565 194.526 305.565Z" fill="white"/>
</g>
<g clip-path="url(#clip3_1447_2745)">
<path d="M141.323 353.228L113.334 353.098L112.597 451.252L140.586 451.382L141.323 353.228Z" fill="#D9C6F4"/>
<path d="M122.216 443.826C118.779 441.301 118.047 436.459 120.58 433.011C123.113 429.564 127.953 428.817 131.389 431.343C134.826 433.868 135.559 438.71 133.025 442.157C130.492 445.605 125.653 446.352 122.216 443.826Z" fill="white"/>
<path d="M135.506 360.939L119.063 360.863L118.971 373.075L135.415 373.151L135.506 360.939Z" fill="white"/>
</g>
<g clip-path="url(#clip4_1447_2745)">
<path d="M434.904 195.843C436.869 184.137 434.361 168.249 428.744 158.143C425.386 160.225 421.75 161.991 419.706 161.779C411.313 160.909 406.182 145.906 404.357 141.255C402.227 141.048 398.88 139.074 400.631 137.01C401.434 136.03 402.204 134.961 402.416 133.684C402.63 132.391 402.404 130.843 402.236 129.564C402.108 128.583 401.95 127.61 401.787 126.638C401.559 125.277 401.318 123.918 401.13 122.551C401.129 122.541 401.126 122.528 401.125 122.517C400.984 121.504 400.874 120.488 400.814 119.462C400.583 116.089 400.703 112.701 401.174 109.354C402.405 101.306 406.781 94.1304 413.799 89.873C416.938 88.0084 420.373 86.6925 423.956 85.9821C423.972 85.9786 423.987 85.9768 424.002 85.973C424.232 85.926 424.462 85.8804 424.692 85.8372C445.456 81.9477 459.508 100.923 456.969 116.856C456.754 116.939 456.167 117.17 456.105 117.194C456.105 117.198 456.104 117.196 456.102 117.198C455.984 117.243 450.274 119.324 447.983 120.04C451.056 153.058 475.059 171.208 475.059 171.208L460.481 199.203L434.904 195.843Z" fill="white"/>
<path d="M460.481 200.08C460.443 200.08 460.405 200.077 460.366 200.073L434.79 196.712C434.673 196.697 434.561 196.658 434.459 196.598C434.358 196.538 434.269 196.459 434.199 196.364C434.129 196.269 434.079 196.162 434.051 196.047C434.024 195.933 434.02 195.814 434.039 195.698C435.946 184.341 433.582 169.247 428.411 159.372C425.515 161.102 421.898 162.887 419.616 162.651C411.276 161.787 406.157 148.408 403.972 142.695C403.884 142.466 403.801 142.249 403.723 142.047C402.018 141.713 400.047 140.601 399.454 139.14C399.082 138.226 399.263 137.268 399.962 136.443C400.791 135.43 401.384 134.543 401.551 133.54C401.732 132.445 401.552 131.085 401.393 129.885L401.366 129.678C401.238 128.699 401.078 127.708 400.922 126.782L400.788 125.991C400.605 124.907 400.415 123.785 400.261 122.671C400.258 122.651 400.255 122.63 400.253 122.61C400.098 121.502 399.994 120.479 399.939 119.512C399.704 116.082 399.827 112.637 400.305 109.232C401.613 100.682 406.365 93.3571 413.344 89.1238C416.57 87.2047 420.101 85.8514 423.785 85.1224L423.814 85.1168L423.826 85.1142C424.06 85.066 424.295 85.0197 424.53 84.9754C433.807 83.2382 442.551 85.8138 449.15 92.2292C455.897 98.7878 459.225 108.277 457.835 116.994C457.811 117.145 457.748 117.287 457.652 117.406C457.555 117.526 457.43 117.618 457.287 117.673C457.142 117.729 456.827 117.853 456.619 117.935L456.476 117.991C456.458 118 456.439 118.008 456.42 118.015C456.264 118.075 451.515 119.805 448.925 120.658C450.622 137.142 457.679 149.736 463.342 157.435C469.581 165.915 475.53 170.464 475.589 170.509C475.754 170.634 475.869 170.813 475.915 171.015C475.96 171.217 475.933 171.429 475.838 171.612L461.259 199.608C461.185 199.75 461.074 199.869 460.936 199.953C460.799 200.036 460.642 200.08 460.481 200.08ZM435.911 195.091L459.986 198.254L473.947 171.444C472.273 170.079 467.279 165.735 461.967 158.525C456.075 150.53 448.715 137.377 447.109 120.121C447.09 119.921 447.141 119.721 447.252 119.554C447.363 119.387 447.529 119.263 447.72 119.203C449.851 118.537 455.166 116.608 455.744 116.395L455.787 116.377L455.977 116.303L456.176 116.225C457.276 108.198 454.143 99.5297 447.927 93.486C441.748 87.4792 433.554 85.0689 424.853 86.6989C424.628 86.741 424.403 86.7857 424.178 86.8319H424.178C420.674 87.5189 417.315 88.8026 414.247 90.6269C407.72 94.5862 403.269 101.462 402.041 109.486C401.581 112.77 401.463 116.093 401.69 119.402C401.743 120.332 401.842 121.308 401.994 122.397L401.999 122.434C402.149 123.52 402.337 124.627 402.518 125.699L402.652 126.493C402.81 127.435 402.975 128.445 403.106 129.451L403.133 129.655C403.299 130.911 403.505 132.474 403.282 133.827C403.038 135.294 402.19 136.491 401.31 137.565C400.95 137.99 400.992 138.265 401.079 138.481C401.454 139.405 403.195 140.261 404.441 140.383C404.603 140.398 404.756 140.458 404.885 140.556C405.015 140.653 405.114 140.784 405.173 140.935C405.303 141.264 405.448 141.646 405.611 142.069C407.681 147.481 412.53 160.154 419.796 160.907C421.336 161.066 424.426 159.787 428.282 157.398C428.383 157.336 428.495 157.294 428.613 157.276C428.73 157.259 428.85 157.265 428.965 157.295C429.08 157.325 429.188 157.378 429.281 157.45C429.375 157.523 429.454 157.614 429.511 157.718C435.016 167.622 437.656 183.177 435.911 195.091ZM423.784 85.1242L423.774 85.1265L423.784 85.1242ZM423.786 85.1233L423.784 85.1239C423.785 85.1238 423.786 85.1236 423.786 85.1233Z" fill="#232323"/>
<path d="M411.105 120.908C414.709 120.788 417.474 122.933 417.309 124.669C417.144 126.405 414.072 127.741 410.506 127.196C406.84 126.637 404.08 124.995 404.302 123.435C404.532 121.816 407.527 121.027 411.105 120.908ZM414.406 146.138C415.074 146.17 415.739 146.027 416.335 145.723C416.934 145.439 417.461 145.025 417.878 144.51C418.077 144.253 418.242 143.972 418.37 143.673C418.503 143.375 418.598 143.061 418.653 142.739C418.765 142.077 418.707 141.398 418.484 140.765L418.472 140.73C418.427 140.602 418.428 140.462 418.476 140.334C418.524 140.207 418.616 140.101 418.734 140.034C418.853 139.967 418.992 139.945 419.125 139.97C419.259 139.995 419.38 140.067 419.466 140.172C420.073 140.946 420.373 141.916 420.31 142.897C420.287 143.387 420.188 143.87 420.017 144.33C419.842 144.788 419.602 145.219 419.305 145.61C418.693 146.374 417.875 146.946 416.947 147.257C416.492 147.417 416.014 147.503 415.531 147.514C415.035 147.528 414.541 147.434 414.085 147.238C413.961 147.182 413.861 147.084 413.802 146.962C413.743 146.84 413.729 146.701 413.763 146.569C413.796 146.438 413.875 146.322 413.985 146.243C414.095 146.163 414.229 146.125 414.365 146.135L414.406 146.138ZM415.548 129.311C414.022 129.512 410.37 130.078 406.628 129.584C406.503 129.568 406.377 129.576 406.256 129.608C406.135 129.641 406.022 129.697 405.923 129.773C405.823 129.849 405.74 129.944 405.677 130.052C405.614 130.16 405.574 130.28 405.557 130.404L405.556 130.412C405.387 131.766 405.5 134.002 408.093 134.011C411.279 134.023 415.527 131.525 416.081 129.946C416.107 129.867 416.112 129.783 416.096 129.702C416.08 129.621 416.044 129.545 415.991 129.481C415.937 129.418 415.869 129.369 415.792 129.339C415.714 129.309 415.631 129.299 415.548 129.311Z" fill="#232323"/>
<path d="M402.812 99.5036C407.38 90.7625 386.334 84.4877 382.642 88.1658C379.537 91.2584 397.299 110.051 402.812 99.5036Z" fill="white"/>
<path d="M397.876 103.562C397.726 103.562 397.574 103.558 397.419 103.549C391.395 103.189 383.522 95.5306 381.77 90.9109C381.062 89.0419 381.517 88.0489 382.022 87.5448C384.98 84.5993 395.217 86.921 400.416 90.7417C404.127 93.4684 405.254 96.724 403.589 99.9092C402.336 102.307 400.368 103.562 397.876 103.562ZM386.565 87.9423C385.031 87.9423 383.835 88.2146 383.261 88.7865C383.109 88.9376 383.097 89.4609 383.411 90.2897C384.176 92.3066 386.389 95.1122 389.05 97.4368C392.059 100.067 395.148 101.656 397.524 101.798C399.55 101.917 401.021 101.035 402.034 99.0974C403.285 96.7048 402.391 94.3685 399.377 92.154C395.72 89.4674 390.196 87.9423 386.565 87.9423ZM402.812 99.5036H402.815H402.812Z" fill="#232323"/>
<path d="M440.444 121.046C434.859 121.692 431.438 119.459 426.963 117.894C423.594 116.715 419.425 115.264 416.142 113.51C413.726 116.202 406.394 121.931 400.921 123.27C378.133 128.847 378.962 94.7586 400.655 99.018C404.013 87.9624 424.393 76.3043 443.162 83.8354C458.603 90.031 463.533 105.083 466.739 113.134C470.625 122.894 482.042 137.468 493.078 144.546C505.045 152.221 522.244 150.885 530.016 170C538.295 190.363 525.779 201.835 550.714 221.226C584.303 247.347 560.03 296.44 517.331 281.829C479.16 268.767 501.009 183.816 483.83 176.637C466.929 169.576 456.208 160.85 448.476 131.015C448.476 131.015 443.883 120.648 440.444 121.046Z" fill="#232323"/>
<path d="M532.458 285.361C527.497 285.361 522.311 284.459 517.047 282.658C493.619 274.641 492.267 240.57 491.18 213.194C490.476 195.442 489.867 180.11 483.492 177.446C476.139 174.374 468.452 170.489 462.046 162.933C455.96 155.754 451.383 145.702 447.645 131.305C445.921 127.439 442.57 121.911 440.655 121.911C440.618 121.911 440.582 121.913 440.546 121.917C435.999 122.443 432.861 121.173 429.539 119.827C428.617 119.454 427.663 119.067 426.673 118.721L426.548 118.677C423.398 117.576 419.524 116.22 416.327 114.595C413.422 117.572 406.504 122.807 401.13 124.122C391.985 126.361 387.516 122.346 385.668 119.754C382.489 115.296 382.437 108.566 385.544 103.752C388.552 99.0928 393.814 97.0283 400.064 98.0233C401.968 92.849 407.327 87.6635 414.261 84.3413C423.679 79.8294 434.332 79.3487 443.489 83.0225C458.247 88.9443 463.655 102.818 466.886 111.107C467.119 111.703 467.341 112.272 467.554 112.81C471.238 122.062 482.225 136.545 493.552 143.809C497.22 146.161 501.349 147.632 505.72 149.19C515.369 152.629 525.346 156.185 530.829 169.67C533.818 177.023 534.14 183.112 534.452 189C534.998 199.335 535.47 208.261 551.253 220.535C559.364 226.842 564.663 234.885 566.576 243.795C568.318 251.903 567.124 260.348 563.213 267.574C559.345 274.73 553.013 280.243 545.39 283.095C541.347 284.605 536.996 285.36 532.458 285.361ZM440.624 120.159C444.429 120.159 448.487 128.874 449.278 130.66C449.298 130.704 449.314 130.749 449.326 130.795C456.813 159.685 466.934 168.627 484.169 175.828C491.576 178.923 492.175 194.016 492.934 213.124C493.999 239.966 495.325 273.371 517.616 280.999C527.305 284.315 536.697 284.471 544.775 281.451C552.001 278.748 558.003 273.522 561.67 266.739C565.381 259.88 566.515 251.861 564.861 244.162C563.035 235.66 557.957 227.968 550.175 221.917C533.76 209.152 533.245 199.408 532.699 189.091C532.396 183.348 532.082 177.408 529.203 170.329C524.016 157.571 514.416 154.149 505.131 150.84C500.859 149.318 496.441 147.743 492.604 145.282C480.985 137.831 469.708 122.96 465.924 113.457C465.708 112.915 465.485 112.342 465.251 111.742C462.123 103.717 456.888 90.2868 442.835 84.6481C434.133 81.1567 423.995 81.6201 415.019 85.9204C408.183 89.1956 403.001 94.3112 401.494 99.2716C401.431 99.4795 401.293 99.6565 401.106 99.7684C400.92 99.8803 400.699 99.919 400.485 99.8771C392.489 98.3067 388.616 102.226 387.018 104.701C384.284 108.936 384.317 114.838 387.096 118.734C389.843 122.587 394.68 123.895 400.713 122.417C405.976 121.129 413.13 115.552 415.489 112.924C415.62 112.778 415.796 112.68 415.989 112.646C416.183 112.612 416.382 112.643 416.555 112.736C419.738 114.436 423.835 115.869 427.127 117.021L427.252 117.065C428.282 117.425 429.256 117.82 430.197 118.201C433.44 119.515 436.24 120.649 440.343 120.174L440.444 121.045L440.343 120.174C440.437 120.164 440.531 120.159 440.624 120.159Z" fill="#232323"/>
<path d="M440.286 121.353C441.572 120.711 443.764 114.452 450.82 114.042C457.312 114.041 460.697 124.306 451.955 133.355C450.144 135.142 448.054 136.622 445.767 137.737" fill="white"/>
<path d="M445.768 138.614C445.569 138.614 445.377 138.547 445.221 138.424C445.066 138.3 444.957 138.128 444.912 137.935C444.867 137.742 444.89 137.539 444.975 137.36C445.061 137.181 445.204 137.036 445.383 136.949C447.585 135.876 449.596 134.451 451.339 132.731C454.667 129.285 457.812 123.458 455.672 118.423C454.742 116.237 452.939 114.928 450.845 114.918C446.044 115.208 443.665 118.484 442.242 120.443C441.616 121.306 441.202 121.875 440.678 122.137C440.47 122.24 440.23 122.257 440.01 122.183C439.791 122.11 439.609 121.953 439.504 121.747C439.4 121.54 439.382 121.301 439.453 121.08C439.525 120.86 439.681 120.677 439.887 120.572C440.062 120.46 440.483 119.88 440.822 119.413C442.324 117.345 445.121 113.494 450.769 113.166C450.786 113.165 450.803 113.164 450.82 113.164H450.821C453.653 113.164 456.07 114.874 457.287 117.738C458.214 119.92 458.35 122.606 457.67 125.301C456.91 128.312 455.153 131.307 452.586 133.963C450.705 135.824 448.531 137.365 446.152 138.524C446.032 138.583 445.901 138.614 445.768 138.614Z" fill="#232323"/>
<mask id="mask0_1447_2745" style="mask-type:alpha" maskUnits="userSpaceOnUse" x="400" y="85" width="66" height="111">
<path d="M434.681 195.813C437.032 184.777 434.361 168.25 428.744 158.143C425.386 160.225 421.75 161.991 419.706 161.779C411.313 160.909 406.182 145.906 404.357 141.255C402.227 141.048 398.88 139.074 400.631 137.01C401.434 136.03 402.204 134.961 402.416 133.684C402.63 132.391 402.404 130.843 402.236 129.564C402.108 128.583 401.95 127.61 401.787 126.638C401.559 125.277 401.318 123.918 401.13 122.551C401.129 122.541 401.126 122.528 401.125 122.517C400.984 121.504 400.874 120.488 400.814 119.462C400.583 116.089 400.703 112.701 401.174 109.354C402.405 101.306 406.781 94.1304 413.799 89.873C416.938 88.0084 420.373 86.6925 423.956 85.9821C423.972 85.9786 423.987 85.9768 424.002 85.973C424.232 85.926 424.462 85.8804 424.692 85.8372C445.456 81.9477 459.508 100.923 456.969 116.856C456.754 116.939 456.167 117.17 456.105 117.194C456.105 117.198 456.104 117.196 456.102 117.198C455.984 117.243 449.883 119.585 447.592 120.302C449.396 151.373 465.675 167.443 465.675 167.443L434.681 195.813Z" fill="white"/>
</mask>
<g mask="url(#mask0_1447_2745)">
<path d="M425.816 159.867C427.663 159.873 427.165 165.318 431.559 167.954C440.489 160.215 440.253 152.763 438.536 151.899C436.948 151.099 434.931 153.326 433.629 154.473C431.032 156.767 428.919 158.367 425.816 159.867Z" fill="#232323"/>
<path d="M431.559 168.831C431.4 168.831 431.244 168.787 431.107 168.706C428.31 167.028 427.298 164.29 426.628 162.478C426.39 161.834 426.03 160.86 425.8 160.739C425.392 160.738 425.045 160.458 424.954 160.06C424.863 159.662 425.067 159.256 425.434 159.078C428.498 157.597 430.546 156.027 433.048 153.816C433.223 153.662 433.409 153.489 433.606 153.307C435.045 151.975 437.016 150.152 438.931 151.115C439.66 151.483 440.147 152.37 440.302 153.614C440.434 154.676 440.431 156.932 438.92 160.111C437.514 163.071 435.231 165.932 432.134 168.617C431.974 168.755 431.77 168.831 431.559 168.831ZM427.455 160.016C427.779 160.533 428.023 161.193 428.274 161.871C428.875 163.495 429.61 165.484 431.482 166.852C437.158 161.738 438.86 156.724 438.572 153.93C438.481 153.042 438.209 152.719 438.141 152.681C437.314 152.265 435.8 153.666 434.799 154.593C434.59 154.786 434.393 154.968 434.21 155.13C431.946 157.13 430.031 158.631 427.455 160.016Z" fill="#232323"/>
</g>
<path d="M431.174 120.889C415.568 116.137 405.874 104.494 401.478 99.6816C401.478 99.6816 401.322 95.6464 407.418 91.1199C411.153 96.0221 421.073 112.175 441.572 119.551C439.844 123.853 435.762 122.286 431.174 120.889Z" fill="white"/>
<path d="M437.594 123.23C435.79 123.23 433.744 122.599 431.729 121.977C431.461 121.894 431.19 121.811 430.918 121.728C416.113 117.219 406.425 106.474 401.769 101.31C401.457 100.963 401.144 100.617 400.83 100.273C400.69 100.12 400.609 99.9222 400.601 99.7153C400.595 99.5318 400.502 95.1637 406.895 90.416C407.081 90.2783 407.313 90.2193 407.541 90.2515C407.77 90.2838 407.977 90.4048 408.117 90.5884C408.507 91.1 408.957 91.7248 409.479 92.4483C414.104 98.8588 423.728 112.198 441.87 118.726C441.981 118.766 442.082 118.828 442.169 118.908C442.255 118.988 442.325 119.085 442.373 119.192C442.421 119.299 442.447 119.416 442.45 119.533C442.452 119.651 442.431 119.768 442.387 119.878C441.364 122.422 439.634 123.23 437.594 123.23ZM431.43 120.051C431.704 120.134 431.977 120.218 432.247 120.302C436.393 121.581 438.961 122.234 440.351 120.034C422.297 113.211 412.705 99.9178 408.056 93.4735C407.764 93.069 407.495 92.6956 407.247 92.3583C403.189 95.6125 402.497 98.473 402.379 99.3684C402.598 99.6101 402.83 99.8663 403.073 100.136C407.972 105.57 417.09 115.684 431.43 120.051Z" fill="#232323"/>
<path d="M403.148 98.9988C405.2 98.4333 406.322 96.0117 405.654 93.59C404.986 91.1683 402.78 89.6635 400.728 90.2289C398.675 90.7944 397.553 93.216 398.221 95.6377C398.89 98.0595 401.095 99.5643 403.148 98.9988Z" fill="white"/>
<path d="M402.282 99.9992C400.127 99.9992 398.062 98.3394 397.383 95.8763C397.004 94.5052 397.105 93.0838 397.665 91.8744C398.249 90.6149 399.256 89.7324 400.502 89.3893C403.017 88.6965 405.712 90.479 406.507 93.3629C406.886 94.734 406.785 96.1554 406.225 97.3649C405.641 98.6243 404.634 99.5068 403.388 99.8499C403.028 99.9491 402.656 99.9993 402.282 99.9992ZM401.618 90.9916C401.401 90.9916 401.184 91.0199 400.969 91.0792C400.229 91.2832 399.621 91.827 399.258 92.6107C398.871 93.4444 398.806 94.4386 399.074 95.4102C399.613 97.3628 401.341 98.5945 402.922 98.1594C403.661 97.9554 404.269 97.4116 404.632 96.6279C405.019 95.7942 405.084 94.8001 404.816 93.8284C404.351 92.1417 402.998 90.9916 401.618 90.9916Z" fill="#232323"/>
<path d="M406.427 96.5219C397.427 91.5834 412.034 74.0242 417.354 75.0826C421.827 75.9724 417.288 102.481 406.427 96.5219Z" fill="white"/>
<path d="M409.52 98.269C408.375 98.269 407.195 97.9432 406.005 97.2903C402.742 95.5005 401.845 92.047 403.479 87.5661C405.772 81.2741 413.269 73.3774 417.525 74.2228C418.243 74.3657 419.197 74.958 419.657 76.9665C420.804 81.9681 418.41 93.1169 413.41 96.8909C412.193 97.8084 410.882 98.269 409.52 98.269ZM406.85 95.7535C408.858 96.8555 410.658 96.7699 412.352 95.4914C414.334 93.9958 416.096 90.8329 417.188 86.8134C418.151 83.262 418.449 79.5506 417.947 77.3577C417.723 76.3809 417.395 75.9846 417.182 75.9422C414.389 75.3873 407.432 81.8454 405.128 88.1661C404.207 90.6911 403.758 94.0572 406.85 95.7535ZM443.952 131.855C443.825 131.855 443.701 131.828 443.586 131.775C443.471 131.723 443.369 131.646 443.286 131.551C443.204 131.455 443.143 131.343 443.108 131.222C443.073 131.101 443.064 130.974 443.083 130.849C444.47 121.539 451.128 120.524 451.411 120.485C451.639 120.456 451.87 120.519 452.053 120.659C452.236 120.799 452.357 121.006 452.389 121.234C452.42 121.462 452.361 121.694 452.223 121.878C452.086 122.063 451.881 122.186 451.653 122.221C451.413 122.257 446.004 123.154 444.818 131.107C444.787 131.315 444.683 131.504 444.524 131.641C444.365 131.779 444.162 131.854 443.952 131.855ZM419.066 290.011C513.529 321.57 546.389 299.711 537.323 289.483C521.677 270.62 420.743 283.05 419.066 290.011Z" fill="#232323"/>
<path d="M502.069 307.297C474.022 307.297 441.453 298.414 418.788 290.842C418.58 290.772 418.405 290.627 418.299 290.436C418.192 290.244 418.162 290.019 418.213 289.806C418.822 287.278 426.441 285.513 429.694 284.759C455.218 278.845 524.776 272.981 537.999 288.924C540.044 291.231 540.199 294.122 538.404 296.835C536.529 299.667 532.703 302.119 527.341 303.926C521.235 305.984 513.521 307.11 504.411 307.276C503.635 307.29 502.851 307.297 502.069 307.297ZM420.623 289.604C443.734 297.249 476.588 306.03 504.378 305.523C523.909 305.168 534.004 300.303 536.94 295.868C538.302 293.81 538.207 291.803 536.666 290.064C531.63 283.993 516.019 280.566 492.692 280.395C470.253 280.229 447.635 282.996 435.087 285.414C425.414 287.278 421.893 288.802 420.623 289.604ZM302.128 476.075C301.431 483.898 273.415 490.095 234.876 432.368C234.853 432.368 305.891 453.049 302.128 476.075Z" fill="#232323"/>
<path d="M293.115 481.942C285.079 481.942 276.418 476.955 272.684 474.529C260.141 466.385 247.186 452.379 234.175 432.898C233.963 432.621 234 432.294 234.008 432.242C234.026 432.116 234.072 431.996 234.141 431.89C234.21 431.784 234.302 431.693 234.409 431.626C234.517 431.558 234.637 431.515 234.763 431.499C234.889 431.482 235.017 431.493 235.138 431.531L235.184 431.545C237.12 432.12 254.584 437.388 271.144 445.199C293.865 455.917 304.582 466.342 302.999 476.186C302.767 478.585 300.548 480.602 297.2 481.456C295.876 481.793 294.505 481.942 293.115 481.942ZM236.988 433.931C249.407 452.168 261.731 465.326 273.64 473.059C286.207 481.22 293.999 480.462 296.766 479.756C299.387 479.088 301.107 477.648 301.254 475.998C301.256 475.976 301.258 475.955 301.262 475.934C303.092 464.739 285.486 453.903 270.395 446.785C256.801 440.373 242.591 435.686 236.988 433.931Z" fill="#232323"/>
<path d="M237.78 422.967C236.107 426.751 230.184 439.958 228.209 445.111C223.424 457.436 218.243 472.153 215.223 481.553C215.223 481.6 215.897 484.478 218.266 488.331C218.359 488.447 218.429 488.586 218.499 488.702C221.263 493.02 225.189 497.941 229.556 499.751C232.692 501.051 246.933 492.184 248.094 491.07C248.141 490.977 248.187 490.908 248.234 490.815C251.625 484.687 255.087 478.837 258.502 473.475C259.477 471.967 260.406 470.504 261.359 469.065C263.194 466.303 280.431 437.521 283.01 434.526L237.78 422.967Z" fill="white"/>
<path d="M230.304 500.766C229.713 500.766 229.407 500.638 229.22 500.561C225.453 498.999 221.597 495.169 217.759 489.175C217.724 489.117 217.703 489.079 217.68 489.04C217.65 488.985 217.617 488.931 217.581 488.879C217.558 488.851 217.537 488.821 217.518 488.79C215.172 484.974 214.345 481.92 214.345 481.553C214.345 481.462 214.36 481.372 214.387 481.285C217.167 472.634 222.265 457.995 227.39 444.794C229.084 440.373 233.584 430.249 236.002 424.81C236.4 423.914 236.734 423.163 236.977 422.613C237.061 422.423 237.209 422.269 237.396 422.178C237.583 422.088 237.796 422.066 237.997 422.118L283.226 433.677C283.371 433.714 283.504 433.787 283.612 433.889C283.721 433.992 283.801 434.12 283.846 434.263C283.891 434.405 283.898 434.556 283.868 434.703C283.838 434.849 283.771 434.985 283.674 435.098C281.936 437.115 273.134 451.534 267.31 461.075C264.714 465.326 262.663 468.685 262.089 469.55C261.427 470.55 260.786 471.546 260.108 472.6C259.821 473.046 259.531 473.496 259.237 473.951C255.854 479.264 252.411 485.077 249.008 491.223C248.98 491.279 248.952 491.329 248.923 491.379C248.908 491.405 248.893 491.432 248.877 491.462C248.833 491.552 248.773 491.632 248.701 491.702C248.02 492.355 244.057 494.905 239.979 497.088C234.249 500.157 231.597 500.766 230.304 500.766ZM218.989 487.833C219.081 487.955 219.149 488.074 219.205 488.172L219.251 488.252C221.74 492.139 225.62 497.17 229.892 498.942C230.166 499.055 231.901 499.424 239.151 495.543C243.12 493.418 246.674 491.106 247.398 490.514L247.401 490.509C247.416 490.482 247.432 490.455 247.447 490.424C247.453 490.413 247.459 490.401 247.465 490.39C250.888 484.207 254.352 478.358 257.761 473.005C258.052 472.554 258.342 472.104 258.632 471.652C259.314 470.593 259.957 469.593 260.627 468.581C261.183 467.743 263.226 464.398 265.812 460.162C271.339 451.107 278.687 439.071 281.519 435.05L238.281 424L237.605 425.521C235.194 430.946 230.706 441.043 229.027 445.424C223.96 458.476 218.921 472.93 216.134 481.585C216.319 482.262 217.064 484.692 218.989 487.833Z" fill="#232323"/>
<path d="M226.536 449.428C221.751 461.754 218.22 472.129 215.223 481.53C215.223 481.576 215.897 484.454 218.266 488.308C218.359 488.424 218.429 488.563 218.499 488.679L229.556 499.728C232.692 501.028 246.933 492.161 248.094 491.046C248.141 490.954 248.745 490.861 248.768 490.768C252.137 484.64 259.895 471.433 261.359 469.042L226.536 449.428Z" fill="#D9C6F4"/>
<mask id="mask1_1447_2745" style="mask-type:alpha" maskUnits="userSpaceOnUse" x="215" y="445" width="47" height="55">
<path d="M228.069 445.041C223.331 457.39 218.173 472.106 215.2 481.53C215.2 481.577 215.897 484.455 218.266 488.308C218.359 488.424 218.429 488.563 218.498 488.679L229.579 499.705C232.715 501.005 246.932 492.091 248.094 490.977C248.14 490.884 248.466 491.72 248.512 491.627C251.881 485.476 260.359 470.365 261.289 468.926L228.069 445.041Z" fill="white"/>
</mask>
<g mask="url(#mask1_1447_2745)">
<path d="M219.544 456.276L219.567 456.299L259.57 478.814C259.838 478.958 260.152 478.991 260.444 478.904C260.736 478.817 260.981 478.617 261.126 478.35C261.428 477.793 261.242 477.119 260.685 476.818L220.682 454.302C220.125 453.978 219.428 454.163 219.126 454.72C218.801 455.254 218.986 455.974 219.544 456.276Z" fill="white"/>
</g>
<path d="M230.304 500.766C229.713 500.766 229.407 500.638 229.22 500.561C225.453 498.999 221.597 495.169 217.759 489.175C217.724 489.117 217.703 489.079 217.68 489.04C217.65 488.985 217.617 488.931 217.581 488.879C217.558 488.851 217.537 488.821 217.518 488.79C215.172 484.974 214.345 481.92 214.345 481.553C214.345 481.462 214.36 481.372 214.387 481.285C217.167 472.634 222.265 457.995 227.39 444.794C229.084 440.373 233.584 430.249 236.002 424.81C236.4 423.914 236.734 423.163 236.977 422.613C237.061 422.423 237.209 422.269 237.396 422.178C237.583 422.088 237.796 422.066 237.997 422.118L283.226 433.677C283.371 433.714 283.504 433.787 283.612 433.889C283.721 433.992 283.801 434.12 283.846 434.263C283.891 434.405 283.898 434.556 283.868 434.703C283.838 434.849 283.771 434.985 283.674 435.098C281.936 437.115 273.134 451.534 267.31 461.075C264.714 465.326 262.663 468.685 262.089 469.55C261.427 470.55 260.786 471.546 260.108 472.6C259.821 473.046 259.531 473.496 259.237 473.951C255.854 479.264 252.411 485.077 249.008 491.223C248.98 491.279 248.952 491.329 248.923 491.379C248.908 491.405 248.893 491.432 248.877 491.462C248.833 491.552 248.773 491.632 248.701 491.702C248.02 492.355 244.057 494.905 239.979 497.088C234.249 500.157 231.597 500.766 230.304 500.766ZM218.989 487.833C219.081 487.955 219.149 488.074 219.205 488.172L219.251 488.252C221.74 492.139 225.62 497.17 229.892 498.942C230.166 499.055 231.901 499.424 239.151 495.543C243.12 493.418 246.674 491.106 247.398 490.514L247.401 490.509C247.416 490.482 247.432 490.455 247.447 490.424C247.453 490.413 247.459 490.401 247.465 490.39C250.888 484.207 254.352 478.358 257.761 473.005C258.052 472.554 258.342 472.104 258.632 471.652C259.314 470.593 259.957 469.593 260.627 468.581C261.183 467.743 263.226 464.398 265.812 460.162C271.339 451.107 278.687 439.071 281.519 435.05L238.281 424L237.605 425.521C235.194 430.946 230.706 441.043 229.027 445.424C223.96 458.476 218.921 472.93 216.134 481.585C216.319 482.262 217.064 484.692 218.989 487.833Z" fill="#232323"/>
<path d="M388.429 307.396C337.136 307.326 272.467 328.495 232.674 432.368C232.674 432.368 242.031 441.559 263.961 448.871C293.022 458.55 303.459 467.812 303.087 475.611C303.087 475.611 307.169 429.489 334.302 394.417C338.321 389.24 355.396 376.219 368.312 367.793C392.494 352.055 421.091 331.745 421.393 327.103C421.927 318.514 404.621 307.419 388.429 307.396Z" fill="#00676C"/>
<path d="M159.277 482.577C160.276 486.897 165.55 493.838 178.013 499.486L238.224 526.517C242.514 515.943 246.902 500.329 253.982 483.386C249.247 481.882 248.038 484.078 241.234 483.001C233.352 481.755 227.676 474.9 207.63 472.867C207.32 472.836 207.019 472.768 206.716 472.719C206.631 472.706 206.548 472.691 206.465 472.679C200.7 471.781 195.482 471.53 190.8 471.717C170.594 472.533 160.364 481.567 159.359 482.497C159.359 482.497 159.357 482.497 159.356 482.499C159.333 482.52 159.315 482.539 159.302 482.552C159.286 482.569 159.277 482.577 159.277 482.577Z" fill="white"/>
<path d="M238.225 527.394C238.102 527.394 237.979 527.368 237.865 527.317L177.654 500.286C165.149 494.618 159.521 487.524 158.423 482.774C158.389 482.626 158.394 482.473 158.437 482.327C158.48 482.182 158.56 482.051 158.669 481.946L158.672 481.95L158.688 481.931L158.685 481.929C158.721 481.892 158.758 481.856 158.798 481.823C160.086 480.642 170.53 471.659 190.765 470.841C195.83 470.639 201.158 470.966 206.601 471.813L206.853 471.854C206.965 471.872 207.073 471.892 207.182 471.911C207.371 471.946 207.549 471.978 207.719 471.996C221.27 473.37 227.555 476.478 232.606 478.975C235.041 480.18 237.145 481.22 239.623 481.824C242.25 482.464 244.436 482.221 246.55 481.986C248.957 481.718 251.446 481.442 254.305 482.571C254.414 482.614 254.513 482.678 254.596 482.76C254.68 482.841 254.746 482.939 254.791 483.046C254.836 483.154 254.86 483.269 254.86 483.386C254.86 483.503 254.837 483.618 254.792 483.726C251.644 491.206 248.514 500.256 245.488 509.007C243.151 515.767 240.943 522.151 239.038 526.847C238.972 527.008 238.86 527.147 238.715 527.244C238.57 527.342 238.399 527.394 238.225 527.394ZM160.26 482.869C162.12 489.317 171.102 495.391 178.376 498.688L237.75 525.343C239.56 520.78 241.638 514.772 243.829 508.435C246.614 500.381 249.756 491.295 252.814 483.909C250.718 483.286 248.859 483.493 246.744 483.728C244.583 483.968 242.135 484.24 239.207 483.527C236.54 482.877 234.356 481.797 231.827 480.547C226.904 478.112 220.777 475.082 207.541 473.74C207.302 473.716 207.08 473.675 206.866 473.636C206.77 473.618 206.673 473.601 206.577 473.585L206.334 473.546C201 472.715 195.785 472.395 190.835 472.593C172.267 473.343 162.313 481.088 160.26 482.869ZM159.132 482.387L159.306 482.548L159.132 482.387Z" fill="#232323"/>
<path d="M246.042 503.553C245.913 503.553 245.781 503.524 245.657 503.463C245.491 503.382 241.55 501.411 238.457 496.117C238.111 495.524 237.767 494.929 237.424 494.333C234.744 489.676 233.52 487.551 228.951 484.909C228.851 484.851 228.763 484.775 228.693 484.683C228.623 484.592 228.572 484.488 228.542 484.376C228.512 484.265 228.505 484.149 228.52 484.035C228.535 483.921 228.573 483.811 228.63 483.711C228.688 483.612 228.765 483.524 228.856 483.454C228.948 483.384 229.052 483.333 229.163 483.303C229.275 483.274 229.391 483.266 229.505 483.281C229.619 483.296 229.729 483.334 229.829 483.391C234.806 486.268 236.189 488.671 238.946 493.458C239.266 494.015 239.606 494.605 239.973 495.233C242.801 500.073 246.393 501.87 246.429 501.888C246.607 501.975 246.751 502.12 246.836 502.299C246.921 502.478 246.943 502.681 246.898 502.874C246.853 503.067 246.744 503.239 246.589 503.363C246.433 503.486 246.241 503.553 246.042 503.553ZM242.177 514.075C242.007 514.075 241.84 514.025 241.697 513.932C241.554 513.839 241.442 513.707 241.373 513.551C241.332 513.458 238.496 507.222 232.027 505.131C228.498 503.989 226.173 504.584 223.712 505.213C221.802 505.702 219.827 506.206 217.285 505.916C214.039 505.545 212.149 504.268 210.321 503.032C208.159 501.571 206.117 500.19 201.688 500.07C182.865 499.556 169.094 492.774 161.862 480.459C161.751 480.259 161.722 480.023 161.782 479.802C161.843 479.581 161.987 479.393 162.185 479.277C162.383 479.161 162.618 479.127 162.84 479.182C163.063 479.237 163.255 479.377 163.375 479.571C167.548 486.677 173.959 491.851 182.431 494.947C188.008 496.986 194.503 498.119 201.736 498.317C206.676 498.452 209.134 500.114 211.304 501.58C213.033 502.749 214.666 503.852 217.485 504.174C219.705 504.428 221.44 503.984 223.277 503.514C225.872 502.851 228.555 502.165 232.568 503.462C239.819 505.807 242.854 512.559 242.98 512.846C243.026 512.951 243.051 513.064 243.054 513.18C243.056 513.295 243.036 513.409 242.994 513.516C242.952 513.624 242.889 513.722 242.81 513.805C242.73 513.888 242.634 513.954 242.529 514C242.418 514.049 242.298 514.075 242.177 514.075Z" fill="#232323"/>
<path d="M235.702 516.877C236.671 514.74 234.498 511.667 230.848 510.013C227.198 508.358 223.452 508.749 222.483 510.885C221.513 513.022 223.686 516.095 227.336 517.749C230.986 519.404 234.732 519.013 235.702 516.877Z" fill="#00676C"/>
<path d="M212.899 491.146L212.866 491.145C212.284 491.137 211.73 490.898 211.325 490.48C210.919 490.063 210.697 489.503 210.705 488.921C210.707 488.589 210.664 480.471 202.893 473.435C202.68 473.242 202.507 473.009 202.383 472.748C202.26 472.488 202.19 472.206 202.175 471.919C202.161 471.631 202.204 471.344 202.301 471.073C202.398 470.802 202.547 470.553 202.741 470.339C202.934 470.126 203.168 469.953 203.428 469.83C203.689 469.707 203.971 469.636 204.258 469.622C204.546 469.608 204.834 469.651 205.105 469.748C205.376 469.845 205.626 469.994 205.839 470.187C215.139 478.607 215.098 488.567 215.092 488.987C215.083 489.562 214.848 490.111 214.438 490.515C214.028 490.919 213.475 491.145 212.899 491.146ZM204.247 490.638C203.682 490.637 203.14 490.419 202.732 490.029C202.324 489.639 202.082 489.106 202.057 488.543C202.053 488.458 201.499 479.294 193.548 473.199C193.086 472.846 192.784 472.323 192.708 471.747C192.632 471.17 192.788 470.588 193.143 470.126C193.497 469.665 194.02 469.363 194.596 469.288C195.173 469.212 195.756 469.368 196.218 469.722C205.837 477.094 206.42 487.893 206.44 488.349C206.453 488.645 206.406 488.941 206.302 489.218C206.198 489.495 206.038 489.748 205.833 489.962C205.628 490.176 205.382 490.346 205.109 490.462C204.837 490.578 204.543 490.638 204.247 490.638ZM194.721 489.051C194.165 489.05 193.63 488.839 193.224 488.459C192.818 488.08 192.572 487.56 192.535 487.006C192.511 486.695 191.859 479.104 184.68 473.737C184.219 473.387 183.915 472.869 183.834 472.296C183.754 471.723 183.903 471.142 184.25 470.679C184.597 470.216 185.113 469.908 185.686 469.824C186.259 469.739 186.842 469.884 187.308 470.227C196.15 476.838 196.884 486.312 196.912 486.712C196.932 487.012 196.89 487.313 196.789 487.595C196.688 487.878 196.53 488.138 196.325 488.357C196.119 488.576 195.871 488.751 195.595 488.87C195.319 488.99 195.022 489.051 194.721 489.051Z" fill="#00676C"/>
<path d="M449.246 412.986C466.785 418.835 445.274 447.989 395.793 458.295C395.77 458.295 412.356 403.98 449.246 412.986Z" fill="#232323"/>
<path d="M395.793 459.172C395.627 459.172 395.464 459.125 395.324 459.036C395.184 458.948 395.072 458.821 395 458.672C394.838 458.331 394.805 458.26 395.934 455.156C396.529 453.52 397.528 450.927 398.906 447.864C401.335 442.468 405.422 434.571 411.108 427.595C416.095 421.474 421.529 416.992 427.259 414.273C434.236 410.962 441.703 410.242 449.454 412.135C449.478 412.141 449.501 412.147 449.524 412.155C454.035 413.659 456.387 416.755 456.147 420.87C455.79 426.968 449.685 434.69 439.815 441.527C431.815 447.068 417.715 454.625 395.972 459.153C395.913 459.166 395.853 459.172 395.793 459.172ZM441.153 412.861C435.865 412.861 430.768 414.222 425.926 416.935C420.099 420.202 414.61 425.424 409.613 432.459C402.5 442.472 398.409 453.325 397.103 457.12C433.574 449.152 453.798 430.996 454.395 420.768C454.587 417.48 452.723 415.081 449.003 413.829C446.346 413.183 443.727 412.861 441.153 412.861Z" fill="#232323"/>
<mask id="mask2_1447_2745" style="mask-type:alpha" maskUnits="userSpaceOnUse" x="392" y="445" width="54" height="49">
<path d="M392.192 470.249C402.507 478.512 414.981 487.913 423.042 493.623C423.089 493.646 426.039 493.855 430.429 492.764C430.569 492.718 430.708 492.695 430.871 492.671L444.762 485.476C446.946 482.876 442.788 466.651 442.068 465.189C441.998 465.119 442.881 465.049 442.811 464.98C437.979 459.896 426.155 447.246 425.063 445.9L392.192 470.249Z" fill="white"/>
</mask>
<g mask="url(#mask2_1447_2745)">
<path d="M400.3 481.785L400.323 481.762L433.96 450.543C434.425 450.125 434.471 449.382 434.03 448.918C433.612 448.454 432.868 448.407 432.404 448.848L432.381 448.871L398.743 480.091C398.522 480.299 398.391 480.586 398.378 480.889C398.365 481.193 398.471 481.489 398.674 481.716C399.115 482.157 399.835 482.203 400.3 481.785Z" fill="white"/>
</g>
<path d="M375.025 454.117C378.115 456.856 387.871 466.558 392.192 470.017C402.484 478.327 414.912 487.751 422.973 493.461C423.019 493.484 425.969 493.716 430.36 492.625C430.5 492.579 430.639 492.555 430.801 492.532C435.773 491.209 441.65 488.981 444.693 485.383C446.9 482.806 442.789 466.535 442.068 465.096C441.999 465.026 441.952 464.956 441.883 464.887C437.074 459.804 432.544 454.697 428.479 449.822C427.34 448.43 426.225 447.083 425.134 445.76C423.066 443.184 409.058 428.143 406.967 424.8L375.025 454.117Z" fill="white"/>
<path d="M423.997 494.372C423.212 494.372 422.713 494.312 422.578 494.244C422.538 494.224 422.501 494.201 422.465 494.176C413.941 488.139 401.554 478.704 391.64 470.699C388.851 468.466 383.831 463.668 379.797 459.813C377.515 457.633 375.545 455.75 374.442 454.773C374.35 454.692 374.277 454.592 374.226 454.48C374.175 454.368 374.149 454.247 374.147 454.125C374.146 454.002 374.171 453.881 374.22 453.768C374.269 453.656 374.341 453.555 374.431 453.472L406.373 424.155C406.468 424.068 406.581 424.003 406.704 423.965C406.827 423.926 406.957 423.915 407.085 423.932C407.212 423.95 407.335 423.995 407.443 424.065C407.551 424.135 407.643 424.227 407.711 424.337C409.044 426.467 415.609 433.766 420.402 439.096C423.023 442.009 425.092 444.309 425.817 445.213L426.525 446.07C427.388 447.116 428.266 448.178 429.158 449.269C433.325 454.266 437.823 459.32 442.52 464.286C442.557 464.323 442.604 464.377 442.649 464.431C442.662 464.446 442.673 464.462 442.688 464.477C442.755 464.543 442.81 464.62 442.852 464.704C443.407 465.814 448.076 482.782 445.359 485.954C442.744 489.045 437.921 491.545 431.027 493.38C430.993 493.389 430.959 493.396 430.924 493.401C430.794 493.419 430.705 493.434 430.637 493.457C430.615 493.464 430.593 493.471 430.571 493.476C427.752 494.176 425.41 494.372 423.997 494.372ZM423.283 492.606C423.956 492.638 426.496 492.679 430.119 491.782C430.284 491.732 430.453 491.695 430.624 491.672C437.048 489.957 441.68 487.587 444.023 484.817C444.219 484.588 445.105 483.056 443.615 474.972C442.791 470.502 441.66 466.407 441.323 465.58C441.315 465.571 441.308 465.562 441.3 465.552C441.288 465.537 441.276 465.522 441.261 465.507C436.522 460.498 432 455.416 427.803 450.384C426.908 449.289 426.033 448.229 425.171 447.186L424.455 446.319C423.754 445.444 421.596 443.045 419.097 440.267C414.524 435.184 408.951 428.988 406.821 426.125L376.326 454.113C377.486 455.18 379.144 456.765 381.009 458.547C385.018 462.378 390.008 467.147 392.74 469.333C402.555 477.258 414.794 486.583 423.283 492.606Z" fill="#232323"/>
<path d="M395.77 472.918C406.061 481.228 414.865 487.751 422.926 493.461C422.972 493.484 425.923 493.716 430.313 492.625C430.452 492.579 430.592 492.556 430.754 492.532L444.646 485.383C446.853 482.807 442.741 466.535 442.021 465.096C441.951 465.026 442.021 464.423 441.951 464.353C437.142 459.27 426.898 447.873 425.063 445.761L395.77 472.918Z" fill="#D9C6F4"/>
<mask id="mask3_1447_2745" style="mask-type:alpha" maskUnits="userSpaceOnUse" x="392" y="445" width="54" height="49">
<path d="M392.076 470.133C402.39 478.396 414.865 487.797 422.926 493.507C422.973 493.53 425.923 493.739 430.314 492.648C430.453 492.602 430.592 492.579 430.755 492.555L444.647 485.36C446.831 482.76 442.672 466.535 441.952 465.072C441.882 465.003 442.765 464.933 442.695 464.864C437.864 459.78 426.039 447.13 424.948 445.784L392.076 470.133Z" fill="white"/>
</mask>
<g mask="url(#mask3_1447_2745)">
<path d="M400.183 481.669L400.207 481.646L433.844 450.426C434.066 450.218 434.197 449.932 434.21 449.628C434.223 449.325 434.117 449.028 433.914 448.802C433.705 448.58 433.419 448.449 433.115 448.436C432.811 448.423 432.514 448.53 432.288 448.732L398.65 479.952C398.185 480.393 398.162 481.112 398.604 481.576C399.022 482.017 399.719 482.064 400.183 481.669Z" fill="white"/>
</g>
<path d="M423.997 494.372C423.212 494.372 422.713 494.312 422.578 494.244C422.538 494.224 422.501 494.201 422.465 494.176C413.941 488.139 401.554 478.704 391.64 470.699C388.851 468.466 383.831 463.668 379.797 459.813C377.515 457.633 375.545 455.75 374.442 454.773C374.35 454.692 374.277 454.592 374.226 454.48C374.175 454.368 374.149 454.247 374.147 454.125C374.146 454.002 374.171 453.881 374.22 453.768C374.269 453.656 374.341 453.555 374.431 453.472L406.373 424.155C406.468 424.068 406.581 424.003 406.704 423.965C406.827 423.926 406.957 423.915 407.085 423.932C407.212 423.95 407.335 423.995 407.443 424.065C407.551 424.135 407.643 424.227 407.711 424.337C409.044 426.467 415.609 433.766 420.402 439.096C423.023 442.009 425.092 444.309 425.817 445.213L426.525 446.07C427.388 447.116 428.266 448.178 429.158 449.269C433.325 454.266 437.823 459.32 442.52 464.286C442.557 464.323 442.604 464.377 442.649 464.431C442.662 464.446 442.673 464.462 442.688 464.477C442.755 464.543 442.81 464.62 442.852 464.704C443.407 465.814 448.076 482.782 445.359 485.954C442.744 489.045 437.921 491.545 431.027 493.38C430.993 493.389 430.959 493.396 430.924 493.401C430.794 493.419 430.705 493.434 430.637 493.457C430.615 493.464 430.593 493.471 430.571 493.476C427.752 494.176 425.41 494.372 423.997 494.372ZM423.283 492.606C423.956 492.638 426.496 492.679 430.119 491.782C430.284 491.732 430.453 491.695 430.624 491.672C437.048 489.957 441.68 487.587 444.023 484.817C444.219 484.588 445.105 483.056 443.615 474.972C442.791 470.502 441.66 466.407 441.323 465.58C441.315 465.571 441.308 465.562 441.3 465.552C441.288 465.537 441.276 465.522 441.261 465.507C436.522 460.498 432 455.416 427.803 450.384C426.908 449.289 426.033 448.229 425.171 447.186L424.455 446.319C423.754 445.444 421.596 443.045 419.097 440.267C414.524 435.184 408.951 428.988 406.821 426.125L376.326 454.113C377.486 455.18 379.144 456.765 381.009 458.547C385.018 462.378 390.008 467.147 392.74 469.333C402.555 477.258 414.794 486.583 423.283 492.606Z" fill="#232323"/>
<path d="M501.259 287.132C501.259 287.132 533.224 317.54 513.432 355.607C493.175 394.556 438.653 390.146 405.294 384.807C405.294 384.807 422.093 398.853 449.83 412.246C449.83 412.246 433.542 410.247 418.814 424.894C407.896 435.734 402.739 452.002 385.804 465.511C367.336 449.379 289.235 375.43 327.379 326.964C346.358 302.823 397.953 305.748 428.083 308.278C447.806 296.835 457.864 297.113 457.864 297.113L501.259 287.132Z" fill="#00676C"/>
<mask id="mask4_1447_2745" style="mask-type:alpha" maskUnits="userSpaceOnUse" x="232" y="307" width="190" height="169">
<path d="M388.429 307.396C337.136 307.326 272.467 328.495 232.674 432.368C232.674 432.368 242.031 441.559 263.961 448.871C293.022 458.55 303.459 467.812 303.087 475.611C303.087 475.611 307.169 429.489 334.302 394.417C338.321 389.24 355.396 376.219 368.312 367.793C392.494 352.055 421.091 331.745 421.393 327.103C421.927 318.514 404.621 307.419 388.429 307.396Z" fill="white"/>
</mask>
<g mask="url(#mask4_1447_2745)">
<path d="M330.914 403.967C330.758 403.967 330.604 403.925 330.469 403.846C330.334 403.767 330.223 403.653 330.147 403.516C330.098 403.429 325.231 394.631 321.52 382.639C315.29 362.511 317.024 348.963 319.576 341.141C323.92 327.824 333.474 319.867 340.724 315.537C348.561 310.857 355.281 309.333 355.563 309.271C355.676 309.246 355.792 309.243 355.906 309.263C356.019 309.283 356.127 309.325 356.225 309.387C356.322 309.449 356.406 309.529 356.472 309.624C356.538 309.718 356.585 309.824 356.61 309.937C356.66 310.163 356.618 310.401 356.493 310.597C356.369 310.793 356.171 310.932 355.944 310.983C355.877 310.998 349.174 312.523 341.574 317.073C334.601 321.247 325.413 328.906 321.244 341.685C316.767 355.407 319.829 371.229 323.185 382.086C326.841 393.911 331.632 402.578 331.68 402.664C331.755 402.797 331.793 402.947 331.791 403.1C331.789 403.253 331.748 403.402 331.67 403.534C331.593 403.666 331.483 403.775 331.35 403.851C331.217 403.927 331.067 403.967 330.914 403.967Z" fill="white"/>
</g>
<path d="M488.095 325.637C487.948 325.637 487.804 325.6 487.675 325.53C482.805 322.869 477.859 322.301 477.81 322.296C477.579 322.271 477.367 322.155 477.221 321.973C477.075 321.792 477.008 321.56 477.033 321.329C477.058 321.098 477.174 320.886 477.356 320.741C477.537 320.595 477.769 320.528 478 320.553C478.215 320.576 483.329 321.157 488.517 323.991C488.688 324.085 488.823 324.232 488.901 324.411C488.979 324.59 488.995 324.789 488.947 324.978C488.898 325.167 488.788 325.334 488.634 325.454C488.48 325.573 488.29 325.638 488.095 325.637Z" fill="white"/>
<mask id="mask5_1447_2745" style="mask-type:alpha" maskUnits="userSpaceOnUse" x="317" y="287" width="203" height="179">
<path d="M501.259 287.132C501.259 287.132 533.224 317.54 513.432 355.607C493.175 394.556 438.653 390.146 405.294 384.807C405.294 384.807 422.093 398.853 449.83 412.246C449.83 412.246 433.542 410.247 418.814 424.894C407.896 435.734 402.739 452.002 385.804 465.511C367.336 449.379 289.235 375.43 327.379 326.964C346.358 302.823 397.953 305.748 428.083 308.278C447.806 296.835 457.864 297.113 457.864 297.113L501.259 287.132Z" fill="white"/>
</mask>
<g mask="url(#mask5_1447_2745)">
<path d="M408.53 387.067C408.339 387.068 408.153 387.005 408.001 386.89C397.576 379.004 389.823 371.077 385.155 365.816C382.491 362.815 380.535 360.353 379.363 358.816C378.864 358.164 378.377 357.505 377.901 356.836C377.273 355.952 377.084 355.685 377.383 355.182L378.137 355.63L378.797 356.209L378.137 355.63L378.892 355.184C378.98 355.326 389.317 370.557 409.059 385.492C409.206 385.603 409.313 385.757 409.367 385.933C409.421 386.108 409.419 386.296 409.361 386.47C409.302 386.644 409.19 386.795 409.041 386.902C408.892 387.009 408.713 387.067 408.53 387.067Z" fill="white"/>
</g>
<path d="M407.7 548.694C412.123 549.054 420.342 546.138 429.51 535.985L473.552 486.857C464.77 479.565 451.21 470.651 437.2 458.77C434.33 462.823 436.057 464.64 432.966 470.792C429.387 477.918 421.128 481.243 413.109 499.712C412.985 499.998 412.829 500.264 412.69 500.538C412.651 500.615 412.613 500.689 412.575 500.764C409.971 505.981 408.148 510.873 406.906 515.388C401.555 534.873 407.067 547.354 407.649 548.593C407.649 548.593 407.648 548.594 407.65 548.596C407.663 548.625 407.676 548.647 407.684 548.663C407.695 548.684 407.7 548.694 407.7 548.694Z" fill="white"/>
<path d="M408.441 549.6C408.16 549.6 407.89 549.589 407.629 549.568C407.478 549.556 407.332 549.505 407.206 549.419C407.081 549.333 406.979 549.217 406.912 549.08C406.894 549.046 406.876 549.012 406.859 548.977C406.851 548.96 406.844 548.944 406.837 548.927C406.108 547.357 400.698 534.684 406.06 515.155C407.403 510.271 409.332 505.298 411.791 500.372L411.907 500.142C411.957 500.044 412.009 499.946 412.061 499.848C412.151 499.679 412.236 499.52 412.304 499.363C417.725 486.877 422.596 481.836 426.509 477.786C428.396 475.832 430.027 474.145 431.354 471.968C432.762 469.661 433.193 467.506 433.61 465.422C434.085 463.05 434.576 460.596 436.52 458.217C436.594 458.126 436.685 458.051 436.788 457.996C436.892 457.942 437.005 457.908 437.121 457.897C437.355 457.877 437.589 457.951 437.769 458.104C443.947 463.369 451.626 469.092 459.052 474.627C464.791 478.904 470.212 482.944 474.112 486.183C474.203 486.258 474.278 486.351 474.332 486.456C474.386 486.561 474.418 486.676 474.427 486.793C474.436 486.911 474.42 487.029 474.382 487.14C474.344 487.252 474.284 487.355 474.205 487.443L430.163 536.57C421.458 546.211 413.401 549.6 408.441 549.6ZM408.277 547.848C408.368 547.851 408.459 547.852 408.55 547.852C415.22 547.852 423.58 541.244 428.858 535.398L472.289 486.953C468.485 483.844 463.385 480.043 458.003 476.032C451.17 470.939 443.459 465.192 437.344 460.042C436.116 461.848 435.748 463.682 435.331 465.766C434.905 467.895 434.422 470.309 432.853 472.881C431.424 475.223 429.731 476.975 427.771 479.003C423.956 482.952 419.208 487.867 413.913 500.061C413.818 500.281 413.712 500.48 413.61 500.671C413.564 500.758 413.518 500.845 413.473 500.933L413.36 501.155C410.952 505.979 409.065 510.846 407.751 515.62C402.835 533.526 407.201 545.353 408.277 547.848Z" fill="#232323"/>
<path d="M430.47 483.293C430.293 483.293 430.12 483.24 429.974 483.14C429.828 483.04 429.715 482.898 429.651 482.733C429.588 482.568 429.575 482.388 429.616 482.216C429.656 482.043 429.748 481.888 429.879 481.769C434.133 477.902 436.844 477.314 442.245 476.142C442.873 476.006 443.539 475.862 444.249 475.703C449.686 474.486 452.528 471.602 452.555 471.573C452.717 471.406 452.938 471.309 453.17 471.305C453.403 471.301 453.627 471.389 453.795 471.55C453.962 471.71 454.059 471.931 454.064 472.163C454.069 472.395 453.982 472.619 453.821 472.787C453.693 472.92 450.618 476.075 444.632 477.414C443.918 477.573 443.249 477.718 442.617 477.855C437.363 478.995 434.965 479.516 431.059 483.065C430.898 483.212 430.688 483.294 430.47 483.293ZM406.271 545.612C406.055 545.612 405.846 545.533 405.685 545.389C405.524 545.245 405.422 545.047 405.398 544.833C405.375 544.618 405.431 544.402 405.556 544.227C405.682 544.051 405.867 543.928 406.078 543.88C414.12 542.063 420.999 537.528 426.522 530.401C430.157 525.71 433.208 519.87 435.591 513.043C437.218 508.381 439.549 506.544 441.605 504.923C443.244 503.632 444.792 502.412 445.954 499.826C446.87 497.788 446.973 496.002 447.082 494.111C447.236 491.439 447.395 488.676 449.85 485.249C454.286 479.056 461.647 478.215 461.958 478.182C462.437 478.128 462.872 478.48 462.922 478.961C462.947 479.192 462.878 479.424 462.732 479.604C462.586 479.785 462.374 479.9 462.143 479.925C462.075 479.933 455.244 480.731 451.277 486.269C449.118 489.284 448.98 491.677 448.834 494.212C448.72 496.178 448.603 498.211 447.555 500.544C446.217 503.522 444.425 504.935 442.692 506.3C440.642 507.915 438.706 509.441 437.248 513.62C431.048 531.386 420.403 542.441 406.465 545.59C406.401 545.605 406.336 545.612 406.271 545.612Z" fill="#232323"/>
<path d="M461.9 494.568C464.585 491.594 465.349 487.91 463.606 486.338C461.862 484.767 458.273 485.904 455.587 488.877C452.902 491.851 452.139 495.536 453.882 497.107C455.625 498.679 459.215 497.542 461.9 494.568Z" fill="#00676C"/>
<path d="M411.113 504.691C410.63 504.691 410.161 504.533 409.778 504.24C409.395 503.947 409.119 503.536 408.993 503.07C408.867 502.605 408.899 502.111 409.082 501.665C409.266 501.219 409.592 500.846 410.009 500.604C420.86 494.304 430.346 497.364 430.744 497.497C431.017 497.589 431.27 497.733 431.487 497.922C431.705 498.111 431.883 498.34 432.011 498.598C432.139 498.856 432.216 499.136 432.236 499.423C432.256 499.71 432.219 499.998 432.127 500.271C432.036 500.544 431.892 500.796 431.703 501.014C431.513 501.231 431.284 501.409 431.026 501.537C430.768 501.665 430.487 501.742 430.2 501.761C429.913 501.781 429.624 501.745 429.351 501.653C429.035 501.551 421.28 499.129 412.213 504.394C411.879 504.588 411.499 504.691 411.113 504.691ZM407.902 513.614C407.435 513.614 406.98 513.466 406.603 513.19C406.226 512.914 405.947 512.525 405.807 512.079C405.667 511.634 405.673 511.155 405.824 510.714C405.975 510.272 406.263 509.89 406.647 509.623C416.595 502.702 427.071 505.422 427.512 505.541C428.074 505.693 428.552 506.061 428.842 506.565C429.132 507.069 429.209 507.668 429.057 508.229C428.905 508.79 428.537 509.268 428.032 509.557C427.528 509.847 426.929 509.924 426.367 509.772C426.285 509.751 417.377 507.499 409.154 513.22C408.787 513.477 408.35 513.614 407.902 513.614ZM405.703 522.235C405.353 522.236 405.009 522.153 404.698 521.993C404.387 521.833 404.119 521.602 403.917 521.317C403.749 521.083 403.629 520.818 403.564 520.538C403.499 520.257 403.49 519.967 403.538 519.683C403.585 519.399 403.688 519.127 403.84 518.883C403.993 518.639 404.192 518.427 404.426 518.26C413.413 511.846 422.671 514.021 423.06 514.116C423.621 514.259 424.102 514.617 424.4 515.113C424.698 515.609 424.787 516.202 424.649 516.763C424.511 517.325 424.156 517.809 423.663 518.11C423.169 518.412 422.576 518.506 422.013 518.373C421.708 518.301 414.272 516.619 406.976 521.826C406.605 522.093 406.16 522.236 405.703 522.235Z" fill="#00676C"/>
<path d="M433.689 280.075C433.689 280.075 413.766 270.946 402.396 266.341C402.396 266.341 413.735 233.939 419.771 202.005C423.825 180.108 432.909 183.653 435.525 185.728C435.663 190.795 433.931 244.931 433.931 244.931L433.689 280.075Z" fill="white"/>
<path d="M433.689 280.952C433.565 280.952 433.44 280.926 433.324 280.872C433.124 280.781 413.288 271.699 402.067 267.153C401.858 267.069 401.69 266.907 401.597 266.702C401.504 266.497 401.494 266.264 401.568 266.051C401.681 265.728 412.955 233.343 418.909 201.842C420.819 191.522 424.079 185.43 428.595 183.739C431.517 182.645 434.372 183.694 436.07 185.041C436.17 185.12 436.252 185.221 436.309 185.335C436.367 185.45 436.398 185.576 436.402 185.703C436.539 190.739 434.879 242.747 434.808 244.959L434.567 280.081C434.565 280.312 434.472 280.534 434.308 280.697C434.143 280.86 433.921 280.952 433.689 280.952ZM403.496 265.842C413.184 269.805 428.41 276.706 432.821 278.715L433.053 244.925C433.071 244.375 434.705 193.201 434.654 186.177C433.798 185.598 431.672 184.46 429.211 185.381C426.529 186.385 422.865 190.112 420.634 202.165C415.172 231.059 405.26 260.678 403.496 265.842Z" fill="#232323"/>
<path d="M343.967 268.987C369.114 273.288 376.687 274.869 376.785 275.019L385.993 260.856C355.471 242.535 300.205 239.223 278.542 258.059C270.03 265.782 281.662 261.284 283.36 260.7C273.712 275.51 284.431 268.033 285.658 267.054C280.906 280.349 294.243 265.221 294.243 265.221C294.256 265.244 294.271 265.267 294.286 265.289C294.288 265.294 294.292 265.298 294.295 265.302C295.547 267.068 304.442 266.119 304.806 266.057C304.384 266.185 322.251 265.273 343.967 268.987Z" fill="white"/>
<path d="M376.784 275.896C376.646 275.896 376.512 275.863 376.393 275.804C375.582 275.553 368.379 274.051 343.819 269.851C335.431 268.416 322.033 266.746 305.808 266.94C305.478 266.944 305.226 266.947 305.056 266.947C304.996 266.948 304.91 266.947 304.815 266.939C303.757 267.072 296.932 267.842 294.33 266.434C293.625 267.203 292.349 268.56 290.952 269.872C287.726 272.904 285.831 273.893 284.617 273.178C283.708 272.642 283.522 271.417 284.068 269.219C282.384 270.242 280.146 271.252 279.042 270.252C278.179 269.469 277.902 267.928 281.287 262.345C277.203 263.682 275.436 263.734 274.778 262.638C274.121 261.544 275.011 260.078 277.952 257.409C288.241 248.463 306.839 243.815 328.979 244.647C350.163 245.443 371.646 251.221 386.445 260.104C386.546 260.165 386.633 260.245 386.702 260.34C386.772 260.436 386.821 260.544 386.847 260.658C386.874 260.773 386.877 260.892 386.857 261.008C386.836 261.124 386.793 261.234 386.729 261.333L377.52 275.497C377.441 275.619 377.332 275.72 377.204 275.789C377.075 275.859 376.932 275.896 376.786 275.896H376.784ZM376.064 275.519L376.065 275.52L376.064 275.519ZM376.06 275.513C376.06 275.514 376.061 275.515 376.061 275.515L376.06 275.513ZM376.058 275.51C376.058 275.511 376.059 275.512 376.059 275.512C376.059 275.512 376.058 275.511 376.058 275.51ZM376.054 275.505L376.056 275.507L376.054 275.505ZM376.052 275.502L376.054 275.504L376.052 275.502ZM376.05 275.498L376.052 275.501L376.05 275.498ZM308.386 265.171C323.57 265.171 336.107 266.753 344.115 268.123C357.887 270.478 365.756 271.911 369.932 272.698C373.625 273.394 375.458 273.758 376.402 273.999L384.759 261.145C370.232 252.669 349.443 247.171 328.912 246.4C307.213 245.585 289.06 250.076 279.118 258.72C277.245 260.42 276.632 261.283 276.432 261.666C277.013 261.701 278.553 261.488 282.597 260.041C282.796 259.97 282.958 259.912 283.075 259.872C283.248 259.812 283.435 259.808 283.61 259.86C283.785 259.912 283.94 260.018 284.052 260.161C284.164 260.305 284.229 260.481 284.237 260.663C284.245 260.846 284.195 261.026 284.095 261.179C280.308 266.992 280.195 268.59 280.246 268.936C281.03 269.033 283.73 267.471 285.11 266.37C285.259 266.25 285.443 266.183 285.634 266.178C285.825 266.173 286.012 266.23 286.167 266.341C286.323 266.452 286.438 266.61 286.495 266.792C286.552 266.974 286.548 267.17 286.484 267.349C285.393 270.402 285.478 271.391 285.544 271.648C286.605 271.582 290.279 268.39 293.584 264.642C293.676 264.538 293.791 264.457 293.921 264.406C294.05 264.355 294.19 264.336 294.328 264.349C294.467 264.363 294.6 264.41 294.717 264.485C294.834 264.56 294.931 264.662 295.001 264.782L295.01 264.795C295.016 264.803 295.576 265.527 299.82 265.489C302.226 265.469 304.482 265.22 304.663 265.192C304.757 265.178 304.851 265.179 304.941 265.194C305.085 265.195 305.426 265.191 305.786 265.187C306.661 265.176 307.528 265.171 308.386 265.171Z" fill="#232323"/>
<mask id="mask6_1447_2745" style="mask-type:alpha" maskUnits="userSpaceOnUse" x="275" y="245" width="111" height="31">
<path d="M376.815 275.187C376.815 275.187 381.76 268.418 385.874 260.917C351.913 241.466 297.582 240.785 278.543 258.058C270.03 265.782 281.663 261.283 283.361 260.7C273.713 275.51 284.432 268.033 285.659 267.054C280.907 280.349 294.243 265.221 294.243 265.221C294.256 265.244 294.271 265.266 294.286 265.289C294.289 265.294 294.292 265.298 294.296 265.301C295.548 267.067 304.443 266.118 304.806 266.056C326.148 264.636 379.757 274.715 376.815 275.187Z" fill="white"/>
</mask>
<g mask="url(#mask6_1447_2745)">
<path d="M295.806 267.196C295.683 267.196 295.558 267.17 295.439 267.115C293.837 266.376 293.055 265.396 293.114 264.2C293.244 261.597 297.714 259.188 301.066 257.602C301.563 257.367 302.059 257.141 302.544 256.925C291.856 258.537 281.204 262.37 281.077 262.417C280.969 262.456 280.854 262.474 280.738 262.469C280.623 262.464 280.51 262.437 280.405 262.388C280.301 262.339 280.207 262.27 280.129 262.185C280.051 262.1 279.99 262.001 279.951 261.892C279.912 261.784 279.894 261.669 279.899 261.554C279.905 261.439 279.932 261.326 279.981 261.221C280.03 261.117 280.099 261.023 280.185 260.945C280.27 260.868 280.37 260.808 280.478 260.769C280.633 260.712 296.122 255.139 308.707 254.525C309.142 254.5 309.529 254.806 309.611 255.234C309.651 255.442 309.615 255.656 309.51 255.839C309.404 256.022 309.236 256.16 309.037 256.229C309.001 256.242 305.386 257.497 301.805 259.192C295.452 262.2 294.888 263.852 294.867 264.287C294.84 264.825 295.674 265.292 296.174 265.523C296.356 265.606 296.504 265.749 296.593 265.929C296.682 266.108 296.707 266.312 296.664 266.507C296.622 266.703 296.513 266.878 296.357 267.003C296.201 267.128 296.006 267.196 295.806 267.196Z" fill="#232323"/>
</g>
<mask id="mask7_1447_2745" style="mask-type:alpha" maskUnits="userSpaceOnUse" x="275" y="245" width="111" height="31">
<path d="M376.815 275.187C376.815 275.187 381.76 268.418 385.874 260.917C351.913 241.466 297.582 240.785 278.543 258.058C270.03 265.782 281.663 261.283 283.361 260.7C273.713 275.51 284.432 268.033 285.659 267.054C280.907 280.349 294.243 265.221 294.243 265.221C294.256 265.244 294.271 265.266 294.286 265.289C294.289 265.294 294.292 265.298 294.296 265.301C295.548 267.067 304.443 266.118 304.806 266.056C326.148 264.636 379.757 274.715 376.815 275.187Z" fill="white"/>
</mask>
<g mask="url(#mask7_1447_2745)">
<path d="M284.383 268.835C284.201 268.835 284.024 268.779 283.876 268.675C283.727 268.57 283.615 268.422 283.555 268.251C283.494 268.08 283.488 267.894 283.538 267.72C283.587 267.545 283.689 267.39 283.831 267.277C283.934 267.193 294.36 258.861 308.495 254.563C308.605 254.529 308.721 254.518 308.835 254.529C308.95 254.54 309.061 254.574 309.163 254.628C309.265 254.682 309.355 254.756 309.428 254.845C309.501 254.934 309.556 255.037 309.589 255.147C309.623 255.257 309.634 255.372 309.623 255.487C309.612 255.602 309.578 255.713 309.524 255.815C309.47 255.916 309.396 256.006 309.307 256.079C309.218 256.152 309.115 256.207 309.005 256.241C295.209 260.436 285.034 268.559 284.933 268.641C284.777 268.767 284.583 268.835 284.383 268.835Z" fill="#232323"/>
</g>
<path d="M456.764 176.115C449.72 191.36 436.962 200.24 435.532 191.747C435.532 191.747 430.255 277.592 400.142 300.005C419.808 311.058 455.284 299.47 481.944 292.349C511.482 284.459 531.662 283.535 537.511 289.672C520.549 271.847 503.195 221.256 493.642 182.766L456.764 176.115Z" fill="white"/>
<path d="M421.205 305.445C412.364 305.445 405.272 303.894 399.712 300.769C399.585 300.697 399.477 300.595 399.4 300.471C399.322 300.348 399.276 300.207 399.267 300.061C399.258 299.915 399.285 299.77 399.346 299.637C399.407 299.505 399.501 299.389 399.618 299.302C414.95 287.891 423.66 259.293 428.267 237.312C433.281 213.387 434.644 191.908 434.657 191.693C434.671 191.479 434.762 191.277 434.915 191.125C435.068 190.974 435.272 190.884 435.487 190.873C435.701 190.861 435.913 190.929 436.081 191.064C436.249 191.198 436.362 191.39 436.398 191.602C436.79 193.928 438.003 194.09 438.402 194.143C441.964 194.619 450.375 187.852 455.968 175.748C456.049 175.571 456.187 175.427 456.36 175.338C456.532 175.248 456.729 175.218 456.92 175.252L493.799 181.903C493.965 181.933 494.12 182.011 494.243 182.126C494.367 182.242 494.454 182.391 494.495 182.555C499.764 203.787 506.555 225.485 513.617 243.65C522.06 265.37 530.543 281.075 538.148 289.067C538.308 289.236 538.395 289.461 538.39 289.693C538.384 289.926 538.286 290.146 538.117 290.307C537.949 290.467 537.723 290.554 537.491 290.548C537.258 290.542 537.037 290.444 536.877 290.276L536.877 290.276L536.875 290.274C531.31 284.44 510.861 285.532 482.171 293.195C479.495 293.91 476.776 294.658 473.897 295.449C461.386 298.887 447.205 302.784 434.146 304.514C429.469 305.134 425.162 305.445 421.205 305.445ZM401.751 299.865C419.312 308.632 449.261 300.401 473.431 293.758C476.313 292.966 479.035 292.218 481.718 291.502C496.451 287.566 508.85 285.337 518.57 284.875C524.914 284.573 529.9 285.046 533.478 286.281C526.64 277.421 519.28 263.062 511.981 244.286C504.954 226.21 498.195 204.655 492.928 183.528L457.272 177.098C452.05 188.032 443.397 196.582 438.169 195.881C437.617 195.808 436.853 195.586 436.168 194.97C435.595 201.844 433.895 219.007 429.989 237.65C427.026 251.793 423.391 264.014 419.185 273.975C414.167 285.855 408.307 294.557 401.751 299.865Z" fill="#232323"/>
<path d="M432.812 272.477C464.69 292.933 512.896 286.768 509.971 271.28C500.32 247.319 434.49 265.517 432.812 272.477Z" fill="#232323"/>
<path d="M479.518 286.369C477.611 286.369 475.704 286.307 473.8 286.184C458.568 285.204 443.843 280.598 432.338 273.215C432.185 273.117 432.066 272.973 431.998 272.804C431.93 272.635 431.916 272.449 431.959 272.272C433.154 267.314 456.248 260.071 475.311 258.674C483.993 258.039 491.348 258.564 497.175 260.234C504.147 262.233 508.725 265.84 510.785 270.953C510.806 271.006 510.822 271.061 510.833 271.117C511.503 274.663 509.82 277.91 505.966 280.506C500.427 284.238 490.607 286.369 479.518 286.369ZM433.965 272.17C445.122 279.144 459.272 283.492 473.914 284.435C486.908 285.271 498.816 283.209 504.986 279.052C508.227 276.869 509.619 274.337 509.124 271.527C504.424 260.066 486.013 259.649 475.439 260.424C466.312 261.092 455.998 263.098 447.142 265.929C438.986 268.535 435.043 270.892 433.965 272.17Z" fill="#232323"/>
<path d="M292.106 296.054C285.687 306.118 306.687 293.703 307.138 293.435C298.142 300.831 297.731 304.819 306.271 300.979C314.81 297.14 326.164 291.417 336.713 290.403C352.692 288.868 368 298.531 372.972 301.149C452.252 347.205 504.797 329.09 499.573 271.981C496.04 240.644 459.287 220.432 438.954 237.411C436.906 243.547 431.652 270.516 431.892 270.534C431.892 270.534 373.28 246.497 322.271 262.463C321.853 262.603 305.381 266.526 292.623 277.779C292.42 277.959 292.217 278.14 292.015 278.321C281.698 287.624 297.086 282.332 300.205 280.874C297.81 282.905 293.761 286.751 291.542 289.328C281.693 300.768 292.106 296.054 292.106 296.054Z" fill="white"/>
<path d="M451.348 328.112C446.719 328.112 441.841 327.716 436.752 326.919C417.524 323.906 395.922 315.494 372.547 301.917C372.033 301.646 371.417 301.304 370.704 300.91C364.265 297.344 350.864 289.923 336.797 291.276C327.665 292.153 317.779 296.682 309.835 300.32C308.769 300.81 307.701 301.297 306.631 301.779C302.587 303.597 300.319 303.824 299.493 302.495C298.76 301.317 299.783 299.471 301.512 297.505C301.054 297.736 300.594 297.964 300.131 298.186C293.141 301.551 291.341 301.12 290.501 300.254C289.846 299.577 289.924 298.614 290.284 297.644C288.944 297.995 287.476 298.088 286.774 297.151C285.755 295.792 286.982 293.281 290.877 288.757C292.223 287.193 294.256 285.145 296.203 283.305C295.545 283.515 294.883 283.709 294.216 283.887C290.568 284.855 288.616 284.797 287.887 283.699C287.061 282.456 288.12 280.653 291.427 277.67C291.633 277.486 291.837 277.303 292.042 277.123C303.346 267.151 317.691 262.78 321.818 261.678C321.912 261.653 321.976 261.636 322.006 261.627C333.699 257.967 346.755 256.112 360.814 256.112H360.918C372.181 256.119 384.11 257.31 396.373 259.65C414.052 263.024 427.395 267.865 431.155 269.305C431.271 268.592 431.466 267.535 431.765 265.937C432.293 263.114 433.009 259.485 433.728 255.981C434.637 251.548 436.885 240.837 438.121 237.134C438.172 236.98 438.265 236.842 438.39 236.738C446.834 229.688 458.569 228.405 470.586 233.218C478.025 236.198 485.011 241.417 490.258 247.914C495.949 254.961 499.471 263.249 500.445 271.883C501.472 283.106 500.314 292.988 497.007 301.272C493.744 309.448 488.46 315.906 481.305 320.465C473.352 325.533 463.16 328.112 451.348 328.112ZM340.142 289.365C353.478 289.365 365.965 296.28 371.554 299.376C372.266 299.77 372.88 300.11 373.381 300.374C373.392 300.38 373.402 300.386 373.413 300.392C396.605 313.865 418.007 322.207 437.023 325.187C454.671 327.952 469.657 325.808 480.362 318.988C487.201 314.63 492.253 308.451 495.378 300.623C498.581 292.598 499.699 282.988 498.699 272.062C497.765 263.778 494.373 255.803 488.893 249.015C483.832 242.748 477.098 237.716 469.934 234.846C458.627 230.317 447.627 231.442 439.709 237.925C437.72 244.147 432.937 268.583 432.765 270.45C432.774 270.544 432.768 270.641 432.745 270.737C432.716 270.86 432.661 270.976 432.583 271.076C432.505 271.176 432.406 271.258 432.293 271.316C432.18 271.374 432.056 271.407 431.929 271.412C431.802 271.417 431.676 271.394 431.558 271.346C431.412 271.286 416.716 265.314 396.006 261.366C376.929 257.728 348.696 255.111 322.532 263.3C322.52 263.304 322.426 263.331 322.271 263.372C318.237 264.45 304.22 268.719 293.203 278.438C293.002 278.615 292.801 278.795 292.6 278.975C289.847 281.457 289.445 282.46 289.388 282.728C289.643 282.823 290.704 283.036 294.074 282.11C296.45 281.456 298.871 280.53 299.832 280.081C300.024 279.992 300.243 279.975 300.447 280.034C300.65 280.093 300.826 280.224 300.941 280.403C301.056 280.581 301.102 280.795 301.07 281.005C301.039 281.215 300.933 281.406 300.771 281.544C298.329 283.615 294.361 287.399 292.206 289.901C288.169 294.591 288.153 295.896 288.184 296.096C288.601 296.306 290.298 295.909 291.743 295.256C291.915 295.179 292.108 295.159 292.293 295.199C292.477 295.24 292.643 295.339 292.767 295.481C292.891 295.624 292.965 295.803 292.979 295.991C292.993 296.179 292.946 296.367 292.845 296.526C291.578 298.512 291.772 299.045 291.775 299.053C291.776 299.053 291.863 299.114 292.202 299.114C292.95 299.114 294.885 298.779 299.521 296.534C303.056 294.822 306.329 292.896 306.69 292.682C306.88 292.57 307.106 292.533 307.321 292.58C307.537 292.627 307.728 292.753 307.854 292.934C307.981 293.114 308.035 293.336 308.006 293.555C307.976 293.773 307.865 293.973 307.695 294.113C302.153 298.669 300.99 300.983 300.993 301.546C301.226 301.613 302.369 301.773 305.909 300.181C306.936 299.72 308.002 299.231 309.103 298.727C317.167 295.033 327.202 290.437 336.628 289.531C337.803 289.418 338.976 289.365 340.142 289.365ZM291.775 299.053H291.779H291.775ZM432.185 269.707L432.225 269.723C432.287 269.749 432.345 269.781 432.398 269.818C432.333 269.771 432.261 269.734 432.185 269.707Z" fill="#232323"/>
<mask id="mask8_1447_2745" style="mask-type:alpha" maskUnits="userSpaceOnUse" x="287" y="228" width="215" height="99">
<path d="M292.106 296.054C285.687 306.118 306.687 293.703 307.138 293.436C298.142 300.831 297.731 304.819 306.271 300.979C314.81 297.14 326.164 291.417 336.713 290.403C352.692 288.868 368 298.531 372.972 301.15C452.252 347.205 506.948 326.633 501.11 271.367C497.778 241.821 470.767 219.41 450.652 231.567C441.085 237.349 435.514 255.465 431.057 271.893C417.229 267.595 382.498 251.41 335.791 259.086C315.153 262.477 303.834 268.911 292.623 277.78C292.42 277.96 292.217 278.14 292.015 278.321C281.698 287.625 297.086 282.332 300.205 280.875C297.81 282.905 293.761 286.751 291.542 289.329C281.693 300.768 292.106 296.054 292.106 296.054Z" fill="white"/>
</mask>
<g mask="url(#mask8_1447_2745)">
<path d="M294.639 286.92C294.469 286.921 294.303 286.871 294.16 286.778C294.018 286.685 293.905 286.553 293.837 286.398C293.768 286.242 293.746 286.07 293.774 285.902C293.801 285.734 293.877 285.578 293.992 285.453C300.493 278.338 309.419 274.288 309.796 274.119C309.901 274.072 310.014 274.046 310.13 274.043C310.245 274.04 310.359 274.059 310.467 274.1C310.575 274.141 310.673 274.203 310.757 274.282C310.841 274.361 310.908 274.455 310.955 274.56C311.002 274.665 311.028 274.779 311.032 274.894C311.035 275.009 311.016 275.123 310.975 275.231C310.934 275.339 310.872 275.437 310.793 275.521C310.714 275.605 310.619 275.672 310.514 275.719C310.425 275.759 301.537 279.796 295.288 286.635C295.206 286.725 295.106 286.797 294.994 286.846C294.882 286.895 294.762 286.921 294.639 286.92ZM289.011 301.441C288.86 301.441 288.712 301.402 288.58 301.328C288.449 301.253 288.338 301.146 288.261 301.017C288.183 300.888 288.139 300.74 288.135 300.589C288.131 300.438 288.166 300.289 288.236 300.155C290.728 295.438 295.737 290.608 303.126 285.801C308.588 282.246 313.404 280.021 313.452 280C313.663 279.904 313.903 279.896 314.12 279.977C314.337 280.058 314.514 280.222 314.61 280.432C314.707 280.642 314.717 280.882 314.637 281.1C314.557 281.317 314.395 281.494 314.185 281.592C313.998 281.678 295.419 290.314 289.788 300.974C289.714 301.115 289.602 301.233 289.465 301.316C289.328 301.398 289.171 301.442 289.011 301.441ZM297.598 303.642C297.441 303.642 297.286 303.6 297.151 303.52C297.015 303.439 296.904 303.324 296.829 303.186C296.753 303.048 296.716 302.892 296.722 302.735C296.727 302.578 296.775 302.425 296.86 302.293C301.84 294.518 315.266 287.101 315.835 286.789C316.039 286.677 316.28 286.651 316.503 286.716C316.726 286.781 316.915 286.933 317.027 287.136C317.138 287.34 317.165 287.58 317.1 287.803C317.034 288.027 316.883 288.215 316.679 288.327C316.543 288.401 303.076 295.841 298.338 303.238C298.258 303.362 298.149 303.464 298.02 303.535C297.89 303.606 297.745 303.643 297.598 303.642Z" fill="#232323"/>
</g>
<path d="M458.56 172.937C447.727 189.195 438.32 226.129 430.424 269.962C430.424 269.962 448.405 277.729 471.124 270.432C495.69 262.542 507.631 265.144 509.971 271.28C499.443 245.273 499.492 226.891 495.982 194.747C491.851 156.905 468.969 157.314 458.56 172.937Z" fill="white"/>
<path d="M451.17 274.425C447.715 274.425 444.66 274.156 442.132 273.801C434.765 272.767 430.264 270.848 430.076 270.766C429.894 270.688 429.744 270.55 429.651 270.376C429.557 270.202 429.525 270.001 429.56 269.807C438.559 219.853 448.07 187.098 457.829 172.451L458.56 172.937L457.829 172.451C463.036 164.637 471.121 160.739 478.424 162.52C482.951 163.623 486.973 166.833 490.057 171.802C493.522 177.385 495.808 185.073 496.854 194.652C497.504 200.6 498.023 205.997 498.526 211.217C500.68 233.572 502.238 249.747 510.687 270.712C510.724 270.798 510.758 270.883 510.791 270.968C510.876 271.185 510.871 271.426 510.778 271.639C510.685 271.852 510.511 272.02 510.295 272.105C510.078 272.19 509.837 272.185 509.623 272.092C509.41 271.999 509.243 271.825 509.158 271.609L509.069 271.389C506.825 266.157 495.799 263.428 471.392 271.266C463.93 273.663 456.984 274.425 451.17 274.425ZM431.415 269.408C434.798 270.662 451.102 275.941 470.855 269.597C482.424 265.882 491.877 264.241 498.941 264.721C502.857 264.987 505.54 265.872 507.374 267.005C500.295 247.87 498.797 232.319 496.78 211.385C496.277 206.171 495.758 200.78 495.11 194.842C493.225 177.574 486.991 166.413 478.008 164.223C471.43 162.618 464.082 166.23 459.289 173.423C449.71 187.8 440.333 220.092 431.415 269.408Z" fill="#232323"/>
</g>
<g clip-path="url(#clip5_1447_2745)">
<path d="M140.449 317.725V550.72C140.449 550.869 140.508 551.011 140.613 551.116C140.718 551.221 140.86 551.28 141.009 551.28H147.129C147.278 551.28 147.42 551.221 147.525 551.116C147.63 551.011 147.689 550.869 147.689 550.72V317.725H140.449Z" fill="#232323"/>
<path d="M147.689 450.64H52.9968V457.883H147.689V450.64Z" fill="#232323"/>
<path d="M52.9963 317.725V550.72C52.9963 550.869 53.0553 551.011 53.1603 551.116C53.2652 551.221 53.4076 551.28 53.556 551.28H59.6766C59.8251 551.28 59.9674 551.221 60.0724 551.116C60.1774 551.011 60.2363 550.869 60.2363 550.72V317.725H52.9963Z" fill="#232323"/>
<path d="M44.1207 317.725H325.72C326.391 317.725 327.035 317.458 327.51 316.983C327.985 316.508 328.251 315.864 328.251 315.193V311.001C328.251 310.329 327.985 309.685 327.51 309.21C327.035 308.735 326.391 308.469 325.72 308.469H44.1205C42.7221 308.469 41.5888 309.602 41.5888 311.001V315.193C41.5888 316.591 42.7224 317.725 44.1207 317.725Z" fill="white"/>
<path d="M44.1206 318.513H325.719C327.551 318.513 329.04 317.024 329.04 315.193V311.001C329.04 309.17 327.551 307.68 325.719 307.68H44.1206C42.2896 307.68 40.8 309.17 40.8 311.001V315.193C40.8 317.024 42.2896 318.513 44.1206 318.513ZM325.719 309.257C326.182 309.258 326.625 309.442 326.952 309.768C327.278 310.095 327.462 310.538 327.463 311.001V315.193C327.462 315.655 327.278 316.098 326.951 316.425C326.625 316.752 326.182 316.935 325.719 316.936H44.1206C43.6585 316.935 43.2154 316.752 42.8886 316.425C42.5618 316.098 42.3779 315.655 42.3774 315.193V311.001C42.3779 310.538 42.5618 310.095 42.8885 309.769C43.2154 309.442 43.6584 309.258 44.1206 309.257H325.719Z" fill="#232323"/>
</g>
<g clip-path="url(#clip6_1447_2745)">
<path d="M252.599 156.683H355.048C355.897 156.683 356.71 156.346 357.311 155.747C357.911 155.148 358.248 154.336 358.248 153.489V149.849L372.441 143.949L358.243 138.045V116.751C358.243 115.904 357.906 115.092 357.306 114.493C356.705 113.894 355.892 113.557 355.043 113.557H252.594C251.745 113.557 250.931 113.894 250.331 114.493C249.731 115.092 249.394 115.904 249.394 116.751V153.489C249.394 153.909 249.477 154.325 249.638 154.713C249.799 155.1 250.035 155.453 250.333 155.749C250.631 156.046 250.984 156.281 251.373 156.441C251.762 156.601 252.178 156.683 252.599 156.683Z" fill="white"/>
<path d="M252.599 157.438H355.048C356.097 157.437 357.103 157.021 357.845 156.281C358.588 155.54 359.005 154.536 359.007 153.489V150.354L372.732 144.649C372.871 144.591 372.989 144.494 373.072 144.37C373.155 144.245 373.2 144.099 373.2 143.949C373.2 143.8 373.155 143.653 373.072 143.529C372.989 143.405 372.871 143.308 372.732 143.25L359.002 137.54V116.751C359 115.703 358.583 114.699 357.841 113.959C357.098 113.218 356.092 112.801 355.043 112.8H252.594C251.544 112.801 250.538 113.218 249.796 113.959C249.054 114.699 248.636 115.703 248.635 116.751V153.489C248.636 154.537 249.055 155.542 249.798 156.282C250.541 157.023 251.549 157.438 252.599 157.438ZM370.478 143.949L357.952 149.152C357.813 149.21 357.695 149.307 357.612 149.431C357.528 149.556 357.484 149.702 357.484 149.852V153.492C357.483 154.137 357.226 154.756 356.768 155.213C356.31 155.669 355.69 155.925 355.043 155.925H252.594C251.947 155.925 251.326 155.669 250.869 155.213C250.411 154.756 250.154 154.137 250.153 153.492V116.751C250.153 116.431 250.217 116.114 250.34 115.818C250.463 115.522 250.643 115.253 250.87 115.027C251.098 114.801 251.367 114.622 251.664 114.499C251.96 114.377 252.278 114.314 252.599 114.315H355.048C355.695 114.315 356.316 114.572 356.773 115.029C357.231 115.486 357.488 116.105 357.489 116.751V138.045C357.489 138.194 357.533 138.341 357.617 138.465C357.7 138.59 357.818 138.687 357.957 138.744L370.478 143.949Z" fill="#232323"/>
<path d="M265.052 131.415H313.348C313.549 131.415 313.742 131.336 313.884 131.194C314.026 131.052 314.106 130.859 314.106 130.658C314.106 130.457 314.026 130.265 313.884 130.123C313.742 129.981 313.549 129.901 313.348 129.901H265.052C264.851 129.901 264.658 129.981 264.516 130.123C264.374 130.265 264.294 130.457 264.294 130.658C264.294 130.859 264.374 131.052 264.516 131.194C264.658 131.336 264.851 131.415 265.052 131.415ZM271.763 140.337H296.126C296.327 140.337 296.52 140.257 296.663 140.115C296.805 139.973 296.885 139.78 296.885 139.58C296.885 139.379 296.805 139.186 296.663 139.044C296.52 138.902 296.327 138.822 296.126 138.822H271.763C271.562 138.822 271.369 138.902 271.227 139.044C271.085 139.186 271.005 139.379 271.005 139.58C271.005 139.78 271.085 139.973 271.227 140.115C271.369 140.257 271.562 140.337 271.763 140.337ZM303.679 140.337H313.348C313.549 140.337 313.742 140.257 313.884 140.115C314.026 139.973 314.106 139.78 314.106 139.58C314.106 139.379 314.026 139.186 313.884 139.044C313.742 138.902 313.549 138.822 313.348 138.822H303.679C303.478 138.822 303.285 138.902 303.143 139.044C303.001 139.186 302.921 139.379 302.921 139.58C302.921 139.78 303.001 139.973 303.143 140.115C303.285 140.257 303.478 140.337 303.679 140.337Z" fill="#232323"/>
<path d="M322.193 136.119C322.191 138.699 322.955 141.223 324.39 143.37C325.825 145.518 327.865 147.192 330.254 148.182C332.642 149.172 335.271 149.433 337.808 148.932C340.345 148.43 342.676 147.19 344.506 145.366C346.337 143.543 347.584 141.219 348.091 138.688C348.598 136.157 348.341 133.533 347.353 131.147C346.365 128.762 344.691 126.723 342.542 125.287C340.393 123.852 337.865 123.084 335.279 123.082C333.561 123.077 331.859 123.411 330.271 124.064C328.682 124.717 327.239 125.677 326.023 126.888C324.807 128.099 323.843 129.538 323.186 131.122C322.529 132.706 322.191 134.404 322.193 136.119Z" fill="#D9C6F4"/>
<path d="M329.545 141.342C329.512 141.434 329.506 141.534 329.526 141.63C329.546 141.726 329.592 141.815 329.658 141.887C329.848 142.078 330.053 142.253 330.273 142.409C331.67 143.499 333.392 144.091 335.165 144.091C336.938 144.091 338.661 143.499 340.058 142.409C340.285 142.228 340.49 142.046 340.695 141.864C340.761 141.796 340.808 141.712 340.832 141.621C340.856 141.529 340.856 141.433 340.832 141.342C340.467 140.362 339.918 139.461 339.215 138.686C339.173 138.646 339.118 138.622 339.06 138.618C339.002 138.614 338.944 138.63 338.897 138.663C337.822 139.389 336.554 139.777 335.256 139.776C333.919 139.782 332.614 139.369 331.525 138.595C331.502 138.576 331.475 138.562 331.445 138.554C331.416 138.546 331.386 138.544 331.356 138.548C331.326 138.553 331.297 138.563 331.272 138.579C331.246 138.595 331.224 138.616 331.207 138.64C330.499 139.437 329.936 140.351 329.545 141.342ZM330.888 132.827C330.797 133.719 330.985 134.618 331.427 135.4C331.868 136.182 332.541 136.808 333.354 137.193C334.166 137.578 335.078 137.702 335.964 137.549C336.85 137.396 337.667 136.974 338.303 136.339C338.938 135.704 339.362 134.888 339.514 134.004C339.667 133.12 339.542 132.21 339.155 131.399C338.769 130.589 338.141 129.918 337.358 129.477C336.574 129.037 335.673 128.85 334.778 128.941C333.781 129.044 332.85 129.486 332.141 130.194C331.432 130.901 330.99 131.831 330.888 132.827Z" fill="white"/>
</g>
<g clip-path="url(#clip7_1447_2745)">
<path d="M257.581 179.56H169.308L163.095 192.669L156.885 179.56H148.979C148.118 179.56 147.292 179.217 146.683 178.607C146.074 177.997 145.731 177.171 145.731 176.309V138.903C145.731 138.04 146.073 137.213 146.682 136.603C147.291 135.994 148.118 135.651 148.979 135.651H257.581C258.442 135.651 259.269 135.994 259.878 136.603C260.487 137.213 260.83 138.04 260.83 138.903V176.309C260.83 177.171 260.487 177.998 259.878 178.608C259.269 179.218 258.442 179.56 257.581 179.56Z" fill="white"/>
<path d="M163.095 193.44C163.241 193.44 163.384 193.398 163.507 193.32C163.63 193.242 163.729 193.13 163.791 192.998L169.796 180.331H257.581C258.646 180.33 259.668 179.906 260.421 179.152C261.175 178.398 261.599 177.375 261.6 176.309V138.903C261.599 137.836 261.175 136.814 260.421 136.06C259.668 135.306 258.646 134.881 257.581 134.88H148.98C147.914 134.881 146.892 135.306 146.139 136.06C145.385 136.814 144.961 137.836 144.96 138.903V176.309C144.961 177.375 145.385 178.398 146.139 179.152C146.892 179.906 147.914 180.33 148.98 180.331H156.397L162.399 192.998C162.461 193.13 162.56 193.242 162.683 193.32C162.806 193.398 162.949 193.44 163.095 193.44ZM257.581 136.422C258.238 136.423 258.868 136.684 259.332 137.149C259.797 137.614 260.058 138.245 260.059 138.903V176.309C260.058 176.966 259.797 177.597 259.332 178.062C258.868 178.527 258.238 178.788 257.581 178.789H169.308C169.162 178.789 169.019 178.83 168.896 178.908C168.773 178.986 168.674 179.097 168.612 179.229L163.095 190.87L157.583 179.229C157.521 179.097 157.422 178.986 157.299 178.908C157.176 178.83 157.033 178.789 156.887 178.789H148.98C148.322 178.788 147.692 178.527 147.228 178.062C146.763 177.597 146.502 176.966 146.501 176.309V138.903C146.502 138.245 146.763 137.614 147.228 137.149C147.692 136.684 148.322 136.423 148.98 136.422H257.581Z" fill="#232323"/>
<path d="M152.727 157.604C152.724 160.232 153.5 162.802 154.957 164.988C156.414 167.174 158.486 168.879 160.911 169.887C163.336 170.895 166.005 171.161 168.581 170.65C171.156 170.14 173.523 168.877 175.381 167.02C177.24 165.163 178.506 162.797 179.021 160.22C179.535 157.643 179.274 154.972 178.271 152.543C177.269 150.114 175.569 148.038 173.387 146.576C171.204 145.114 168.638 144.333 166.012 144.331C164.268 144.325 162.54 144.665 160.927 145.329C159.314 145.994 157.848 146.971 156.613 148.205C155.379 149.438 154.4 150.903 153.733 152.516C153.066 154.129 152.724 155.859 152.727 157.604Z" fill="#00676C"/>
<path d="M160.19 162.922C160.158 163.017 160.151 163.118 160.172 163.216C160.192 163.314 160.238 163.404 160.306 163.478C160.498 163.673 160.707 163.851 160.93 164.01C162.349 165.119 164.098 165.721 165.899 165.721C167.699 165.721 169.448 165.119 170.867 164.01C171.098 163.825 171.304 163.64 171.512 163.454C171.578 163.385 171.626 163.3 171.65 163.207C171.675 163.113 171.675 163.016 171.65 162.922C171.28 161.926 170.724 161.008 170.012 160.218C169.969 160.178 169.913 160.153 169.854 160.149C169.795 160.145 169.736 160.161 169.688 160.195C168.596 160.935 167.308 161.33 165.99 161.329C164.634 161.334 163.311 160.913 162.207 160.126C162.183 160.107 162.155 160.092 162.126 160.084C162.096 160.076 162.065 160.074 162.035 160.079C162.004 160.083 161.975 160.093 161.949 160.11C161.923 160.126 161.9 160.147 161.883 160.172C161.163 160.983 160.59 161.914 160.19 162.922ZM161.554 154.253C161.46 155.162 161.65 156.079 162.098 156.877C162.545 157.674 163.229 158.313 164.054 158.706C164.879 159.099 165.806 159.227 166.706 159.072C167.607 158.917 168.438 158.487 169.084 157.84C169.731 157.194 170.161 156.363 170.317 155.461C170.472 154.56 170.345 153.633 169.953 152.807C169.56 151.981 168.922 151.296 168.126 150.848C167.329 150.399 166.413 150.209 165.504 150.302C164.493 150.406 163.548 150.856 162.828 151.576C162.109 152.295 161.659 153.24 161.554 154.253Z" fill="white"/>
<path d="M204.802 153.834H248.915C249.119 153.834 249.315 153.752 249.46 153.608C249.604 153.463 249.686 153.267 249.686 153.063C249.686 152.858 249.604 152.662 249.46 152.517C249.315 152.373 249.119 152.292 248.915 152.292H204.802C204.597 152.292 204.401 152.373 204.257 152.517C204.112 152.662 204.031 152.858 204.031 153.063C204.031 153.267 204.112 153.463 204.257 153.608C204.401 153.752 204.597 153.834 204.802 153.834ZM189.405 162.917H248.915C249.119 162.917 249.315 162.836 249.46 162.691C249.604 162.547 249.686 162.351 249.686 162.146C249.686 161.942 249.604 161.746 249.46 161.601C249.315 161.456 249.119 161.375 248.915 161.375H189.405C189.2 161.375 189.004 161.456 188.86 161.601C188.715 161.746 188.634 161.942 188.634 162.146C188.634 162.351 188.715 162.547 188.86 162.691C189.004 162.836 189.2 162.917 189.405 162.917Z" fill="#232323"/>
</g>
<defs>
<clipPath id="clip0_1447_2745">
<rect width="174.24" height="372.96" fill="white" transform="matrix(-1 0 0 1 554.16 176.64)"/>
</clipPath>
<clipPath id="clip1_1447_2745">
<rect width="80.16" height="96" fill="white" transform="matrix(-0.609518 -0.792772 -0.792772 0.609518 148.643 402.117)"/>
</clipPath>
<clipPath id="clip2_1447_2745">
<rect width="187.68" height="109.68" fill="white" transform="matrix(-1 0 0 1 318.96 199.44)"/>
</clipPath>
<clipPath id="clip3_1447_2745">
<rect width="80.16" height="96" fill="white" transform="matrix(-0.805814 -0.592169 -0.592169 0.805814 187.681 387.295)"/>
</clipPath>
<clipPath id="clip4_1447_2745">
<rect width="408.96" height="475.44" fill="white" transform="translate(158.4 74.16)"/>
</clipPath>
<clipPath id="clip5_1447_2745">
<rect width="288.24" height="243.6" fill="white" transform="matrix(-1 0 0 1 329.04 307.68)"/>
</clipPath>
<clipPath id="clip6_1447_2745">
<rect width="124.56" height="44.64" fill="white" transform="matrix(-1 0 0 1 373.2 112.8)"/>
</clipPath>
<clipPath id="clip7_1447_2745">
<rect width="116.64" height="58.56" fill="white" transform="matrix(-1 0 0 1 261.6 134.88)"/>
</clipPath>
</defs>
</svg>
