<svg width="46" height="56" viewBox="0 0 46 56" fill="none" xmlns="http://www.w3.org/2000/svg">
<g clip-path="url(#clip0_1481_2919)">
<path d="M28.0362 3.93866C29.7114 4.01377 30.6111 3.31043 31.4983 3.96653C32.816 4.9413 30.537 8.54362 26.6378 10.1729C23.3107 11.5631 19.623 11.0485 17.9882 7.47543C16.1842 3.53278 18.5699 1.63408 21.1494 2.04793C22.9421 2.33592 25.3163 3.81692 28.0362 3.93866Z" fill="#232323"/>
<path d="M3.82468 41.7723C3.85914 41.8077 3.8936 41.842 3.9292 41.8774C4.04712 41.9935 4.1661 42.1063 4.28622 42.2159C4.32623 42.2523 4.36738 42.2889 4.40854 42.3243C4.4608 42.3719 4.51421 42.4172 4.56761 42.4626L6.32156 38.4741L6.64746 37.7342C6.64746 37.7342 6.44723 37.6512 6.12468 37.4698C6.11357 37.4632 6.10247 37.4566 6.09137 37.4511C6.08467 37.4466 6.08026 37.4434 6.07356 37.44C6.07356 37.4389 6.07242 37.4389 6.07242 37.4389C5.9456 37.3659 5.80107 37.2785 5.64429 37.1757C5.62983 37.1657 5.61423 37.1558 5.59864 37.1448C4.51094 36.4225 2.85597 34.9813 2.03187 32.5491C1.57924 31.213 0.54372 30.7816 0.31573 32.7935C-0.0479789 36.0108 1.5691 39.4861 3.82468 41.7723Z" fill="#232323"/>
<path d="M4.56739 42.7255C4.58713 42.7255 4.60687 42.7233 4.62652 42.7189C4.70822 42.7003 4.77608 42.6443 4.80965 42.5679L6.88941 37.8397C6.91788 37.775 6.91903 37.7017 6.89259 37.6362C6.86615 37.5708 6.81433 37.5185 6.74885 37.4915C6.74717 37.4908 6.55664 37.4108 6.25462 37.241C6.24739 37.2366 6.23743 37.2307 6.22659 37.2248C6.22245 37.2221 6.21849 37.2196 6.21452 37.2173C6.21126 37.2153 6.20809 37.2133 6.20474 37.2113C6.06294 37.1297 5.92325 37.0438 5.78974 36.9561L5.75237 36.9308C4.59665 36.1632 3.06329 34.7702 2.2822 32.465C1.99472 31.6166 1.48612 31.103 0.989693 31.1555C0.641318 31.1925 0.195824 31.5016 0.0527902 32.764C-0.289768 35.7946 1.11634 39.4025 3.63524 41.956C3.66812 41.9898 3.70108 42.0226 3.73492 42.0564L3.74188 42.0634C3.86253 42.1821 3.98512 42.2984 4.10735 42.4098C4.14921 42.448 4.19231 42.4863 4.23531 42.5232C4.28449 42.568 4.34001 42.6153 4.39553 42.6625C4.44392 42.7035 4.50508 42.7255 4.56739 42.7255ZM6.30195 37.8625L4.47027 42.0272C4.46842 42.0255 4.46657 42.0238 4.46471 42.0221C4.34741 41.9152 4.22976 41.8036 4.11502 41.6906L4.10903 41.6847C4.07695 41.6528 4.04566 41.6217 4.01455 41.5896C4.01411 41.5891 4.01367 41.5887 4.01323 41.5883C1.60105 39.1433 0.25267 35.7026 0.578219 32.8228C0.677277 31.9482 0.918751 31.6919 1.04583 31.6784C1.20658 31.6614 1.54808 31.9453 1.78109 32.6329C2.60968 35.0785 4.23452 36.5552 5.45159 37.3633C5.45599 37.3667 5.46745 37.3743 5.47864 37.3817L5.49336 37.3917C5.63674 37.4858 5.78137 37.5749 5.92819 37.6597C5.93312 37.6629 5.93806 37.666 5.94326 37.6688C5.95251 37.6748 5.96494 37.6823 5.97296 37.6862C5.97798 37.6888 5.98309 37.6921 5.98838 37.6952C6.11088 37.7642 6.21664 37.8197 6.30195 37.8625ZM5.95339 37.6744C5.95357 37.6744 5.95366 37.6745 5.95383 37.6745C5.95366 37.6745 5.95357 37.6744 5.95339 37.6744Z" fill="#232323"/>
<path d="M4.14351 43.572V43.5754C4.25032 48.5781 7.66021 52.9226 12.694 54.7034C18.6531 56.8116 26.5229 55.44 29.9684 52.7346C33.1204 50.2592 31.8403 49.1875 29.8517 48.7329C28.1723 48.3491 25.9857 48.4055 25.5375 48.4299H25.5308C25.5197 48.4299 25.5096 48.431 25.5008 48.431C25.4997 48.4321 25.4986 48.4321 25.4975 48.431C25.4909 48.4332 25.4852 48.4343 25.4786 48.4332C25.4719 48.4354 25.4642 48.4354 25.4575 48.4354C25.4719 48.4287 25.5265 48.4133 25.6142 48.3845H25.6154C25.8512 48.3082 26.3217 48.1456 26.9111 47.8691C27.0512 47.8038 27.198 47.7319 27.3504 47.6534H27.3515C28.7518 46.9323 30.5846 45.6437 31.6145 43.5212C31.9416 42.8487 32.1873 42.0933 32.313 41.2449C32.313 41.2449 32.2808 41.5093 32.2519 41.9639C32.2508 41.9904 32.2485 42.018 32.2463 42.0457C32.1084 44.2844 32.0583 50.6287 35.575 53.4736C37.8962 55.5142 40.4509 55.1537 40.7256 54.0642C41.0225 52.8829 39.0418 50.5181 39.1408 47.367C39.2708 43.2547 40.4042 38.3449 41.6921 33.2681C42.5785 29.7784 43.5373 26.2103 44.2901 22.7683V22.7671C44.9385 19.8107 45.4368 16.9471 45.608 14.3058C45.9995 8.29212 45.4646 3.91327 44.329 2.70327C44.1733 2.53517 44.0043 2.42894 43.8252 2.38696C43.3258 2.2697 42.8342 2.45997 42.3805 2.90572C41.4963 3.77068 40.7523 5.60339 40.3585 8.00684C39.3687 5.83459 36.7928 2.3803 33.5241 2.28854C32.7667 2.2675 32.0238 2.40028 31.3042 2.67347C29.7316 3.26857 28.2713 4.52608 27.0201 6.27483C26.5396 6.94398 26.0914 7.68615 25.6788 8.49028C25.4052 9.02341 25.1482 9.58302 24.908 10.1681C23.3543 13.952 23.4944 17.1662 21.4813 21.1623C20.9286 22.2606 20.2123 23.4187 19.2536 24.663C18.4529 25.7027 17.4318 26.6517 16.3019 27.5675C16.2919 27.5752 16.283 27.583 16.273 27.5907C15.0751 28.5618 13.7573 29.4964 12.4482 30.4643C12.3136 30.5649 12.1802 30.6656 12.0455 30.7662C11.8453 30.9177 11.6463 31.0681 11.4506 31.2175C11.3849 31.2672 11.3193 31.317 11.2548 31.3668C11.1881 31.4177 11.1225 31.4686 11.0557 31.5205C9.32409 32.8744 7.69696 34.3365 6.49796 36.0775C6.49576 36.0808 6.49347 36.0852 6.49127 36.0885C6.36894 36.2655 6.25217 36.4436 6.14201 36.626C6.13646 36.6315 6.13311 36.6382 6.13091 36.6449C6.11205 36.6714 6.09645 36.698 6.07979 36.7245C6.07979 36.7257 6.07865 36.7279 6.07759 36.7301C6.07644 36.7312 6.07539 36.7334 6.07424 36.7345C6.07309 36.7357 6.07309 36.7367 6.07204 36.7379C5.11663 38.3306 4.53718 39.9399 4.28698 41.5116C4.28592 41.5128 4.28592 41.5138 4.28592 41.515C4.17576 42.2094 4.13011 42.8963 4.14351 43.572Z" fill="white"/>
<path d="M19.1547 55.9945C20.1941 55.9945 21.2516 55.9251 22.3091 55.7846C25.5231 55.3576 28.3747 54.3211 30.1326 52.9409C31.6457 51.7525 32.2914 50.7777 32.1065 49.9606C31.951 49.2734 31.2124 48.774 29.9111 48.4765C28.9206 48.2501 27.7867 48.1748 26.9197 48.1551C26.9546 48.1392 26.9894 48.123 27.0242 48.1067C27.1655 48.0409 27.312 47.9691 27.4587 47.8937C27.4638 47.8915 27.4686 47.8892 27.4734 47.8867C28.8823 47.1611 30.7858 45.8345 31.8529 43.6353C31.8817 43.5761 31.9098 43.5165 31.937 43.4566C31.9325 44.5996 32.0024 46.073 32.2804 47.5796C32.7932 50.3594 33.8443 52.4098 35.4043 53.6739C37.147 55.2039 38.9294 55.3883 39.9268 55.0809C40.4885 54.9077 40.8732 54.5604 40.9823 54.1279C41.1306 53.5384 40.8257 52.7816 40.4397 51.8234C39.9545 50.6186 39.3505 49.1192 39.4053 47.375C39.5393 43.1402 40.7884 37.9059 41.9488 33.3322C42.1537 32.5253 42.3625 31.7142 42.5718 30.9013C43.2587 28.2333 43.969 25.4746 44.5488 22.8241C44.5496 22.8205 44.5503 22.817 44.5509 22.8134C45.2976 19.4068 45.7174 16.7085 45.8722 14.3226C46.2612 8.34649 45.7441 3.8254 44.5227 2.52372C44.3319 2.31776 44.1174 2.18515 43.8863 2.1309C43.3095 1.99549 42.7243 2.19856 42.195 2.71846C41.3611 3.53425 40.6636 5.1397 40.2411 7.18828C39.1051 5.12594 36.666 2.11355 33.5319 2.02547C32.7511 2.00364 31.9702 2.13914 31.2102 2.42757C29.6299 3.02557 28.1064 4.30306 26.805 6.1221C26.3221 6.79459 25.8639 7.55121 25.4437 8.37042C25.1684 8.90671 24.906 9.47797 24.6635 10.0685C23.9686 11.7608 23.6038 13.3614 23.2509 14.9093C22.8102 16.8431 22.3543 18.8427 21.2453 21.0443C20.6577 22.2117 19.9377 23.343 19.0441 24.5028C18.3407 25.416 17.4163 26.3251 16.1351 27.3634L16.112 27.382C15.2031 28.1187 14.2502 28.8162 13.2413 29.5547C12.9252 29.7862 12.6077 30.0185 12.2907 30.2529L11.7915 30.6279C11.6228 30.7556 11.4552 30.8824 11.2899 31.0085C11.2244 31.0582 11.1582 31.1085 11.0931 31.1587C11.0268 31.2093 10.9603 31.2606 10.8929 31.3132C9.44609 32.4443 7.6145 33.9909 6.28005 35.9285C6.27705 35.933 6.27238 35.9404 6.26859 35.9467C6.1409 36.1315 6.02765 36.3055 5.9248 36.4754C5.91564 36.4878 5.90753 36.5009 5.90039 36.5147C5.88884 36.5319 5.87809 36.5492 5.86734 36.5665L5.85597 36.5848C5.85307 36.5894 5.85033 36.5942 5.8476 36.599C5.84681 36.6003 5.84601 36.6015 5.84531 36.6028C4.90444 38.1713 4.29318 39.8045 4.02826 41.4572C4.02703 41.4627 4.02597 41.4682 4.02509 41.4737C3.91484 42.1686 3.86584 42.8754 3.87941 43.5743V43.5752C3.98772 48.6509 7.41295 53.114 12.6057 54.951C14.5549 55.6407 16.8085 55.9945 19.1547 55.9945ZM26.3583 48.6742C27.2869 48.6742 28.6784 48.7344 29.7927 48.9891C30.5395 49.1597 31.4575 49.4869 31.5907 50.076C31.6827 50.4827 31.4475 51.2382 29.8048 52.5282C28.1193 53.8516 25.3617 54.8485 22.239 55.2634C18.8761 55.7103 15.5178 55.4232 12.7828 54.4555C7.79878 52.6923 4.51147 48.4194 4.40792 43.5696L4.14362 43.5719L4.40792 43.5667C4.39497 42.9021 4.44106 42.2302 4.54505 41.5692C4.54637 41.5636 4.54743 41.558 4.54831 41.5523C4.80107 39.9647 5.38845 38.393 6.29406 36.8809C6.3012 36.8708 6.30764 36.8602 6.31336 36.8491C6.31354 36.8487 6.3138 36.8482 6.31398 36.8479L6.31768 36.8419C6.32702 36.8269 6.33628 36.8116 6.34703 36.7965C6.35346 36.7874 6.35937 36.778 6.36457 36.7682C6.36615 36.7659 6.36757 36.7634 6.36906 36.7609C6.46953 36.5945 6.58084 36.4232 6.70942 36.2372C6.71268 36.2325 6.71743 36.2248 6.72131 36.2184C8.01311 34.3445 9.80363 32.8337 11.2194 31.7269C11.2851 31.6757 11.3499 31.6254 11.416 31.5751C11.481 31.5249 11.546 31.4755 11.6111 31.4263C11.7765 31.3001 11.9435 31.1737 12.1116 31.0464L12.6074 30.674C12.9225 30.4411 13.2393 30.2092 13.5548 29.9782C14.5244 29.2685 15.5272 28.5345 16.4403 27.7941C16.4421 27.7928 16.4495 27.787 16.4567 27.7811L16.4649 27.7745C17.7833 26.706 18.7348 25.7691 19.4638 24.8226C20.3781 23.636 21.1155 22.4771 21.7181 21.2797C22.8558 19.0211 23.3189 16.9899 23.7666 15.0255C24.1147 13.4984 24.4747 11.9194 25.153 10.2672C25.3899 9.69033 25.6461 9.13256 25.9145 8.60942C26.3231 7.81327 26.7675 7.07908 27.2355 6.42727C28.4764 4.69289 29.9159 3.47991 31.3985 2.9189C32.0933 2.6551 32.806 2.53143 33.5169 2.55106C36.7745 2.64256 39.2592 6.2306 40.1179 8.11502C40.166 8.22054 40.2774 8.28233 40.3935 8.26717C40.5091 8.25192 40.6009 8.16314 40.6196 8.04876C40.998 5.73909 41.7075 3.93276 42.566 3.09279C42.9651 2.70085 43.3682 2.5494 43.7647 2.64256C43.8912 2.67227 44.0157 2.75247 44.1347 2.88113C45.2444 4.06353 45.7187 8.54071 45.3445 14.2886C45.1914 16.6498 44.7744 19.3261 44.0321 22.7109C44.0313 22.7146 44.0305 22.7183 44.0299 22.7219C43.4526 25.3601 42.7444 28.1106 42.0596 30.7707C41.8501 31.5841 41.6412 32.3959 41.4361 33.2034C40.269 37.8039 39.0125 43.0711 38.8768 47.3584C38.8186 49.2125 39.4453 50.7687 39.9489 52.0189C40.2854 52.8543 40.5761 53.5759 40.4694 54.0001C40.4063 54.2501 40.1515 54.461 39.7702 54.5785C38.8348 54.8669 37.2289 54.5761 35.7505 53.2762C35.7477 53.2739 35.745 53.2715 35.7421 53.2692C32.2757 50.4651 32.3921 43.9817 32.5104 42.0614C32.5126 42.0352 32.5151 42.0038 32.5162 41.9737C32.5439 41.5401 32.5754 41.2788 32.5758 41.2762C32.5931 41.1334 32.4919 41.0032 32.3485 40.984C32.2049 40.9653 32.0728 41.064 32.0518 41.2063C31.9368 41.9813 31.7098 42.7216 31.3768 43.4065C30.3762 45.4687 28.5797 46.7225 27.2436 47.4128C27.2387 47.4149 27.2339 47.4173 27.2291 47.4197C27.084 47.4945 26.9395 47.5655 26.7993 47.6307C26.3802 47.8273 25.9471 47.9999 25.5452 48.1306C25.5407 48.1318 25.5363 48.1331 25.5321 48.1345C25.4954 48.1465 25.4647 48.1561 25.4407 48.1637C25.394 48.1783 25.3706 48.1856 25.3471 48.1965C25.2344 48.2482 25.1729 48.371 25.1995 48.4916C25.2262 48.6122 25.3336 48.6982 25.4578 48.6982C25.4707 48.6982 25.4856 48.6977 25.5024 48.6958C25.5115 48.6953 25.5205 48.6942 25.5296 48.6929C25.5346 48.6929 25.5476 48.6926 25.5524 48.6923C25.7314 48.6826 26.0128 48.6742 26.3583 48.6742ZM25.3954 48.1836C25.3949 48.1837 25.3946 48.1838 25.3942 48.184C25.3946 48.1838 25.3949 48.1837 25.3954 48.1836ZM25.4154 48.181C25.4151 48.1811 25.4148 48.1811 25.4146 48.1812C25.4148 48.1812 25.4151 48.1811 25.4154 48.181ZM6.38193 36.7283C6.38184 36.7286 6.38175 36.7289 6.38166 36.7291C6.38175 36.7288 6.38184 36.7286 6.38193 36.7283Z" fill="#232323"/>
<path d="M43.7614 12.8944C43.7023 13.1289 43.5937 13.3481 43.4429 13.5377C43.2964 13.7239 43.122 13.8867 42.9258 14.0203C42.3342 14.4485 41.5795 14.5875 40.8729 14.3986C40.6402 14.3365 40.4184 14.2398 40.2149 14.1116C39.8033 13.8603 39.4953 13.4711 39.3465 13.0141C39.3113 12.8973 39.378 12.7744 39.4954 12.7394C39.5913 12.7108 39.6947 12.7497 39.7475 12.8344L39.7517 12.8417C39.943 13.1481 40.2146 13.3971 40.5371 13.562C40.6954 13.643 40.8636 13.7032 41.0375 13.7411C41.2103 13.7807 41.3876 13.7977 41.5649 13.7917C41.9238 13.7714 42.273 13.6674 42.5841 13.4881C42.9027 13.3178 43.1666 13.0618 43.3459 12.7493L43.3501 12.7413C43.4076 12.6338 43.5417 12.593 43.6499 12.6501C43.7386 12.697 43.7846 12.7974 43.7618 12.8948L43.7614 12.8944Z" fill="#232323"/>
<path d="M44.4711 1.99257C44.3803 2.94026 43.9537 3.71634 43.3156 3.71634C42.6775 3.71634 42.2603 2.9393 42.16 1.99257C42.0708 1.15277 42.4267 0.268799 43.3155 0.268799C44.2043 0.268799 44.56 1.06443 44.4711 1.99257Z" fill="#232323"/>
<path d="M43.3156 3.97926C44.0519 3.97926 44.622 3.19091 44.7344 2.01754C44.7982 1.35127 44.6515 0.785536 44.3214 0.424532C44.071 0.150559 43.7231 0.00585938 43.3156 0.00585938C42.9201 0.00585938 42.5773 0.153626 42.3244 0.433034C41.9905 0.802013 41.8307 1.39527 41.8971 2.02017C42.023 3.21028 42.5799 3.97926 43.3156 3.97926ZM44.208 1.96758C44.1242 2.84235 43.7572 3.4534 43.3156 3.4534C42.8828 3.4534 42.5158 2.84139 42.423 1.96504C42.3729 1.49308 42.4857 1.04093 42.7175 0.784835C42.8695 0.61691 43.0707 0.53172 43.3156 0.53172C43.5739 0.53172 43.7805 0.614631 43.9302 0.778261C44.1555 1.02471 44.2568 1.4582 44.208 1.96758Z" fill="#232323"/>
<path d="M27.6152 9.20763C29.5349 7.69981 29.7368 5.99129 31.3393 5.81504C33.7205 5.55307 34.8879 11.6519 32.3534 17.2459C30.1908 22.0191 25.9204 25.6904 20.4227 22.9169C14.3005 19.8281 15.7998 15.2556 18.1275 13.7272C20.1119 12.4244 24.0803 12.6241 27.6152 9.20763Z" fill="#232323"/>
<path d="M38.1659 9.52786C37.6384 9.52786 37.2108 8.93252 37.2108 8.19813C37.2108 7.46375 37.6384 6.86841 38.1659 6.86841C38.6935 6.86841 39.1211 7.46375 39.1211 8.19813C39.1211 8.93252 38.6935 9.52786 38.1659 9.52786Z" fill="#232323"/>
<path d="M6.08921 36.7177C6.09026 36.7288 6.09026 36.7387 6.09141 36.7498C6.09361 36.773 6.09476 36.7962 6.09811 36.8206C6.12922 37.1347 6.20818 37.4599 6.32169 37.7729C6.55638 38.4122 6.93895 39.004 7.36602 39.3634C9.289 40.9882 13.0994 39.6687 15.8765 36.4169C18.6536 33.164 19.3454 29.2121 17.4213 27.5873C17.2289 27.4247 17.0142 27.2887 16.7829 27.1836C16.6461 27.2964 16.4848 27.4258 16.3024 27.5674C16.2924 27.5751 16.2836 27.5829 16.2735 27.5906C15.3426 28.3151 13.8901 29.3824 12.4487 30.4642C12.3141 30.5648 12.1807 30.6655 12.046 30.7661C11.8458 30.9176 11.6468 31.068 11.4511 31.2174C11.3854 31.2672 11.3199 31.3169 11.2553 31.3667C11.1886 31.4177 11.123 31.4685 11.0563 31.5205C9.46473 32.7471 7.8354 34.1175 6.6609 35.8053C6.6609 35.8065 6.6587 35.8087 6.65641 35.812C6.65412 35.8153 6.65191 35.8187 6.64865 35.8242C6.46622 36.0841 6.29719 36.3507 6.14261 36.626C6.13706 36.6316 6.13371 36.6382 6.13151 36.6449C6.11705 36.669 6.10251 36.6933 6.08921 36.7177Z" fill="#232323"/>
<path d="M9.44378 40.3239C10.045 40.3239 10.6988 40.2057 11.3875 39.9672C13.0387 39.3955 14.7044 38.1951 16.0776 36.5872C17.4509 34.9786 18.3722 33.1495 18.672 31.4366C18.9804 29.6737 18.5969 28.2354 17.592 27.3869C17.3806 27.2081 17.1451 27.0593 16.8925 26.9445C16.7998 26.9025 16.6919 26.9168 16.6138 26.9812C16.4668 27.1024 16.3072 27.2299 16.1394 27.3601L16.1119 27.3821C15.4892 27.8668 14.6217 28.5133 13.7033 29.1977C13.2436 29.5404 12.7657 29.8965 12.2891 30.2542L11.7914 30.6281C11.6227 30.7558 11.4551 30.8826 11.2898 31.0087C11.2243 31.0583 11.1581 31.1087 11.0929 31.1589C11.0267 31.2094 10.9602 31.2608 10.8928 31.3134C9.29378 32.5457 7.64709 33.9254 6.44316 35.6555C6.44139 35.658 6.43981 35.6605 6.43813 35.663C6.43734 35.6641 6.43664 35.6651 6.43611 35.6659C6.43373 35.6695 6.43082 35.6737 6.42703 35.6797C6.24196 35.9439 6.07196 36.2131 5.92117 36.4803C5.91112 36.4946 5.90231 36.5098 5.89473 36.5258C5.88133 36.5484 5.86864 36.5702 5.85666 36.5919C5.83172 36.6376 5.82088 36.6895 5.82546 36.7413C5.82634 36.7567 5.82705 36.767 5.82819 36.778L5.82951 36.7945C5.83101 36.8129 5.83251 36.8315 5.83498 36.8506C5.86776 37.1775 5.9477 37.5178 6.07249 37.8619C6.32815 38.5588 6.73707 39.1788 7.19464 39.564C7.79198 40.0688 8.56108 40.3239 9.44378 40.3239ZM16.8182 27.4947C16.9719 27.577 17.1165 27.6751 17.2496 27.7877C19.0589 29.3156 18.3522 33.1102 15.6744 36.2468C14.3613 37.7843 12.777 38.9293 11.2135 39.4706C9.69803 39.9954 8.3924 39.8861 7.53666 39.1632C7.15251 38.8398 6.79109 38.2865 6.56953 37.6829C6.46087 37.3833 6.38852 37.0759 6.36067 36.7949C6.36032 36.7915 6.35996 36.7882 6.35943 36.7849C6.35917 36.7827 6.3589 36.7805 6.35864 36.7784C6.3604 36.7754 6.36208 36.7724 6.36375 36.7693C6.36701 36.7644 6.37001 36.7594 6.37292 36.7542C6.51868 36.4944 6.68428 36.2321 6.86494 35.9746C6.86812 35.9701 6.8712 35.9654 6.87411 35.9607C6.87728 35.9562 6.88019 35.9517 6.8831 35.9474C8.04579 34.2794 9.65344 32.934 11.2177 31.7284C11.2849 31.6761 11.3498 31.6258 11.4158 31.5754C11.4808 31.5252 11.5458 31.4759 11.6109 31.4266C11.7763 31.3005 11.9433 31.174 12.1115 31.0468L12.6072 30.6744C13.0837 30.3167 13.5611 29.961 14.0204 29.6186C14.941 28.9326 15.8106 28.2844 16.4359 27.7977C16.4419 27.7932 16.4492 27.7873 16.4564 27.7814L16.4646 27.7748C16.5872 27.6796 16.7055 27.5858 16.8182 27.4947ZM6.38173 36.7284C6.38173 36.7285 6.38173 36.7286 6.38164 36.7288C6.38173 36.7286 6.38173 36.7285 6.38173 36.7284Z" fill="#232323"/>
<path d="M19.0543 50.1625C19.0866 50.1625 19.1193 50.1566 19.1512 50.1441C21.2321 49.3284 21.9798 47.7481 22.2407 46.566C22.6602 44.6651 22.0742 42.3601 20.8476 41.0851C20.7466 40.9801 20.5791 40.9765 20.4737 41.0769C20.3682 41.1773 20.3645 41.3437 20.4654 41.4487C21.5793 42.6063 22.1087 44.7111 21.7242 46.4534C21.4909 47.5105 20.8215 48.9242 18.9573 49.6549C18.8214 49.7081 18.7547 49.8609 18.8083 49.9959C18.8491 50.0993 18.9488 50.1625 19.0543 50.1625Z" fill="#232323"/>
<path d="M19.1167 49.8676C19.1167 49.8676 22.7556 48.4971 26.2808 48.4094L19.1167 49.8676Z" fill="white"/>
<path d="M19.1164 50.1307C19.1475 50.1307 19.1792 50.1253 19.21 50.1136C19.246 50.1001 22.8497 48.758 26.2871 48.6725C26.4331 48.6688 26.5485 48.5483 26.5448 48.4031C26.5411 48.2579 26.4175 48.1431 26.2739 48.1468C22.7444 48.2345 19.1731 49.5652 19.0228 49.6219C18.8863 49.6733 18.8176 49.825 18.8692 49.9609C18.9091 50.0659 19.0097 50.1307 19.1164 50.1307Z" fill="#232323"/>
<path d="M32.7935 37.3337C32.7935 37.3337 32.4494 40.434 32.185 42.3621L32.7935 37.3337Z" fill="white"/>
<path d="M32.1857 42.625C32.3158 42.625 32.4293 42.5294 32.4473 42.3976C32.7091 40.4882 33.053 37.3936 33.0565 37.3626C33.0726 37.2182 32.9678 37.0883 32.8227 37.0724C32.6776 37.0566 32.547 37.1605 32.531 37.3049C32.5275 37.3359 32.1843 40.4239 31.9233 42.3266C31.9036 42.4705 32.0049 42.603 32.1495 42.6227C32.1618 42.6242 32.1739 42.625 32.1857 42.625Z" fill="#232323"/>
</g>
<defs>
<clipPath id="clip0_1481_2919">
<rect width="46" height="56" fill="white" transform="matrix(-1 0 0 1 46 0)"/>
</clipPath>
</defs>
</svg>
